<svg xmlns="http://www.w3.org/2000/svg" xmlns:xlink="http://www.w3.org/1999/xlink" width="32" height="32"><defs><linearGradient id="a"><stop offset="0" stop-color="#54a308"/><stop offset="1" stop-color="#6ecb14"/></linearGradient><linearGradient xlink:href="#a" id="b" x1=".059" y1="1036.362" x2="31.941" y2="1036.362" gradientUnits="userSpaceOnUse"/></defs><path d="M9 1032.362v5c-2 0-3-2-5-2s-3 3-3 5 1 5 3 5 3-2 5-2v5c0 2 1 3 3 3h5v-3c0-4 6-4 6 0v3h5c2 0 3-1 3-3v-5h-3c-4 0-4-6 0-6h3v-5c0-2-1-3-3-3h-5c0-2 2-3 2-5s-1-3-5-3c-3 0-5 1-5 3s2 3 2 5h-5c-2 0-3 1.118-3 3z" fill="url(#b)" stroke="#3b7404" stroke-width="1.882" transform="translate(0 -1020.362)"/></svg>