<svg xmlns="http://www.w3.org/2000/svg" xmlns:xlink="http://www.w3.org/1999/xlink" width="12" height="48" >
  <defs>
  <symbol id="a">
  <path d="M6 0C2.686 0 0 2.686 0 6s2.686 6 6 6 6-2.686 6-6-2.686-6-6-6zm0 1c1.208 0 2.292.443 3.156 1.156l-7 7C1.443 8.292 1 7.208 1 6c0-2.76 2.24-5 5-5zm3.844 1.844C10.557 3.708 11 4.792 11 6c0 2.76-2.24 5-5 5-1.208 0-2.292-.443-3.156-1.156l7-7z"/>
  </symbol>
  </defs>
  <use xlink:href="#a" x="0" y="0" fill="#fff" />
  <use xlink:href="#a" x="0" y="12" fill="#ea2d2d" />
  <use xlink:href="#a" x="0" y="24" fill="#333" />
  <use xlink:href="#a" x="0" y="36" fill="#ea2d2d" />
</svg>
