<svg xmlns="http://www.w3.org/2000/svg" width="27" height="27">
    <g fill="none" stroke="#000" stroke-width="1" style="stroke-linecap:round">
        <circle cx="13.5" cy="13.5" r="6.2"/>
        <path d="M10.5 19v4.5c0 3.5 6 3.5 6 0v-4.5M1 13.5l4 0M26 13.4l-4 0M13.4 1l0 4"/>
        <path d="M1 13.5l4 0" transform="rotate(30 13.5 13.5)"/>
        <path d="M1 13.5l4 0" transform="rotate(60 13.5 13.5)"/>
        <path d="M1 13.5l4 0" transform="rotate(120 13.5 13.5)"/>
        <path d="M1 13.5l4 0" transform="rotate(150 13.5 13.5)"/>
        <path d="M1 13.5l4 0" transform="rotate(-30 13.5 13.5)"/>
        <path d="M1 13.5l4 0" transform="rotate(210 13.5 13.5)"/>
    </g>
</svg>
