<svg xmlns="http://www.w3.org/2000/svg" xmlns:xlink="http://www.w3.org/1999/xlink" width="12" height="48" >
  <defs>
    <symbol id="a">
<path d="M7 12H5v-2h2zm2.628-7.314c-.423.943-1.448 1.992-2.286 2.73C6.96 7.775 7.012 8.53 7 9H5c-.01-.635-.076-1.4.17-2 .5-1 2.02-1.603 2.476-2.552C8.263 3.173 7.706 2 6 2c-1.318-.108-1.85.86-2 2H2c-.022-1.053.29-2.145 1.08-2.874C3.87.396 5 .226 6 .252 7.214.227 8.718.568 9.28 1.27c.564.702.587.954.678 1.51.062.618.092.964-.33 1.906z"/>
    </symbol>
  </defs>
  <use xlink:href="#a" x="0" y="0" fill="#fff" />
  <use xlink:href="#a" x="0" y="12" fill="#288ac6" />
  <use xlink:href="#a" x="0" y="24" fill="#333" />
  <use xlink:href="#a" x="0" y="36" fill="#2b94e1" />
</svg>

