<svg xmlns="http://www.w3.org/2000/svg" width="18" height="18"><g stroke-linejoin="round"><path d="M15.69 14.192s-2.827-.956-3.836-.202c-1.01.796-1.86 3.363-1.86 3.363s-1.204-2.757-2.57-2.857C5.49 14.41 3.732 15.56 3.732 15.56s.743-2.686.202-3.838C3.294 10.512.57 9.862.57 9.862S3.123 8.41 3.43 7.293c.363-1.386-1.063-3.69-1.063-3.69s3.232.57 3.837.2C6.934 3.278 8.062.44 8.062.44s1.147 2.572 2.57 2.857c1.92.185 3.692-1.064 3.692-1.064s-.83 2.856-.203 3.837c.954 1.238 3.364 1.86 3.364 1.86s-2.4 1.02-2.857 2.57c-.54 1.337 1.064 3.692 1.064 3.692z" fill="#b1e026" stroke="#4b632d" stroke-width=".944"/><path d="M9.165 3.234v1.543c-.4-.18-.79-.314-1.172-.405-.38-.09-.74-.137-1.08-.137-.448 0-.78.062-.995.186-.215.125-.322.317-.322.577 0 .195.07.348.215.46.147.107.41.2.792.277l.8.162c.81.162 1.387.41 1.73.742.34.332.512.804.512 1.416 0 .804-.24 1.403-.718 1.797-.475.39-1.203.587-2.183.587-.462 0-.926-.044-1.39-.132-.467-.088-.932-.218-1.398-.39V8.326c.466.248.915.435 1.348.562.436.122.856.184 1.26.184.41 0 .724-.068.942-.205.218-.137.327-.333.327-.587 0-.228-.075-.403-.225-.527-.146-.124-.44-.234-.883-.332l-.728-.16c-.73-.157-1.263-.406-1.6-.748-.337-.342-.504-.803-.504-1.382 0-.726.234-1.284.703-1.675.47-.392 1.142-.587 2.02-.587.402 0 .813.03 1.237.093.423.058.86.148 1.313.268" style="-inkscape-font-specification:DejaVu Sans Bold" font-weight="bold" font-family="DejaVu Sans" font-size="40" letter-spacing="0" word-spacing="0" fill="#f47521" stroke="#fff" stroke-width=".4" stroke-linecap="round"/><path d="M11.288 14.077c-.046.01-.085.016-.117.02-.028.006-.058.01-.087.01-.837 0-1.47-.32-1.904-.958-.43-.64-.646-1.58-.646-2.823 0-1.247.215-2.19.645-2.827.432-.638 1.07-.957 1.913-.957.846 0 1.484.32 1.914.957.433.638.65 1.58.65 2.827 0 .856-.103 1.574-.308 2.153-.207.576-.504.988-.895 1.236l.908.888-.986.733-1.09-1.26m-.194-6.24c-.368 0-.637.197-.806.59-.17.39-.254 1.024-.254 1.9 0 .872.085 1.505.254 1.9.17.39.438.585.806.585.37 0 .64-.195.81-.586.17-.394.254-1.027.254-1.9 0-.875-.084-1.508-.254-1.9-.17-.392-.44-.59-.81-.59" style="-inkscape-font-specification:DejaVu Sans Mono Bold" font-size="10" font-weight="bold" font-family="DejaVu Sans Mono" letter-spacing="0" word-spacing="0" fill="#f47521" stroke="#fff" stroke-width=".4" stroke-linecap="round"/></g></svg>