<svg xmlns="http://www.w3.org/2000/svg" width="137" height="104"><path d="M128.78 64.28l-36.093 4.5 7.295 7.81c-.384.026 4.472.743 7.088 1.05 1.156.134 1.583.35 2.787.847 2.065.85 2.807 1.672 7.258 1.532 4.45-.14 7.598-.008 9.938-3.22 2.34-3.215 4.01-8.26 6.29-9.112-1.802-.706-3.43-1.695-4.562-3.407zM100 75.53l-74 3c4 4 .005 7.996-11.25 16.626 22-12 40-6 41 7 9-18 24 1 24 1-1-8-2-21 26-8-6-9-9.75-17.625-5.75-19.625z" fill="#afafaf"/><path d="M26 13c8 14 14.326 44.845-13 39 9 9 21 21 1 36 22-12 40-6 41 7 9-18 24 1 24 1-1-8-2-21 26-8-6-9-11-32 28-26-35-17-16-32-7-43C82 38 75 31 75 3 61 34 51 42 26 13z" fill="#5c7a36"/><path d="M39 50s-4-6-15-6S5 50 5 62s11 13 11 13l5 5h12s3-1 3-4-1-3-3-6c3 3 3 5 5 5h18c1.132-1.6 2.552-3.087 4 0h9l2-1h18c2-1 2.35-.825 4 0h12l2-1s2 2 5 3h9s7-3 8-14c0 0 1-13-11-13-5 0-9 3-9 3s7-4 7-12c0-10-8-12-13-12s-10 1-12 4c-2-2-7.41-4.125-11-4s-6 0-9 4c1-3 3-8-3-9H55c-3.125.804-10.018 2-11 12v5l-3 5z" fill="#fff" stroke="#000" stroke-width="2" stroke-linejoin="round"/><path style="line-height:125%;-inkscape-font-specification:Sans Bold Italic" d="M20.485 71.422h-.49c-4.008 0-6.91-1.063-8.702-3.188C9.51 66.11 9.017 63.15 9.81 59.36c.793-3.782 2.52-6.745 5.183-8.89 2.673-2.147 5.96-3.22 9.86-3.22 3.944 0 6.79 1.063 8.54 3.187 1.76 2.126 2.243 5.1 1.45 8.922-.543 2.624-1.597 4.885-3.162 6.78-1.563 1.897-3.546 3.324-5.947 4.282l3.813 5.25h-5.98l-3.08-4.25M23.94 51.61c-1.912 0-3.536.677-4.873 2.03-1.336 1.355-2.26 3.26-2.77 5.72-.522 2.5-.408 4.416.342 5.75.76 1.322 2.118 1.984 4.073 1.984 1.923 0 3.553-.677 4.89-2.03 1.336-1.356 2.26-3.257 2.77-5.705.51-2.46.38-4.365-.39-5.72-.773-1.353-2.12-2.03-4.043-2.03" font-size="32.681" font-style="italic" font-weight="bold" letter-spacing="0" word-spacing="0" fill="#f47521" font-family="Sans"/><path style="line-height:125%;-inkscape-font-specification:Sans Bold Italic" d="M38.103 64.188L40.335 53.5h5.867l-.358 1.75-.782 3.578c-.305 1.427-.506 2.38-.603 2.86-.295 1.406-.47 2.42-.523 3.046-.054.615-.016 1.063.114 1.344.164.365.414.646.75.844.35.198.772.297 1.272.297 1.217 0 2.265-.45 3.145-1.345.89-.896 1.5-2.14 1.826-3.734l1.81-8.64h5.833L55.036 71H49.2l.523-2.53c-1.087 1.02-2.173 1.775-3.26 2.264-1.086.48-2.222.72-3.406.72-2.108 0-3.585-.62-4.433-1.86-.836-1.24-1.01-3.042-.52-5.406M70.502 63.125c-1.217 0-2.173.198-2.868.594-.696.395-1.125.978-1.288 1.75-.152.707-.022 1.264.39 1.67.414.397 1.06.594 1.94.594 1.098 0 2.098-.375 3-1.125.912-.76 1.488-1.71 1.727-2.844l.13-.64h-3.03m9.354-2.11L77.77 71h-5.883l.538-2.594c-1 1.063-2.043 1.84-3.13 2.328-1.075.48-2.313.72-3.715.72-1.89 0-3.314-.527-4.27-1.58-.956-1.06-1.26-2.436-.912-4.124.434-2.052 1.483-3.557 3.145-4.516 1.673-.958 4.085-1.437 7.236-1.437h3.438l.098-.438c.184-.886-.044-1.532-.685-1.938-.64-.417-1.732-.625-3.275-.625-1.25 0-2.44.12-3.57.36-1.118.24-2.194.598-3.226 1.077l.896-4.265c1.314-.293 2.613-.512 3.895-.657 1.294-.157 2.57-.235 3.83-.235 3.293 0 5.542.625 6.748 1.875 1.206 1.24 1.515 3.26.93 6.063M86.545 46.522l-5.282 24.312h6.094l1.563-7.312 5.843 7.312h7.375l-7.968-9.47 11.062-8.03H98.17l-8.407 6.406 2.875-13.218h-6.093zM124.61 62.203l-.343 1.594h-13.64c-.13 1.312.157 2.297.863 2.953.717.656 1.836.984 3.357.984 1.228 0 2.52-.17 3.88-.515 1.357-.355 2.79-.887 4.302-1.595l-.898 4.313c-1.488.5-2.95.875-4.384 1.125-1.434.26-2.84.39-4.22.39-3.304 0-5.705-.802-7.204-2.406-1.49-1.615-1.93-3.875-1.32-6.78.597-2.855 1.96-5.1 4.09-6.736 2.14-1.634 4.786-2.452 7.937-2.452 2.87 0 4.994.828 6.373 2.485 1.38 1.656 1.782 3.87 1.206 6.64m-5.623-1.86c.228-1.062.087-1.916-.424-2.562-.51-.655-1.287-.983-2.33-.983-1.13 0-2.114.307-2.95.922-.837.603-1.462 1.478-1.874 2.624h7.577" font-size="32.681" font-style="italic" font-weight="bold" letter-spacing="0" word-spacing="0" fill="#5c7a36" font-family="Sans"/><path style="line-height:125%;-inkscape-font-specification:Sans Bold Italic" d="M59.438 26.075c-3.26 0-5.945.607-8.032 1.907-2.088 1.3-3.41 3.248-3.968 5.656-.436 1.93-.176 3.574.906 4.78 1.093 1.206 2.943 2.026 5.53 2.532l2.563.5c1.51.304 2.465.682 2.75.938.324.28.425.592.282 1.22-.147.66-.57 1.172-1.376 1.56-.8.392-1.928.595-3.375.595-1.43 0-2.855-.18-4.314-.563-1.458-.393-2.928-.98-4.406-1.75a.463.463 0 0 0-.656.313l-1.157 5.03a.463.463 0 0 0 .282.532c1.586.556 3.19.998 4.843 1.282a.463.463 0 0 0 .03 0c1.664.283 3.326.406 5.032.406 3.62 0 6.505-.602 8.625-1.906 2.13-1.314 3.51-3.383 4.125-6.032.46-2.032.193-3.724-.938-4.906-1.122-1.188-3.123-1.976-6-2.5l-2.78-.5c-1.296-.243-2.18-.57-2.5-.813-.337-.262-.427-.473-.313-.97.158-.69.58-1.184 1.343-1.53v.03c.78-.348 1.996-.562 3.594-.562 1.197 0 2.433.124 3.72.407 1.3.283 2.606.724 3.906 1.28a.463.463 0 0 0 .625-.343l1.095-4.876a.463.463 0 0 0-.313-.53c-1.564-.386-3.095-.718-4.624-.907-1.516-.2-3.025-.282-4.5-.282z" font-size="33.111" font-style="italic" font-weight="bold" letter-spacing="0" word-spacing="0" fill="#f47521" font-family="Sans"/><path style="line-height:125%;-inkscape-font-specification:Sans Bold Italic" d="M88.9 41.1l-.344 1.627h-13.71c-.13 1.34.158 2.346.868 3.016.72.67 1.846 1.005 3.374 1.005 1.234 0 2.534-.175 3.9-.526-.006-.003-.984 3.925-.984 3.925-1.44.266-2.855.4-4.242.4-3.32 0-5.734-.82-7.24-2.458-1.497-1.65-1.94-3.96-1.327-6.927.6-2.915 1.97-5.207 4.11-6.877 2.152-1.67 4.812-2.506 7.978-2.506 2.883 0 5.018.846 6.405 2.538 1.387 1.69 1.79 3.952 1.212 6.78m-5.65-1.897c.228-1.085.086-1.957-.427-2.616-.513-.67-1.294-1.006-2.342-1.006-1.135 0-2.123.314-2.964.942-.84.617-1.47 1.51-1.884 2.68h7.617M103.97 31.78c-3.168 0-5.84.842-7.97 2.5-2.12 1.66-3.462 3.94-4.063 6.876-.202.99-.28 1.905-.25 2.75h3.924l-1.118 4.55c1.233 1.008 3.653 2.075 5.602 2.075 3.156 0 5.82-.808 7.937-2.468 2.12-1.66 3.463-3.97 4.064-6.906.6-2.936.19-5.215-1.25-6.875-1.43-1.658-3.72-2.5-6.875-2.5zm-.845 4.095c1.278 0 2.165.46 2.656 1.375.493.904.57 2.194.22 3.906-.35 1.713-.97 3.023-1.844 3.938-.862.904-1.94 1.375-3.22 1.375-1.298 0-2.195-.472-2.686-1.376-.49-.915-.568-2.225-.22-3.938.35-1.712.95-3.002 1.814-3.906.873-.915 1.98-1.375 3.28-1.375z" font-size="33.111" font-style="italic" font-weight="bold" letter-spacing="0" word-spacing="0" fill="#5c7a36" font-family="Sans"/></svg>