<?xml version="1.0" encoding="UTF-8" standalone="no"?>
<!-- Created with Inkscape (http://www.inkscape.org/) -->

<svg
   xmlns:dc="http://purl.org/dc/elements/1.1/"
   xmlns:cc="http://creativecommons.org/ns#"
   xmlns:rdf="http://www.w3.org/1999/02/22-rdf-syntax-ns#"
   xmlns:svg="http://www.w3.org/2000/svg"
   xmlns="http://www.w3.org/2000/svg"
   xmlns:sodipodi="http://sodipodi.sourceforge.net/DTD/sodipodi-0.dtd"
   xmlns:inkscape="http://www.inkscape.org/namespaces/inkscape"
   width="137"
   height="104"
   id="svg2"
   version="1.1"
   inkscape:version="0.48.4 r9939"
   sodipodi:docname="Новый документ 1">
  <defs
     id="defs4" />
  <sodipodi:namedview
     id="base"
     pagecolor="#ffffff"
     bordercolor="#666666"
     borderopacity="1.0"
     inkscape:pageopacity="0.0"
     inkscape:pageshadow="2"
     inkscape:zoom="5.6"
     inkscape:cx="70.360282"
     inkscape:cy="62.096556"
     inkscape:document-units="px"
     inkscape:current-layer="layer1"
     showgrid="false"
     inkscape:window-width="1920"
     inkscape:window-height="1025"
     inkscape:window-x="-2"
     inkscape:window-y="-3"
     inkscape:window-maximized="1">
    <inkscape:grid
       type="xygrid"
       id="grid2996"
       empspacing="5"
       visible="true"
       enabled="true"
       snapvisiblegridlinesonly="true" />
  </sodipodi:namedview>
  <metadata
     id="metadata7">
    <rdf:RDF>
      <cc:Work
         rdf:about="">
        <dc:format>image/svg+xml</dc:format>
        <dc:type
           rdf:resource="http://purl.org/dc/dcmitype/StillImage" />
        <dc:title></dc:title>
      </cc:Work>
    </rdf:RDF>
  </metadata>
  <g
     inkscape:label="Layer 1"
     inkscape:groupmode="layer"
     id="layer1"
     transform="translate(0,-948.36218)"
     style="display:inline">
    <path
       style="fill:#afafaf;fill-opacity:1;stroke:none"
       d="m 128.78125,64.28125 -36.09375,4.5 7.294643,7.808036 c -0.38386,0.02678 4.472177,0.743981 7.087447,1.049839 1.15633,0.135234 1.58303,0.351499 2.78747,0.847972 2.06482,0.851123 2.80654,1.671962 7.25774,1.532187 4.4512,-0.139775 7.59866,-0.0076 9.93786,-3.220744 2.33921,-3.213116 4.00899,-8.259965 6.29109,-9.11104 -1.80229,-0.705826 -3.43069,-1.694696 -4.5625,-3.40625 z M 100,75.53125 l -74,3 c 4,4 0.0048,7.9946 -11.25,16.625 22,-12 40,-6 41,7 9,-18 24,1 24,1 -1,-8 -1.999997,-21 26,-8 -5.999997,-9 -9.75,-17.625 -5.75,-19.625 z"
       transform="translate(0,948.36218)"
       id="path2998-9"
       inkscape:connector-curvature="0"
       sodipodi:nodetypes="cccsszzccccccccc" />
    <path
       style="fill:#5c7a36;fill-opacity:1;stroke:none"
       d="m 26,13 c 8,14 14.326021,44.845138 -13,39 9,9 21,21 1,36 22,-12 40,-6 41,7 9,-18 24,1 24,1 C 78,88 77,75 105,88 99,79 94,56 133,62 98,45 117,30 126,19 82,38 75,31 75,3 61,34 51,42 26,13 z"
       id="path2998"
       inkscape:connector-curvature="0"
       transform="translate(0,948.36218)"
       sodipodi:nodetypes="cccccccccc" />
    <path
       style="fill:#ffffff;fill-opacity:1;stroke:#000000;stroke-width:2;stroke-linecap:butt;stroke-linejoin:round;stroke-miterlimit:4;stroke-opacity:1;stroke-dasharray:none"
       d="M 39,50 C 39,50 35,44 24,44 13,44 5,50 5,62 5,74 16,75 16,75 l 5,5 12,0 c 0,0 3,-1 3,-4 0,-3 -1,-3 -3,-6 3,3 3,5 5,5 l 6,0 5,0 7,0 c 1.132313,-1.599892 2.551989,-3.087386 4,0 l 9,0 2,-1 18,0 c 2,-1 2.350774,-0.824613 4,0 4.333333,0 7.66667,0 12,0 l 2,-1 c 0,0 2,2 5,3 l 9,0 c 0,0 7,-3 8,-14 0,0 1,-13 -11,-13 -5,0 -9,3 -9,3 0,0 7,-4 7,-12 0,-10 -8,-12 -13,-12 -5,0 -10,1 -12,4 -2,-2 -7.409906,-4.124722 -11,-4 -3.590094,0.124722 -6,0 -9,4 1,-3 3,-8 -3,-9 l -13,0 c -3.125,0.803571 -10.017857,2 -11,12 l 0,5 -3,5 z"
       id="path3786"
       inkscape:connector-curvature="0"
       transform="translate(0,948.36218)"
       sodipodi:nodetypes="csscccscccccccccccccccccczczccccccc" />
    <path
       inkscape:connector-curvature="0"
       id="path3804"
       style="font-size:32.68133163px;font-style:italic;font-variant:normal;font-weight:bold;font-stretch:normal;line-height:125%;letter-spacing:0px;word-spacing:0px;fill:#f47521;fill-opacity:1;stroke:none;font-family:Sans;-inkscape-font-specification:Sans Bold Italic"
       d="m 20.485077,1019.7841 -0.488924,0 c -4.009181,0 -6.910124,-1.0625 -8.702836,-3.1875 -1.7818576,-2.125 -2.276213,-5.0833 -1.4830673,-8.875 0.7931373,-3.7813 2.5206643,-6.7448 5.1825873,-8.89069 2.67277,-2.14581 5.959418,-3.21867 9.859955,-3.21867 3.94396,0 6.790577,1.06248 8.539863,3.18744 1.760094,2.12502 2.243584,5.09902 1.450472,8.92192 -0.543277,2.625 -1.597178,4.8854 -3.161705,6.7812 -1.564579,1.8959 -3.547433,3.323 -5.948568,4.2813 l 3.813603,5.25 -5.981162,0 -3.080218,-4.25 m 3.455058,-19.81248 c -1.91225,0 -3.53656,0.67708 -4.872936,2.03128 -1.336402,1.3541 -2.259924,3.2604 -2.770565,5.7187 -0.521529,2.5 -0.407447,4.4167 0.342246,5.75 0.760535,1.3229 2.118655,1.9843 4.074361,1.9843 1.923082,0 3.552825,-0.677 4.889234,-2.0312 1.336369,-1.3542 2.259891,-3.2552 2.770566,-5.7031 0.51063,-2.4583 0.380251,-4.3646 -0.391139,-5.7187 -0.771434,-1.3542 -2.118688,-2.03128 -4.041767,-2.03128" />
    <path
       inkscape:connector-curvature="0"
       id="path3806"
       style="font-size:32.68133163px;font-style:italic;font-variant:normal;font-weight:bold;font-stretch:normal;line-height:125%;letter-spacing:0px;word-spacing:0px;fill:#5c7a36;fill-opacity:1;stroke:none;font-family:Sans;-inkscape-font-specification:Sans Bold Italic"
       d="m 38.102616,1012.5497 2.232749,-10.6875 5.867081,0 -0.358544,1.75 c -0.206446,0.9479 -0.467204,2.1406 -0.782277,3.5781 -0.304229,1.4271 -0.505232,2.3802 -0.603005,2.8594 -0.293365,1.4063 -0.467204,2.4219 -0.521519,3.0469 -0.05433,0.6146 -0.01631,1.0625 0.114082,1.3438 0.162964,0.3645 0.412859,0.6458 0.749683,0.8437 0.347668,0.1979 0.771401,0.2969 1.2712,0.2969 1.216863,0 2.265331,-0.448 3.145408,-1.3438 0.890911,-0.8958 1.499348,-2.1406 1.825314,-3.7344 l 1.809016,-8.6406 5.834485,0 -3.650627,17.5 -5.834486,0 0.521519,-2.5312 c -1.086512,1.0208 -2.173006,1.776 -3.25949,2.2656 -1.086507,0.4791 -2.221896,0.7187 -3.406166,0.7187 -2.10781,0 -3.585443,-0.6198 -4.432905,-1.8594 -0.836606,-1.2395 -1.010445,-3.0416 -0.521518,-5.4062" />
    <path
       inkscape:connector-curvature="0"
       id="path3808"
       style="font-size:32.68133163px;font-style:italic;font-variant:normal;font-weight:bold;font-stretch:normal;line-height:125%;letter-spacing:0px;word-spacing:0px;fill:#5c7a36;fill-opacity:1;stroke:none;font-family:Sans;-inkscape-font-specification:Sans Bold Italic"
       d="m 70.501941,1011.4872 c -1.216888,0 -2.173004,0.1979 -2.868351,0.5938 -0.695367,0.3958 -1.124532,0.9791 -1.287497,1.7499 -0.152119,0.7084 -0.02174,1.2657 0.391138,1.6719 0.412859,0.3959 1.059323,0.5938 1.939396,0.5938 1.097349,0 2.096925,-0.375 2.99873,-1.125 0.912642,-0.7605 1.488485,-1.7084 1.72753,-2.8438 l 0.130379,-0.6406 -3.031325,0 m 9.354733,-2.1093 -2.086072,9.9843 -5.883378,0 0.537816,-2.5937 c -0.99959,1.0625 -2.042626,1.8385 -3.12911,2.3281 -1.075642,0.4791 -2.314247,0.7187 -3.715817,0.7187 -1.89051,0 -3.313819,-0.526 -4.269932,-1.5781 -0.956118,-1.0625 -1.260338,-2.4375 -0.912656,-4.125 0.434595,-2.0521 1.483063,-3.5573 3.145406,-4.5156 1.673198,-0.9583 4.085218,-1.4375 7.236067,-1.4375 l 3.438761,0 0.09779,-0.4375 c 0.184687,-0.8854 -0.04348,-1.5313 -0.684493,-1.9375 -0.641048,-0.4167 -1.732976,-0.625 -3.275787,-0.625 -1.249482,0 -2.439195,0.1198 -3.569141,0.3593 -1.119098,0.2396 -2.194729,0.5991 -3.226894,1.0782 l 0.89636,-4.2656 c 1.314653,-0.2917 2.613014,-0.5104 3.895089,-0.6563 1.292919,-0.1562 2.569551,-0.2343 3.8299,-0.2343 3.292067,0 5.541112,0.6249 6.747143,1.8749 1.205988,1.2396 1.51564,3.2605 0.928954,6.0626" />
    <path
       sodipodi:type="inkscape:offset"
       inkscape:radius="0"
       inkscape:original="M 85.5625 995.0625 L 80.28125 1019.375 L 86.375 1019.375 L 87.9375 1012.0625 L 93.78125 1019.375 L 101.15625 1019.375 L 93.1875 1009.9062 L 104.25 1001.875 L 97.1875 1001.875 L 88.78125 1008.2812 L 91.65625 995.0625 L 85.5625 995.0625 z "
       style="font-size:32.68133163px;font-style:italic;font-variant:normal;font-weight:bold;font-stretch:normal;line-height:125%;letter-spacing:0px;word-spacing:0px;fill:#5c7a36;fill-opacity:1;stroke:none;font-family:Sans;-inkscape-font-specification:Sans Bold Italic"
       id="path3828"
       d="m 85.5625,995.0625 -5.28125,24.3125 6.09375,0 1.5625,-7.3125 5.84375,7.3125 7.375,0 -7.96875,-9.4688 11.0625,-8.0312 -7.0625,0 -8.40625,6.4062 2.875,-13.2187 -6.09375,0 z"
       transform="translate(0.9821429,-0.17857143)" />
    <path
       inkscape:connector-curvature="0"
       id="path3812"
       style="font-size:32.68133163px;font-style:italic;font-variant:normal;font-weight:bold;font-stretch:normal;line-height:125%;letter-spacing:0px;word-spacing:0px;fill:#5c7a36;fill-opacity:1;stroke:none;font-family:Sans;-inkscape-font-specification:Sans Bold Italic"
       d="m 124.60946,1010.5654 -0.34224,1.5936 -13.64096,0 c -0.13039,1.3126 0.15752,2.2969 0.86375,2.9533 0.71708,0.6562 1.83617,0.9843 3.35728,0.9843 1.22773,0 2.52065,-0.1718 3.87879,-0.5156 1.3581,-0.3542 2.79228,-0.8855 4.30253,-1.5938 l -0.89636,4.3125 c -1.48852,0.5 -2.94986,0.875 -4.38402,1.125 -1.43419,0.2604 -2.8412,0.3906 -4.22104,0.3906 -3.30296,0 -5.7041,-0.802 -7.20346,-2.4062 -1.4885,-1.6146 -1.92854,-3.875 -1.32009,-6.7813 0.59756,-2.8541 1.96111,-5.0989 4.09065,-6.7344 2.14039,-1.6354 4.786,-2.453 7.93685,-2.453 2.86834,0 4.99243,0.8281 6.37231,2.4844 1.37983,1.6562 1.78183,3.8697 1.20601,6.6406 m -5.62262,-1.8594 c 0.22815,-1.0625 0.0869,-1.9167 -0.42373,-2.5626 -0.51068,-0.6562 -1.28752,-0.9843 -2.33054,-0.9843 -1.12996,0 -2.11324,0.3073 -2.94983,0.9218 -0.83661,0.6043 -1.46135,1.4793 -1.87422,2.6251 l 7.57832,0" />
    <path
       sodipodi:type="inkscape:offset"
       inkscape:radius="0.46247748"
       inkscape:original="M 59.4375 974.90625 C 56.237119 974.90627 53.647576 975.51036 51.65625 976.75 C 49.664903 977.9897 48.408387 979.79006 47.875 982.09375 C 47.460132 983.93262 47.715531 985.38404 48.6875 986.46875 C 49.671307 987.55349 51.432155 988.34784 53.96875 988.84375 L 56.53125 989.34375 C 58.072149 989.65361 59.061414 990.01366 59.5 990.40625 C 59.950395 990.79884 60.072176 991.33934 59.90625 992.0625 C 59.728434 992.86828 59.182075 993.5037 58.28125 993.9375 C 57.392244 994.3714 56.212238 994.59375 54.71875 994.59375 C 53.248941 994.59375 51.774742 994.39259 50.28125 994 C 48.787739 993.59715 47.286602 993.00382 45.78125 992.21875 L 44.625 997.25 C 46.189618 997.79747 47.782355 998.22098 49.40625 998.5 C 51.041982 998.77891 52.691834 998.90625 54.375 998.90625 C 57.942798 998.90625 60.734936 998.30218 62.75 997.0625 C 64.776874 995.81246 66.094815 993.89538 66.6875 991.34375 C 67.126042 989.40161 66.851247 987.89745 65.84375 986.84375 C 64.848058 985.79003 62.926643 985.01655 60.09375 984.5 L 57.3125 984 C 55.984927 983.75206 55.075408 983.43467 54.625 983.09375 C 54.174564 982.74253 54.013999 982.2761 54.15625 981.65625 C 54.34589 980.82981 54.884703 980.20509 55.75 979.8125 C 56.627121 979.41996 57.895492 979.21877 59.53125 979.21875 C 60.763963 979.21877 62.028024 979.36702 63.34375 979.65625 C 64.671285 979.94552 66.016167 980.36933 67.34375 980.9375 L 68.4375 976.0625 C 66.884704 975.6803 65.380334 975.37347 63.875 975.1875 C 62.381475 974.99118 60.895424 974.90627 59.4375 974.90625 z "
       style="font-size:33.11084366px;font-style:italic;font-weight:bold;line-height:125%;letter-spacing:0px;word-spacing:0px;fill:#f47521;fill-opacity:1;stroke:none;font-family:Sans;-inkscape-font-specification:Sans Bold Italic"
       id="path3821"
       d="m 59.4375,974.4375 c -3.258576,2e-5 -5.94444,0.60717 -8.03125,1.90625 -2.087791,1.29974 -3.411304,3.24865 -3.96875,5.65625 -0.435334,1.92958 -0.175681,3.57382 0.90625,4.78125 1.09281,1.20493 2.942939,2.02523 5.53125,2.53125 l 2.5625,0.5 c 1.510522,0.30375 2.464216,0.68169 2.75,0.9375 0.323029,0.28157 0.424912,0.59262 0.28125,1.21875 -0.145883,0.66108 -0.567373,1.17358 -1.375,1.5625 -0.800007,0.39046 -1.927414,0.59375 -3.375,0.59375 -1.427612,0 -2.853811,-0.17906 -4.3125,-0.5625 -1.458503,-0.39341 -2.927959,-0.97904 -4.40625,-1.75 a 0.46252372,0.46252372 0 0 0 -0.65625,0.3125 l -1.15625,5.03125 a 0.46252372,0.46252372 0 0 0 0.28125,0.53125 c 1.58679,0.55523 3.19262,0.99755 4.84375,1.28125 a 0.46252372,0.46252372 0 0 0 0.03125,0 c 1.663534,0.28365 3.324758,0.40625 5.03125,0.40625 3.62,0 6.504651,-0.6018 8.625,-1.90625 2.130449,-1.31392 3.509679,-3.38217 4.125,-6.03125 0.458984,-2.03267 0.192897,-3.72401 -0.9375,-4.90625 -1.122086,-1.18748 -3.12326,-1.97546 -6,-2.5 l -2.78125,-0.5 c -1.295029,-0.24186 -2.178343,-0.56903 -2.5,-0.8125 -0.335886,-0.2619 -0.426467,-0.47215 -0.3125,-0.96875 0.158294,-0.68984 0.580776,-1.18508 1.34375,-1.53125 l 0,0.0312 c 0.779167,-0.3487 1.995911,-0.56248 3.59375,-0.5625 1.195639,2e-5 2.431323,0.12324 3.71875,0.40625 1.299207,0.2831 2.606054,0.7248 3.90625,1.28125 a 0.46252372,0.46252372 0 0 0 0.625,-0.34375 l 1.09375,-4.875 A 0.46252372,0.46252372 0 0 0 68.5625,975.625 c -1.564331,-0.38504 -3.095444,-0.71729 -4.625,-0.90625 -1.515743,-0.19924 -3.024124,-0.28123 -4.5,-0.28125 z" />
    <path
       inkscape:connector-curvature="0"
       id="path3799"
       style="font-size:33.11084366px;font-style:italic;font-weight:bold;line-height:125%;letter-spacing:0px;word-spacing:0px;fill:#5c7a36;fill-opacity:1;stroke:none;font-family:Sans;-inkscape-font-specification:Sans Bold Italic"
       d="m 88.900435,989.46155 -0.343991,1.62754 -13.71052,0 c -0.131054,1.34043 0.158336,2.34577 0.868168,3.01594 0.720735,0.67016 1.845531,1.00525 3.374393,1.00525 1.233988,0 2.53351,-0.17549 3.898572,-0.52656 -0.0052,-0.003 -0.982834,3.92545 -0.982834,3.92545 -1.441503,0.26589 -2.855688,0.39894 -4.242561,0.39894 -3.319801,0 -5.7332,-0.8192 -7.240204,-2.45741 -1.496093,-1.64886 -1.938367,-3.95732 -1.326825,-6.92539 0.600616,-2.91477 1.971122,-5.20726 4.111519,-6.87744 2.151302,-1.67015 4.810409,-2.50523 7.977328,-2.50525 2.882958,2e-5 5.017887,0.84574 6.404795,2.53717 1.386863,1.69145 1.790916,3.95202 1.21216,6.78176 m -5.651289,-1.89887 c 0.229309,-1.08511 0.08735,-1.95743 -0.425894,-2.617 -0.513274,-0.67018 -1.29408,-1.00528 -2.342419,-1.00529 -1.135733,10e-6 -2.124024,0.31383 -2.96488,0.94146 -0.840879,0.61702 -1.4688,1.51061 -1.883763,2.68083 l 7.616956,0"
       sodipodi:nodetypes="ccccsccscccccccccccc" />
    <path
       style="font-size:33.11084366px;font-style:italic;font-weight:bold;line-height:125%;letter-spacing:0px;word-spacing:0px;fill:#5c7a36;fill-opacity:1;stroke:none;font-family:Sans;-inkscape-font-specification:Sans Bold Italic"
       d="m 103.96875,31.78125 c -3.16692,2e-5 -5.839288,0.84049 -7.96875,2.5 -2.118556,1.65955 -3.461884,3.93895 -4.0625,6.875 -0.202735,0.991086 -0.279932,1.904378 -0.25,2.75 l 3.923858,0 -1.118972,4.551079 c 1.23217,1.006977 3.652939,2.073921 5.601364,2.073921 3.15597,0 5.81893,-0.80923 7.9375,-2.46875 2.11852,-1.65953 3.46186,-3.97006 4.0625,-6.90625 0.6006,-2.93605 0.19147,-5.21545 -1.25,-6.875 -1.43059,-1.65951 -3.71904,-2.49998 -6.875,-2.5 z M 103.125,35.875 c 1.27767,2e-5 2.16482,0.46014 2.65625,1.375 0.4914,0.90425 0.56818,2.19363 0.21875,3.90625 -0.34947,1.71282 -0.97014,3.02267 -1.84375,3.9375 -0.86273,0.90418 -1.94109,1.375 -3.21875,1.375 -1.299536,0 -2.196093,-0.47082 -2.6875,-1.375 -0.491426,-0.91483 -0.568211,-2.22468 -0.21875,-3.9375 0.349442,-1.71262 0.949781,-3.002 1.8125,-3.90625 0.87362,-0.91486 1.98172,-1.37498 3.28125,-1.375 z"
       transform="translate(0,948.36218)"
       id="path3801"
       inkscape:connector-curvature="0"
       sodipodi:nodetypes="ccscccscsccccscscccc" />
  </g>
</svg>
