<svg xmlns="http://www.w3.org/2000/svg" xmlns:xlink="http://www.w3.org/1999/xlink" width="12" height="48">
  <defs>
  <symbol id="a">
  <path d="M3 1v2H2c-.66 0-1 .336-1 1v1C0 5 0 7 1 7v4h10V7c1 0 1-2 0-2V4c0-.66-.342-1-1-1H9V1H8v2H4V1H3zm0 4h1v1H3V5zm5 0h1v1H8V5zM3 8h6v1H3V8z"/>
  </symbol>
  </defs>
  <use xlink:href="#a" x="0" y="0" fill="#81938a" />
  <use xlink:href="#a" x="0" y="12" fill="#fff" />
  <use xlink:href="#a" x="0" y="24" fill="#adbabe" />
  <use xlink:href="#a" x="0" y="36" fill="#64787e" />
</svg>
