<svg xmlns="http://www.w3.org/2000/svg" viewBox="0 0 50 48" width="50" height="48"><path d="M24.11 5.772l.953-.032.983 4.02-2.462.017" fill="#faa73e"/><circle r="1.2" cy="5" cx="24.5" fill="#e51d25"/><path d="M43.953 51.266H5.29V22.69c0-7.29 2.074-13.253 18.024-13.253 18.876 0 20.64 5.962 20.64 13.253v28.576z" fill="#e51d25"/><path d="M33.508 26.848H14.65c-3.235 0-5.658-2.582-5.658-5.753v-.646c0-3.174 1.938-5.756 9.303-5.756h11.2c7.404 0 9.342 2.582 9.342 5.753v.645c0 3.152-2.093 5.753-5.33 5.753z" fill="#f9f8de"/><path d="M33.508 27.418H14.65c-3.507 0-6.24-2.772-6.24-6.323v-.646c0-4.256 3.237-6.325 9.885-6.325h11.2c6.687 0 9.924 2.07 9.924 6.322v.645c0 3.646-2.484 6.323-5.914 6.323zm-15.213-12.17c-7.83 0-8.72 2.96-8.72 5.182v.646c0 2.905 2.227 5.183 5.076 5.183h18.86c2.753 0 4.75-2.186 4.75-5.186v-.646c0-2.22-.91-5.184-8.76-5.184H18.3z" fill="#0dbaa6"/><path d="M22.326 22.88c.02-.21.193-.38.407-.36.213.017.387.19.368.397.68 2.143 2.39 1.362 2.6-.114.02-.21.213-.36.426-.342.213.02.368.21.35.42-.568 2.847-3.664 2.69-4.15 0zM34.283 21.02l-1.744-1.33c-.4-.295-.22-.688.074-.856.62-.34 1.22-.72 1.803-1.12.173-.114.425-.076.54.095.118.17.08.416-.096.53-.503.342-1.006.664-1.55.97l1.435 1.08c.174.133.194.36.078.532-.178.22-.417.172-.54.096z" fill="#3b2025"/><path d="M18.857 15.816c-.04 0-.06-.038-.06-.057 0-.04.02-.06.06-.06.038 0 .058.02.058.057 0 .037-.02.056-.058.056z" fill="#f9f8de"/><path d="M16.24 36.38c.562-.152 1.473-3.342-1.59-2.943-.753.13-1.546.227-2.286.304l.35-2.05c.193-1.1-.582-2.144-1.706-2.334-1.124-.19-2.19.57-2.384 1.67L8.14 33.93c-.875.032-1.78-.093-2.442-.493-.388-.285-.33-2.526-.388-3.437-3.682.133-4.167 3.17-4.283 3.797-2.384 12.21 12.792 9.7 14.944 7.175.683-1.693 1.796-4.087.27-4.592z" fill="#faa73e"/><path d="M14.69 20.848c-.698 0-1.26-.55-1.26-1.234v-.532c0-.683.562-1.234 1.26-1.234s1.26.55 1.26 1.234v.532c0 .664-.562 1.234-1.26 1.234z" fill="#3b2025"/><path d="M49.496 34.424c-.02-2.41-3.1-3.91-5.543-3.797 0 0-.038 1.822-.02 2.64-3.317-.1-5.817-1.36-8.584-2.394-.817-.322-1.767.095-2.19.798-.488.78-.41 1.94.56 2.43.58.307 1.123.668 1.724.896-.72.01-1.21.32-1.433.835-.25.838.15 1.553 1.126 2.03-.466.155-.796.648-.738 1.12.228 1.127.437 1.48.95 2.47.29.305.715.438 1.14.53.97.21 2.424.497 5.776.326.02 0 .02 0 .04-.02 3.236-.075 7.228-1.632 7.19-7.86z" fill="#faa73e"/><path d="M53.004 45.57H-2.384L-2.48-1.14h55.368z" fill="none"/></svg>