<svg xmlns="http://www.w3.org/2000/svg" width="16" height="16" viewBox="0 0 16 16"><path d="M8 0C5.3 0 2.3 1.3 0 5c2.3 3.7 5.3 5 8 5s5.7-1.3 8-5c-2.3-3.7-5.3-5-8-5zm0 9C5.8 9 4 7.2 4 5s1.8-4 4-4 4 1.8 4 4-1.8 4-4 4z"/><circle cx="8" cy="8" r="2" transform="translate(0 -3)"/><path d="M3 11c-.554 0-1 .446-1 1v3c0 .554.446 1 1 1h10c.554 0 1-.446 1-1v-3c0-.554-.446-1-1-1zm5.094 1.063c.654.027.97.562.97.562.044.16.01.252-.087.34-.194.11-.34.04-.446-.06 0 0-.092-.233-.467-.25-.275-.01-.357.103-.375.25.003.163.324.258.542.298.168.06.315.1.49.203.272.113.39.38.405.563.01.356-.178.604-.375.75-.223.125-.458.124-.656.124-.233 0-.484-.027-.688-.156-.204-.13-.375-.37-.375-.657-.007-.076.016-.156.064-.217.066-.1.196-.15.312-.125.08.022.15.08.188.156.03.057.04.124.03.187 0 .06.01.073.095.126.082.053.247.094.374.094.16 0 .287-.03.344-.062.05-.028.09-.044.093-.157-.005-.036-.022-.122-.115-.177-.094-.056-.21-.103-.38-.162-.17-.06-.49-.178-.665-.287-.253-.146-.288-.35-.308-.497.02-.48.48-.866 1.032-.844zm-2.344.03c.51.005.9.323 1.03.75.054.19-.043.325-.19.38-.175.055-.345-.09-.37-.192-.06-.194-.212-.34-.47-.342-.205-.002-.65.186-.656.78-.002.57.29.77.593.782.326.008.51-.25.532-.344.07-.195.237-.222.346-.203.18.006.29.186.247.36-.098.41-.517.796-1.125.78-.695.008-1.165-.615-1.188-1.374.007-.894.688-1.38 1.25-1.376zm3.68.01c.155-.046.333-.018.414.21-.002.004.562 1.5.562 1.5l.563-1.5c.063-.14.208-.26.413-.188.196.038.195.275.148.375l-.686 1.812c-.125.303-.207.465-.446.458-.25-.006-.31-.225-.43-.49l-.687-1.78c-.07-.218.006-.328.15-.398z"/></svg>