<?xml version="1.0" encoding="utf-8"?>
<!-- Generator: Adobe Illustrator 22.1.0, SVG Export Plug-In . SVG Version: 6.00 Build 0)  -->
<svg version="1.1" id="レイヤー_1" xmlns="http://www.w3.org/2000/svg" xmlns:xlink="http://www.w3.org/1999/xlink" x="0px"
	 y="0px" viewBox="0 0 600 196" style="enable-background:new 0 0 600 196;" xml:space="preserve">
<style type="text/css">
	.st0{fill:#EF831D;}
</style>
<g>
	<path d="M140.8,142.7c-11,31.1-37.4,49.1-68,49.1C33.1,191.8,2,159.9,2,120.5c0-41.6,30.1-74,70.5-74c31.4,0,60,19.7,68.3,49.6
		h-28.7c-7.7-16.2-20.2-25.9-38.9-25.9c-27.2,0-45.3,20.7-45.3,48.8c0,27.4,18.7,49.1,44.8,49.1c17.7,0,31.9-9.5,39.1-25.4H140.8z"
		/>
	<path d="M158,188.3v-138h24.2v12.5h0.5c6.2-9.2,16.9-15.2,35.1-16.2v26.7c-22.4,0.7-33.9,14.4-33.9,37.6v77.5H158z"/>
	<path d="M341.1,188.3v-21.4h-0.5c-9.7,16.4-27.2,24.9-46.8,24.9c-40.4,0-73.2-30.4-73.2-70.3c0-44.1,31.6-75,72.2-75
		c20.2,0,37.1,7.5,47.8,23.2h0.5V50.3H367v138H341.1z M341.6,119.5c0-26.9-19.4-49.3-48.1-49.3c-25.9,0-47.1,22.2-47.1,49.3
		c0,25.9,21.2,48.6,47.1,48.6C320.4,168.1,341.6,145.7,341.6,119.5z"/>
	<path d="M398.6,188.3V74h-12.2V50.3h12.2v-6.2c0-26.4,18.7-40.1,44.3-40.1h5.7v23.7c-16.9,0-24.2,6-24.2,16.2v6.5h24.2V74h-24.2
		v114.4H398.6z"/>
	<path d="M480.3,187.9V73.6h-18.7V49.9h18.7V3.6h25.9v46.3h22.7v23.7h-22.7v114.4H480.3z"/>
	<circle class="st0" cx="573.9" cy="165.1" r="24.1"/>
</g>
</svg>
