<?xml version="1.0" encoding="UTF-8" standalone="no"?>
<svg
   xmlns:dc="http://purl.org/dc/elements/1.1/"
   xmlns:cc="http://creativecommons.org/ns#"
   xmlns:rdf="http://www.w3.org/1999/02/22-rdf-syntax-ns#"
   xmlns:svg="http://www.w3.org/2000/svg"
   xmlns="http://www.w3.org/2000/svg"
   xmlns:sodipodi="http://sodipodi.sourceforge.net/DTD/sodipodi-0.dtd"
   xmlns:inkscape="http://www.inkscape.org/namespaces/inkscape"
   viewBox="0 0 128 128"
   version="1.1"
   id="svg1718"
   sodipodi:docname="green_shield_checkmark.svg"
   inkscape:version="0.92.3 (2405546, 2018-03-11)">
  <metadata
     id="metadata1722">
    <rdf:RDF>
      <cc:Work
         rdf:about="">
        <dc:format>image/svg+xml</dc:format>
        <dc:type
           rdf:resource="http://purl.org/dc/dcmitype/StillImage" />
      </cc:Work>
    </rdf:RDF>
  </metadata>
  <sodipodi:namedview
     pagecolor="#ffffff"
     bordercolor="#666666"
     borderopacity="1"
     objecttolerance="10"
     gridtolerance="10"
     guidetolerance="10"
     inkscape:pageopacity="0"
     inkscape:pageshadow="2"
     inkscape:window-width="1920"
     inkscape:window-height="1165"
     id="namedview1720"
     showgrid="false"
     inkscape:zoom="2.6074563"
     inkscape:cx="82.616789"
     inkscape:cy="66.060725"
     inkscape:window-x="1920"
     inkscape:window-y="0"
     inkscape:window-maximized="1"
     inkscape:current-layer="svg1718" />
  <defs
     id="defs1696">
    <style
       id="style1684">.cls-1{fill:none;}.cls-2{fill:#ceead6;}.cls-3{isolation:isolate;}.cls-4{fill:#34a853;}.cls-5{clip-path:url(#clip-path);}.cls-6{clip-path:url(#clip-path-2);}.cls-7{opacity:0.27;mix-blend-mode:multiply;fill:url(#linear-gradient);}.cls-8{fill:#188038;}</style>
    <clipPath
       id="clip-path">
      <path
         id="Shield_Shape_96dp"
         data-name="Shield Shape 96dp"
         class="cls-1"
         d="M59.24,111.19C84.39,99.37,107.7,93.46,110,78c.49-3.26,0-25.92,0-28,0-1-13.52-23.24-13.52-23.24l-37.24-10L22,26.76V53.05a93.6,93.6,0,0,0,.8,10.45C25.1,79,34.08,99.37,59.24,111.19Z" />
    </clipPath>
    <clipPath
       id="clip-path-2">
      <path
         class="cls-2"
         d="M84,87H13V42H84a23.3,23.3,0,0,1,23,23h0C107,77.47,96.47,87,84,87Z"
         id="path1688" />
    </clipPath>
    <linearGradient
       id="linear-gradient"
       x1="16"
       y1="68.41"
       x2="52.7"
       y2="68.41"
       gradientUnits="userSpaceOnUse">
      <stop
         offset="0.49"
         stop-color="#34a853"
         id="stop1691" />
      <stop
         offset="1"
         stop-color="#fff"
         id="stop1693" />
    </linearGradient>
    <clipPath
       id="clip-path-3">
      <path
         inkscape:connector-curvature="0"
         id="Shield_Shape_96dp-6"
         data-name="Shield Shape 96dp"
         class="cls-1"
         d="M 59.24,111.19 C 84.39,99.37 107.7,93.46 110,78 c 0.49,-3.26 0,-25.92 0,-28 0,-1 -13.52,-23.24 -13.52,-23.24 l -37.24,-10 -37.24,10 v 26.29 a 93.6,93.6 0 0 0 0.8,10.45 c 2.3,15.5 11.28,35.87 36.44,47.69 z" />
    </clipPath>
    <clipPath
       id="clip-path-2-7">
      <path
         inkscape:connector-curvature="0"
         class="cls-2"
         d="M 84,87 H 13 V 42 h 71 a 23.3,23.3 0 0 1 23,23 v 0 c 0,12.47 -10.53,22 -23,22 z"
         id="path6721" />
    </clipPath>
    <linearGradient
       id="linear-gradient-5"
       x1="16"
       y1="68.410004"
       x2="52.700001"
       y2="68.410004"
       gradientUnits="userSpaceOnUse">
      <stop
         offset="0.49"
         stop-color="#34a853"
         id="stop6724" />
      <stop
         offset="1"
         stop-color="#fff"
         id="stop6726" />
    </linearGradient>
    <clipPath
       id="clip-path-6">
      <path
         inkscape:connector-curvature="0"
         id="Shield_Shape_96dp-29"
         data-name="Shield Shape 96dp"
         class="cls-1"
         d="M 59.24,111.19 C 84.39,99.37 107.7,93.46 110,78 c 0.49,-3.26 0,-25.92 0,-28 0,-1 -13.52,-23.24 -13.52,-23.24 l -37.24,-10 -37.24,10 v 26.29 a 93.6,93.6 0 0 0 0.8,10.45 c 2.3,15.5 11.28,35.87 36.44,47.69 z" />
    </clipPath>
    <clipPath
       id="clip-path-2-1">
      <path
         inkscape:connector-curvature="0"
         class="cls-2"
         d="M 84,87 H 13 V 42 h 71 a 23.3,23.3 0 0 1 23,23 v 0 c 0,12.47 -10.53,22 -23,22 z"
         id="path6046" />
    </clipPath>
    <clipPath
       id="clip-path-26">
      <path
         inkscape:connector-curvature="0"
         id="Shield_Shape_96dp-1"
         data-name="Shield Shape 96dp"
         class="cls-1"
         d="M 59.24,111.19 C 84.39,99.37 107.7,93.46 110,78 c 0.49,-3.26 0,-25.92 0,-28 0,-1 -13.52,-23.24 -13.52,-23.24 l -37.24,-10 -37.24,10 v 26.29 a 93.6,93.6 0 0 0 0.8,10.45 c 2.3,15.5 11.28,35.87 36.44,47.69 z" />
    </clipPath>
    <clipPath
       id="clip-path-2-8">
      <path
         inkscape:connector-curvature="0"
         class="cls-2"
         d="M 84,87 H 13 V 42 h 71 a 23.3,23.3 0 0 1 23,23 v 0 c 0,12.47 -10.53,22 -23,22 z"
         id="path6046-7" />
    </clipPath>
  </defs>
  <title
     id="title1698">Green-NoCheckmark</title>
  <path
     id="Shield_Shape_96dp-2"
     data-name="Shield Shape 96dp"
     class="cls-4"
     d="M 50.485485,128 C 84.58081,111.97588 96.754808,84.360696 99.872869,63.347673 a 124.09886,124.09886 0 0 0 1.098101,-14.166846 c 0,-1.355679 -0.65073,-35.247653 -0.65073,-35.247653 L 50.485485,0.05102167 2.216874e-8,13.540028 V 49.180827 A 126.89155,126.89155 0 0 0 1.0845432,63.347673 C 4.2026049,84.360696 16.376602,111.97588 50.485485,128 Z"
     inkscape:connector-curvature="0"
     style="isolation:isolate;fill:#4285f4;fill-opacity:1;stroke-width:1.35567892" />
  <g
     style="isolation:isolate"
     class="cls-5"
     clip-path="url(#clip-path)"
     id="g6069"
     transform="matrix(1.355679,0,0,1.355679,-29.824937,-22.737942)">
    <path
       class="cls-2"
       d="M 84,87 H 13 V 42 h 71 a 23.3,23.3 0 0 1 23,23 v 0 c 0,12.47 -10.53,22 -23,22 z"
       id="path6059"
       inkscape:connector-curvature="0"
       style="fill:#d2e3fc;fill-opacity:1" />
    <g
       class="cls-6"
       clip-path="url(#clip-path-2)"
       id="g6063">
      <path
         class="cls-7"
         d="m 29,32 c 0,0 -0.6,21 -0.3,26 0.3,5 3.3,35 10.3,44 5,6.36 -23,0 -23,0 V 32 Z"
         id="path6061"
         style="opacity:0.27000002;mix-blend-mode:multiply;fill:#185abc;fill-opacity:1"
         inkscape:connector-curvature="0" />
    </g>
    <path
       class="cls-8"
       d="m 20.31,73.05 5.69,-7.76 -0.15,-0.6 -8.44,-2.87 1.73,-5 8.29,2.94 0.45,-0.15 v -9 h 5.35 v 9 l 0.38,0.15 8.39,-2.99 1.73,5 -8.44,2.87 -0.23,0.6 5.81,7.76 -4.38,3.17 -5.65,-7.76 h -0.53 l -5.65,7.76 z"
       id="path6065"
       inkscape:connector-curvature="0"
       style="fill:#185abc;fill-opacity:1" />
    <path
       class="cls-8"
       d="m 54.56,73.05 5.73,-7.76 -0.15,-0.6 -8.44,-2.87 1.73,-5 8.29,2.94 0.45,-0.15 v -9 h 5.35 v 9 l 0.38,0.15 8.37,-2.94 1.73,5 -8.44,2.87 -0.23,0.6 5.81,7.76 -4.38,3.17 -5.65,-7.76 h -0.53 l -5.65,7.76 z"
       id="path6067"
       inkscape:connector-curvature="0"
       style="fill:#185abc;fill-opacity:1" />
  </g>
  <rect
     class="cls-4"
     x="85.407768"
     y="39.623291"
     width="8.1340733"
     height="47.448761"
     id="rect6071"
     style="isolation:isolate;fill:#185abc;fill-opacity:1;stroke-width:1.35567892" />
  <g
     id="g8966"
     transform="translate(-30.20252,1.82105)">
    <circle
       style="fill:#ffffff;fill-rule:evenodd;stroke:none;stroke-width:2.01206207"
       r="26.156807"
       cy="100.02195"
       cx="132.04552"
       id="Oval" />
    <path
       style="fill:#34a853;fill-rule:evenodd;stroke:none;stroke-width:1.96177495"
       inkscape:connector-curvature="0"
       id="path1088"
       d="m 132.04552,73.86495 c -14.43866,0 -26.157,11.718336 -26.157,26.157 0,14.43866 11.71834,26.157 26.157,26.157 14.43866,0 26.157,-11.71834 26.157,-26.157 0,-14.438664 -11.71834,-26.157 -26.157,-26.157 z m -5.2314,39.2355 -13.0785,-13.0785 3.68813,-3.688136 9.39037,9.364206 19.85316,-19.853164 3.68814,3.714296 z" />
  </g>
</svg>
