<?xml version="1.0" encoding="UTF-8" standalone="no"?>
<svg
   xmlns:dc="http://purl.org/dc/elements/1.1/"
   xmlns:cc="http://creativecommons.org/ns#"
   xmlns:rdf="http://www.w3.org/1999/02/22-rdf-syntax-ns#"
   xmlns:svg="http://www.w3.org/2000/svg"
   xmlns="http://www.w3.org/2000/svg"
   xmlns:sodipodi="http://sodipodi.sourceforge.net/DTD/sodipodi-0.dtd"
   xmlns:inkscape="http://www.inkscape.org/namespaces/inkscape"
   viewBox="0 0 128 128"
   version="1.1"
   id="svg1718"
   sodipodi:docname="green_shield_icon.svg"
   inkscape:version="0.92.3 (2405546, 2018-03-11)">
  <metadata
     id="metadata1722">
    <rdf:RDF>
      <cc:Work
         rdf:about="">
        <dc:format>image/svg+xml</dc:format>
        <dc:type
           rdf:resource="http://purl.org/dc/dcmitype/StillImage" />
        <dc:title>Green-NoCheckmark</dc:title>
      </cc:Work>
    </rdf:RDF>
  </metadata>
  <sodipodi:namedview
     pagecolor="#ffffff"
     bordercolor="#666666"
     borderopacity="1"
     objecttolerance="10"
     gridtolerance="10"
     guidetolerance="10"
     inkscape:pageopacity="0"
     inkscape:pageshadow="2"
     inkscape:window-width="1920"
     inkscape:window-height="1139"
     id="namedview1720"
     showgrid="false"
     inkscape:zoom="5.2149126"
     inkscape:cx="36.269363"
     inkscape:cy="50.720104"
     inkscape:window-x="0"
     inkscape:window-y="0"
     inkscape:window-maximized="1"
     inkscape:current-layer="svg1718" />
  <defs
     id="defs1696">
    <style
       id="style1684">.cls-1{fill:none;}.cls-2{fill:#ceead6;}.cls-3{isolation:isolate;}.cls-4{fill:#34a853;}.cls-5{clip-path:url(#clip-path);}.cls-6{clip-path:url(#clip-path-2);}.cls-7{opacity:0.27;mix-blend-mode:multiply;fill:url(#linear-gradient);}.cls-8{fill:#188038;}</style>
    <clipPath
       id="clip-path">
      <path
         id="Shield_Shape_96dp"
         data-name="Shield Shape 96dp"
         class="cls-1"
         d="M59.24,111.19C84.39,99.37,107.7,93.46,110,78c.49-3.26,0-25.92,0-28,0-1-13.52-23.24-13.52-23.24l-37.24-10L22,26.76V53.05a93.6,93.6,0,0,0,.8,10.45C25.1,79,34.08,99.37,59.24,111.19Z" />
    </clipPath>
    <clipPath
       id="clip-path-2">
      <path
         class="cls-2"
         d="M84,87H13V42H84a23.3,23.3,0,0,1,23,23h0C107,77.47,96.47,87,84,87Z"
         id="path1688" />
    </clipPath>
    <linearGradient
       id="linear-gradient"
       x1="16"
       y1="68.41"
       x2="52.7"
       y2="68.41"
       gradientUnits="userSpaceOnUse">
      <stop
         offset="0.49"
         stop-color="#34a853"
         id="stop1691" />
      <stop
         offset="1"
         stop-color="#fff"
         id="stop1693" />
    </linearGradient>
    <clipPath
       id="clip-path-3">
      <path
         inkscape:connector-curvature="0"
         id="Shield_Shape_96dp-6"
         data-name="Shield Shape 96dp"
         class="cls-1"
         d="M 59.24,111.19 C 84.39,99.37 107.7,93.46 110,78 c 0.49,-3.26 0,-25.92 0,-28 0,-1 -13.52,-23.24 -13.52,-23.24 l -37.24,-10 -37.24,10 v 26.29 a 93.6,93.6 0 0 0 0.8,10.45 c 2.3,15.5 11.28,35.87 36.44,47.69 z" />
    </clipPath>
    <clipPath
       id="clip-path-2-7">
      <path
         inkscape:connector-curvature="0"
         class="cls-2"
         d="M 84,87 H 13 V 42 h 71 a 23.3,23.3 0 0 1 23,23 v 0 c 0,12.47 -10.53,22 -23,22 z"
         id="path6721" />
    </clipPath>
    <linearGradient
       id="linear-gradient-5"
       x1="16"
       y1="68.410004"
       x2="52.700001"
       y2="68.410004"
       gradientUnits="userSpaceOnUse">
      <stop
         offset="0.49"
         stop-color="#34a853"
         id="stop6724" />
      <stop
         offset="1"
         stop-color="#fff"
         id="stop6726" />
    </linearGradient>
    <clipPath
       id="clip-path-6">
      <path
         inkscape:connector-curvature="0"
         id="Shield_Shape_96dp-29"
         data-name="Shield Shape 96dp"
         class="cls-1"
         d="M 59.24,111.19 C 84.39,99.37 107.7,93.46 110,78 c 0.49,-3.26 0,-25.92 0,-28 0,-1 -13.52,-23.24 -13.52,-23.24 l -37.24,-10 -37.24,10 v 26.29 a 93.6,93.6 0 0 0 0.8,10.45 c 2.3,15.5 11.28,35.87 36.44,47.69 z" />
    </clipPath>
    <clipPath
       id="clip-path-2-1">
      <path
         inkscape:connector-curvature="0"
         class="cls-2"
         d="M 84,87 H 13 V 42 h 71 a 23.3,23.3 0 0 1 23,23 v 0 c 0,12.47 -10.53,22 -23,22 z"
         id="path6046" />
    </clipPath>
    <clipPath
       id="clip-path-26">
      <path
         inkscape:connector-curvature="0"
         id="Shield_Shape_96dp-1"
         data-name="Shield Shape 96dp"
         class="cls-1"
         d="M 59.24,111.19 C 84.39,99.37 107.7,93.46 110,78 c 0.49,-3.26 0,-25.92 0,-28 0,-1 -13.52,-23.24 -13.52,-23.24 l -37.24,-10 -37.24,10 v 26.29 a 93.6,93.6 0 0 0 0.8,10.45 c 2.3,15.5 11.28,35.87 36.44,47.69 z" />
    </clipPath>
    <clipPath
       id="clip-path-2-8">
      <path
         inkscape:connector-curvature="0"
         class="cls-2"
         d="M 84,87 H 13 V 42 h 71 a 23.3,23.3 0 0 1 23,23 v 0 c 0,12.47 -10.53,22 -23,22 z"
         id="path6046-7" />
    </clipPath>
    <clipPath
       id="clip-path-4">
      <path
         inkscape:connector-curvature="0"
         id="Shield_Shape_96dp-3"
         data-name="Shield Shape 96dp"
         class="cls-1"
         d="M 59.24,111.19 C 84.39,99.37 107.7,93.46 110,78 c 0.49,-3.26 0,-25.92 0,-28 0,-1 -13.52,-23.24 -13.52,-23.24 l -37.24,-10 -37.24,10 v 26.29 a 93.6,93.6 0 0 0 0.8,10.45 c 2.3,15.5 11.28,35.87 36.44,47.69 z" />
    </clipPath>
    <clipPath
       id="clip-path-2-14">
      <path
         inkscape:connector-curvature="0"
         class="cls-2"
         d="M 84,87 H 13 V 42 h 71 a 23.3,23.3 0 0 1 23,23 v 0 c 0,12.47 -10.53,22 -23,22 z"
         id="path1688-9" />
    </clipPath>
    <clipPath
       id="clip-path-8">
      <path
         inkscape:connector-curvature="0"
         id="Shield_Shape_96dp-9"
         data-name="Shield Shape 96dp"
         class="cls-1"
         d="M 59.24,111.19 C 84.39,99.37 107.7,93.46 110,78 c 0.49,-3.26 0,-25.92 0,-28 0,-1 -13.52,-23.24 -13.52,-23.24 l -37.24,-10 -37.24,10 v 26.29 a 93.6,93.6 0 0 0 0.8,10.45 c 2.3,15.5 11.28,35.87 36.44,47.69 z" />
    </clipPath>
    <clipPath
       id="clip-path-2-2">
      <path
         inkscape:connector-curvature="0"
         class="cls-2"
         d="M 84,87 H 13 V 42 h 71 a 23.3,23.3 0 0 1 23,23 v 0 c 0,12.47 -10.53,22 -23,22 z"
         id="path1688-6" />
    </clipPath>
  </defs>
  <title
     id="title1698">Green-NoCheckmark</title>
  <path
     id="Shield_Shape_96dp-2-5"
     data-name="Shield Shape 96dp"
     class="cls-4"
     d="M 50.485492,127.80925 C 84.511954,111.81749 96.661367,84.258076 99.77313,63.28749 a 123.84824,123.84824 0 0 0 1.09589,-14.138235 c 0,-1.35294 -0.64941,-35.176469 -0.64941,-35.176469 L 50.485492,0.11866933 0.10196234,13.580433 V 49.149255 A 126.63529,126.63529 0 0 0 1.1843096,63.28749 c 3.1117745,20.970586 15.2611754,48.53 49.3011824,64.52176 z"
     inkscape:connector-curvature="0"
     style="isolation:isolate;fill:#34a853;stroke-width:1.35294127" />
  <g
     style="isolation:isolate"
     class="cls-5"
     clip-path="url(#clip-path)"
     id="g6744"
     transform="matrix(1.3529412,0,0,1.3529412,-29.66275,-22.624272)">
    <path
       class="cls-2"
       d="M 84,87 H 13 V 42 h 71 a 23.3,23.3 0 0 1 23,23 v 0 c 0,12.47 -10.53,22 -23,22 z"
       id="path6734"
       inkscape:connector-curvature="0"
       style="fill:#ceead6" />
    <g
       class="cls-6"
       clip-path="url(#clip-path-2)"
       id="g6738">
      <path
         class="cls-7"
         d="m 29,32 c 0,0 -0.6,21 -0.3,26 0.3,5 3.3,35 10.3,44 5,6.36 -23,0 -23,0 V 32 Z"
         id="path6736"
         style="opacity:0.27000002;mix-blend-mode:multiply;fill:url(#linear-gradient-5)"
         inkscape:connector-curvature="0" />
    </g>
    <path
       class="cls-8"
       d="m 20.31,73.05 5.69,-7.76 -0.15,-0.6 -8.44,-2.87 1.73,-5 8.29,2.94 0.45,-0.15 v -9 h 5.35 v 9 l 0.38,0.15 8.39,-2.99 1.73,5 -8.44,2.87 -0.23,0.6 5.81,7.76 -4.38,3.17 -5.65,-7.76 h -0.53 l -5.65,7.76 z"
       id="path6740"
       inkscape:connector-curvature="0"
       style="fill:#188038" />
    <path
       class="cls-8"
       d="m 54.56,73.05 5.73,-7.76 -0.15,-0.6 -8.44,-2.87 1.73,-5 8.29,2.94 0.45,-0.15 v -9 h 5.35 v 9 l 0.38,0.15 8.37,-2.94 1.73,5 -8.44,2.87 -0.23,0.6 5.81,7.76 -4.38,3.17 -5.65,-7.76 h -0.53 l -5.65,7.76 z"
       id="path6742"
       inkscape:connector-curvature="0"
       style="fill:#188038" />
  </g>
  <rect
     class="cls-4"
     x="85.337257"
     y="39.611015"
     width="8.1176472"
     height="47.35294"
     id="rect6746"
     style="isolation:isolate;fill:#188038;stroke-width:1.3529412;font-variant-east_asian:normal;opacity:1;vector-effect:none;fill-opacity:1;stroke-linecap:butt;stroke-linejoin:miter;stroke-miterlimit:4;stroke-dasharray:none;stroke-dashoffset:0;stroke-opacity:1" />
  <path
     style="opacity:1;vector-effect:none;fill:#ffffff;fill-opacity:1;stroke:none;stroke-width:1.45602238;stroke-linecap:butt;stroke-linejoin:miter;stroke-miterlimit:4;stroke-dasharray:none;stroke-dashoffset:0;stroke-opacity:1"
     d="M 64.270637,125.44663 C 55.310507,117.50712 49.662746,105.91311 49.662745,93 49.662742,69.065495 69.065495,49.662742 93,49.662745 c 10.21216,10e-7 19.59932,3.532237 27.00638,9.441607 z"
     id="path20927"
     inkscape:connector-curvature="0"
     sodipodi:nodetypes="csscc" />
  <g
     id="g8966"
     transform="matrix(1.3380739,0,0,1.3380739,-83.686663,-40.83676)">
    <circle
       style="fill:#ffffff;fill-rule:evenodd;stroke:none;stroke-width:2.01206207"
       r="26.156807"
       cy="100.02195"
       cx="132.04552"
       id="Oval" />
    <path
       style="fill:#34a853;fill-rule:evenodd;stroke:none;stroke-width:1.96177495"
       inkscape:connector-curvature="0"
       id="path1088"
       d="m 132.04552,73.86495 c -14.43866,0 -26.157,11.718336 -26.157,26.157 0,14.43866 11.71834,26.157 26.157,26.157 14.43866,0 26.157,-11.71834 26.157,-26.157 0,-14.438664 -11.71834,-26.157 -26.157,-26.157 z m -5.2314,39.2355 -13.0785,-13.0785 3.68813,-3.688136 9.39037,9.364206 19.85316,-19.853164 3.68814,3.714296 z" />
  </g>
</svg>
