<?xml version="1.0" encoding="UTF-8" standalone="no"?>
<svg
   xmlns:dc="http://purl.org/dc/elements/1.1/"
   xmlns:cc="http://creativecommons.org/ns#"
   xmlns:rdf="http://www.w3.org/1999/02/22-rdf-syntax-ns#"
   xmlns:svg="http://www.w3.org/2000/svg"
   xmlns="http://www.w3.org/2000/svg"
   xmlns:sodipodi="http://sodipodi.sourceforge.net/DTD/sodipodi-0.dtd"
   xmlns:inkscape="http://www.inkscape.org/namespaces/inkscape"
   viewBox="0 0 128 128"
   version="1.1"
   id="svg6084"
   sodipodi:docname="grey_disabled_shield.svg"
   inkscape:version="0.92.4 (5da689c313, 2019-01-14)">
  <metadata
     id="metadata6088">
    <rdf:RDF>
      <cc:Work
         rdf:about="">
        <dc:format>image/svg+xml</dc:format>
        <dc:type
           rdf:resource="http://purl.org/dc/dcmitype/StillImage" />
        <dc:title>Red-Checkmark</dc:title>
      </cc:Work>
    </rdf:RDF>
  </metadata>
  <sodipodi:namedview
     pagecolor="#ffffff"
     bordercolor="#666666"
     borderopacity="1"
     objecttolerance="10"
     gridtolerance="10"
     guidetolerance="10"
     inkscape:pageopacity="0"
     inkscape:pageshadow="2"
     inkscape:window-width="1680"
     inkscape:window-height="789"
     id="namedview6086"
     showgrid="false"
     inkscape:zoom="1.84375"
     inkscape:cx="15.731168"
     inkscape:cy="73.685871"
     inkscape:window-x="0"
     inkscape:window-y="0"
     inkscape:window-maximized="1"
     inkscape:current-layer="g4160" />
  <defs
     id="defs6054">
    <style
       id="style6042">.cls-1{fill:none;}.cls-2{fill:#fad2cf;}.cls-3{isolation:isolate;}.cls-4{fill:#ea4335;}.cls-5{clip-path:url(#clip-path);}.cls-6{clip-path:url(#clip-path-2);}.cls-7{opacity:0.27;mix-blend-mode:multiply;fill:url(#linear-gradient);}.cls-8{fill:#c5221f;}.cls-9{fill:#fff;}</style>
    <clipPath
       id="clip-path">
      <path
         id="Shield_Shape_96dp"
         data-name="Shield Shape 96dp"
         class="cls-1"
         d="M59.24,111.19C84.39,99.37,107.7,93.46,110,78c.49-3.26,0-25.92,0-28,0-1-13.52-23.24-13.52-23.24l-37.24-10L22,26.76V53.05a93.6,93.6,0,0,0,.8,10.45C25.1,79,34.08,99.37,59.24,111.19Z" />
    </clipPath>
    <clipPath
       id="clip-path-2">
      <path
         class="cls-2"
         d="M84,87H13V42H84a23.3,23.3,0,0,1,23,23h0C107,77.47,96.47,87,84,87Z"
         id="path6046" />
    </clipPath>
    <linearGradient
       id="linear-gradient"
       x1="16"
       y1="68.41"
       x2="52.7"
       y2="68.41"
       gradientUnits="userSpaceOnUse">
      <stop
         offset="0.41"
         stop-color="#ea4335"
         id="stop6049" />
      <stop
         offset="1"
         stop-color="#fff"
         id="stop6051" />
    </linearGradient>
    <clipPath
       id="clip-path-3">
      <path
         inkscape:connector-curvature="0"
         id="Shield_Shape_96dp-5"
         data-name="Shield Shape 96dp"
         class="cls-1"
         d="M 59.24,111.19 C 84.39,99.37 107.7,93.46 110,78 c 0.49,-3.26 0,-25.92 0,-28 0,-1 -13.52,-23.24 -13.52,-23.24 l -37.24,-10 -37.24,10 v 26.29 a 93.6,93.6 0 0 0 0.8,10.45 c 2.3,15.5 11.28,35.87 36.44,47.69 z" />
    </clipPath>
    <clipPath
       id="clip-path-2-6">
      <path
         inkscape:connector-curvature="0"
         class="cls-2"
         d="M 84,87 H 13 V 42 h 71 a 23.3,23.3 0 0 1 23,23 v 0 c 0,12.47 -10.53,22 -23,22 z"
         id="path1688" />
    </clipPath>
  </defs>
  <title
     id="title6056">Red-Checkmark</title>
  <g
     id="g4160"
     transform="matrix(1.006031,0,0,1.006031,0.09197118,0.36478667)">
    <path
       id="Shield_Shape_96dp-2-5"
       data-name="Shield Shape 96dp"
       class="cls-4"
       d="M 61.087445,123.70486 C 93.473295,108.48415 105.03691,82.253542 107.99864,62.29407 a 117.8768,117.8768 0 0 0 1.04305,-13.45655 c 0,-1.287706 -0.6181,-33.480408 -0.6181,-33.480408 L 61.087445,2.1709826 13.133196,14.983677 V 48.83752 a 120.52947,120.52947 0 0 0 1.030162,13.45655 c 2.961737,19.959472 14.525346,46.19008 46.924087,61.41079 z"
       inkscape:connector-curvature="0"
       style="isolation:isolate;fill:#80868b;fill-opacity:1;stroke-width:1.28770816" />
    <g
       style="isolation:isolate"
       class="cls-5"
       clip-path="url(#clip-path)"
       id="g6744"
       transform="matrix(1.2877081,0,0,1.2877081,-15.196389,-19.475394)">
      <path
         class="cls-2"
         d="M 84,87 H 13 V 42 h 71 a 23.3,23.3 0 0 1 23,23 v 0 c 0,12.47 -10.53,22 -23,22 z"
         id="path6734"
         inkscape:connector-curvature="0"
         style="fill:#dadce0;fill-opacity:1" />
      <g
         class="cls-6"
         clip-path="url(#clip-path-2)"
         id="g6738">
        <path
           class="cls-7"
           d="m 29,32 c 0,0 -0.6,21 -0.3,26 0.3,5 3.3,35 10.3,44 5,6.36 -23,0 -23,0 V 32 Z"
           id="path6736"
           style="opacity:0.27000002;mix-blend-mode:multiply;fill:#666666"
           inkscape:connector-curvature="0" />
      </g>
      <path
         class="cls-8"
         d="m 20.31,73.05 5.69,-7.76 -0.15,-0.6 -8.44,-2.87 1.73,-5 8.29,2.94 0.45,-0.15 v -9 h 5.35 v 9 l 0.38,0.15 8.39,-2.99 1.73,5 -8.44,2.87 -0.23,0.6 5.81,7.76 -4.38,3.17 -5.65,-7.76 h -0.53 l -5.65,7.76 z"
         id="path6740"
         inkscape:connector-curvature="0"
         style="opacity:1;vector-effect:none;fill:#80868b;fill-opacity:1;stroke-width:1;stroke-linecap:butt;stroke-linejoin:miter;stroke-miterlimit:4;stroke-dasharray:none;stroke-dashoffset:0;stroke-opacity:1" />
      <path
         class="cls-8"
         d="m 54.56,73.05 5.73,-7.76 -0.15,-0.6 -8.44,-2.87 1.73,-5 8.29,2.94 0.45,-0.15 v -9 h 5.35 v 9 l 0.38,0.15 8.37,-2.94 1.73,5 -8.44,2.87 -0.23,0.6 5.81,7.76 -4.38,3.17 -5.65,-7.76 h -0.53 l -5.65,7.76 z"
         id="path6742"
         inkscape:connector-curvature="0"
         style="opacity:1;vector-effect:none;fill:#80868b;fill-opacity:1;stroke-width:1;stroke-linecap:butt;stroke-linejoin:miter;stroke-miterlimit:4;stroke-dasharray:none;stroke-dashoffset:0;stroke-opacity:1" />
    </g>
    <rect
       class="cls-4"
       x="94.258804"
       y="39.759174"
       width="7.7262483"
       height="45.069778"
       id="rect6746"
       style="opacity:1;isolation:isolate;vector-effect:none;fill:#80868b;fill-opacity:1;stroke-width:1.28770816;stroke-linecap:butt;stroke-linejoin:miter;stroke-miterlimit:4;stroke-dasharray:none;stroke-dashoffset:0;stroke-opacity:1" />
    <rect
       style="opacity:1;vector-effect:none;fill:#ea4335;fill-opacity:1;stroke:#ffffff;stroke-width:4.47736788;stroke-linecap:butt;stroke-linejoin:miter;stroke-miterlimit:4;stroke-dasharray:none;stroke-dashoffset:0;stroke-opacity:1"
       id="rect20849"
       width="12.161887"
       height="134.77629"
       x="5.6194477"
       y="15.158276"
       transform="matrix(0.78454635,-0.62007018,0.64436555,0.76471762,0,0)"
       ry="5.1930761" />
  </g>
</svg>
