<?xml version="1.0" encoding="UTF-8" standalone="no"?>
<svg
   xmlns:dc="http://purl.org/dc/elements/1.1/"
   xmlns:cc="http://creativecommons.org/ns#"
   xmlns:rdf="http://www.w3.org/1999/02/22-rdf-syntax-ns#"
   xmlns:svg="http://www.w3.org/2000/svg"
   xmlns="http://www.w3.org/2000/svg"
   xmlns:sodipodi="http://sodipodi.sourceforge.net/DTD/sodipodi-0.dtd"
   xmlns:inkscape="http://www.inkscape.org/namespaces/inkscape"
   viewBox="0 0 128 128"
   version="1.1"
   id="svg1718"
   sodipodi:docname="grey_disabled_icon.svg"
   inkscape:version="0.92.4 (5da689c313, 2019-01-14)">
  <metadata
     id="metadata1722">
    <rdf:RDF>
      <cc:Work
         rdf:about="">
        <dc:format>image/svg+xml</dc:format>
        <dc:type
           rdf:resource="http://purl.org/dc/dcmitype/StillImage" />
        <dc:title>Green-NoCheckmark</dc:title>
      </cc:Work>
    </rdf:RDF>
  </metadata>
  <sodipodi:namedview
     pagecolor="#ffffff"
     bordercolor="#666666"
     borderopacity="1"
     objecttolerance="10"
     gridtolerance="10"
     guidetolerance="10"
     inkscape:pageopacity="0"
     inkscape:pageshadow="2"
     inkscape:window-width="1680"
     inkscape:window-height="789"
     id="namedview1720"
     showgrid="false"
     inkscape:zoom="3.6875001"
     inkscape:cx="46.293341"
     inkscape:cy="53.352139"
     inkscape:window-x="0"
     inkscape:window-y="0"
     inkscape:window-maximized="1"
     inkscape:current-layer="svg1718" />
  <defs
     id="defs1696">
    <style
       id="style1684">.cls-1{fill:none;}.cls-2{fill:#ceead6;}.cls-3{isolation:isolate;}.cls-4{fill:#34a853;}.cls-5{clip-path:url(#clip-path);}.cls-6{clip-path:url(#clip-path-2);}.cls-7{opacity:0.27;mix-blend-mode:multiply;fill:url(#linear-gradient);}.cls-8{fill:#188038;}</style>
    <clipPath
       id="clip-path">
      <path
         id="Shield_Shape_96dp"
         data-name="Shield Shape 96dp"
         class="cls-1"
         d="M59.24,111.19C84.39,99.37,107.7,93.46,110,78c.49-3.26,0-25.92,0-28,0-1-13.52-23.24-13.52-23.24l-37.24-10L22,26.76V53.05a93.6,93.6,0,0,0,.8,10.45C25.1,79,34.08,99.37,59.24,111.19Z" />
    </clipPath>
    <clipPath
       id="clip-path-2">
      <path
         class="cls-2"
         d="M84,87H13V42H84a23.3,23.3,0,0,1,23,23h0C107,77.47,96.47,87,84,87Z"
         id="path1688" />
    </clipPath>
    <linearGradient
       id="linear-gradient"
       x1="16"
       y1="68.41"
       x2="52.7"
       y2="68.41"
       gradientUnits="userSpaceOnUse">
      <stop
         offset="0.49"
         stop-color="#34a853"
         id="stop1691" />
      <stop
         offset="1"
         stop-color="#fff"
         id="stop1693" />
    </linearGradient>
    <clipPath
       id="clip-path-3">
      <path
         inkscape:connector-curvature="0"
         id="Shield_Shape_96dp-6"
         data-name="Shield Shape 96dp"
         class="cls-1"
         d="M 59.24,111.19 C 84.39,99.37 107.7,93.46 110,78 c 0.49,-3.26 0,-25.92 0,-28 0,-1 -13.52,-23.24 -13.52,-23.24 l -37.24,-10 -37.24,10 v 26.29 a 93.6,93.6 0 0 0 0.8,10.45 c 2.3,15.5 11.28,35.87 36.44,47.69 z" />
    </clipPath>
    <clipPath
       id="clip-path-2-7">
      <path
         inkscape:connector-curvature="0"
         class="cls-2"
         d="M 84,87 H 13 V 42 h 71 a 23.3,23.3 0 0 1 23,23 v 0 c 0,12.47 -10.53,22 -23,22 z"
         id="path6721" />
    </clipPath>
    <linearGradient
       id="linear-gradient-5"
       x1="16"
       y1="68.410004"
       x2="52.700001"
       y2="68.410004"
       gradientUnits="userSpaceOnUse">
      <stop
         offset="0.49"
         stop-color="#34a853"
         id="stop6724" />
      <stop
         offset="1"
         stop-color="#fff"
         id="stop6726" />
    </linearGradient>
    <clipPath
       id="clip-path-6">
      <path
         inkscape:connector-curvature="0"
         id="Shield_Shape_96dp-29"
         data-name="Shield Shape 96dp"
         class="cls-1"
         d="M 59.24,111.19 C 84.39,99.37 107.7,93.46 110,78 c 0.49,-3.26 0,-25.92 0,-28 0,-1 -13.52,-23.24 -13.52,-23.24 l -37.24,-10 -37.24,10 v 26.29 a 93.6,93.6 0 0 0 0.8,10.45 c 2.3,15.5 11.28,35.87 36.44,47.69 z" />
    </clipPath>
    <clipPath
       id="clip-path-2-1">
      <path
         inkscape:connector-curvature="0"
         class="cls-2"
         d="M 84,87 H 13 V 42 h 71 a 23.3,23.3 0 0 1 23,23 v 0 c 0,12.47 -10.53,22 -23,22 z"
         id="path6046" />
    </clipPath>
    <clipPath
       id="clip-path-26">
      <path
         inkscape:connector-curvature="0"
         id="Shield_Shape_96dp-1"
         data-name="Shield Shape 96dp"
         class="cls-1"
         d="M 59.24,111.19 C 84.39,99.37 107.7,93.46 110,78 c 0.49,-3.26 0,-25.92 0,-28 0,-1 -13.52,-23.24 -13.52,-23.24 l -37.24,-10 -37.24,10 v 26.29 a 93.6,93.6 0 0 0 0.8,10.45 c 2.3,15.5 11.28,35.87 36.44,47.69 z" />
    </clipPath>
    <clipPath
       id="clip-path-2-8">
      <path
         inkscape:connector-curvature="0"
         class="cls-2"
         d="M 84,87 H 13 V 42 h 71 a 23.3,23.3 0 0 1 23,23 v 0 c 0,12.47 -10.53,22 -23,22 z"
         id="path6046-7" />
    </clipPath>
    <clipPath
       id="clip-path-4">
      <path
         inkscape:connector-curvature="0"
         id="Shield_Shape_96dp-3"
         data-name="Shield Shape 96dp"
         class="cls-1"
         d="M 59.24,111.19 C 84.39,99.37 107.7,93.46 110,78 c 0.49,-3.26 0,-25.92 0,-28 0,-1 -13.52,-23.24 -13.52,-23.24 l -37.24,-10 -37.24,10 v 26.29 a 93.6,93.6 0 0 0 0.8,10.45 c 2.3,15.5 11.28,35.87 36.44,47.69 z" />
    </clipPath>
    <clipPath
       id="clip-path-2-14">
      <path
         inkscape:connector-curvature="0"
         class="cls-2"
         d="M 84,87 H 13 V 42 h 71 a 23.3,23.3 0 0 1 23,23 v 0 c 0,12.47 -10.53,22 -23,22 z"
         id="path1688-9" />
    </clipPath>
    <clipPath
       id="clip-path-8">
      <path
         inkscape:connector-curvature="0"
         id="Shield_Shape_96dp-9"
         data-name="Shield Shape 96dp"
         class="cls-1"
         d="M 59.24,111.19 C 84.39,99.37 107.7,93.46 110,78 c 0.49,-3.26 0,-25.92 0,-28 0,-1 -13.52,-23.24 -13.52,-23.24 l -37.24,-10 -37.24,10 v 26.29 a 93.6,93.6 0 0 0 0.8,10.45 c 2.3,15.5 11.28,35.87 36.44,47.69 z" />
    </clipPath>
    <clipPath
       id="clip-path-2-2">
      <path
         inkscape:connector-curvature="0"
         class="cls-2"
         d="M 84,87 H 13 V 42 h 71 a 23.3,23.3 0 0 1 23,23 v 0 c 0,12.47 -10.53,22 -23,22 z"
         id="path1688-6" />
    </clipPath>
  </defs>
  <title
     id="title1698">Green-NoCheckmark</title>
  <path
     id="Shield_Shape_96dp-2-5"
     data-name="Shield Shape 96dp"
     class="cls-4"
     d="M 60.521741,127.80925 C 94.548203,111.81749 106.69762,84.258076 109.80938,63.28749 a 123.84824,123.84824 0 0 0 1.09589,-14.138235 c 0,-1.35294 -0.64941,-35.176469 -0.64941,-35.176469 L 60.521741,0.11866933 10.138211,13.580433 v 35.568822 a 126.63529,126.63529 0 0 0 1.082348,14.138235 c 3.111774,20.970586 15.261175,48.53 49.301182,64.52176 z"
     inkscape:connector-curvature="0"
     style="isolation:isolate;fill:#80868b;fill-opacity:1;stroke-width:1.35294127" />
  <g
     style="isolation:isolate"
     class="cls-5"
     clip-path="url(#clip-path)"
     id="g6744"
     transform="matrix(1.3529412,0,0,1.3529412,-19.626501,-22.624272)">
    <path
       class="cls-2"
       d="M 84,87 H 13 V 42 h 71 a 23.3,23.3 0 0 1 23,23 v 0 c 0,12.47 -10.53,22 -23,22 z"
       id="path6734"
       inkscape:connector-curvature="0"
       style="fill:#dadce0;fill-opacity:1" />
    <g
       class="cls-6"
       clip-path="url(#clip-path-2)"
       id="g6738">
      <path
         class="cls-7"
         d="m 29,32 c 0,0 -0.6,21 -0.3,26 0.3,5 3.3,35 10.3,44 5,6.36 -23,0 -23,0 V 32 Z"
         id="path6736"
         style="opacity:0.27000002;mix-blend-mode:multiply;fill:#666666"
         inkscape:connector-curvature="0" />
    </g>
    <path
       class="cls-8"
       d="m 20.31,73.05 5.69,-7.76 -0.15,-0.6 -8.44,-2.87 1.73,-5 8.29,2.94 0.45,-0.15 v -9 h 5.35 v 9 l 0.38,0.15 8.39,-2.99 1.73,5 -8.44,2.87 -0.23,0.6 5.81,7.76 -4.38,3.17 -5.65,-7.76 h -0.53 l -5.65,7.76 z"
       id="path6740"
       inkscape:connector-curvature="0"
       style="opacity:1;vector-effect:none;fill:#80868b;fill-opacity:1;stroke-width:1;stroke-linecap:butt;stroke-linejoin:miter;stroke-miterlimit:4;stroke-dasharray:none;stroke-dashoffset:0;stroke-opacity:1" />
    <path
       class="cls-8"
       d="m 54.56,73.05 5.73,-7.76 -0.15,-0.6 -8.44,-2.87 1.73,-5 8.29,2.94 0.45,-0.15 v -9 h 5.35 v 9 l 0.38,0.15 8.37,-2.94 1.73,5 -8.44,2.87 -0.23,0.6 5.81,7.76 -4.38,3.17 -5.65,-7.76 h -0.53 l -5.65,7.76 z"
       id="path6742"
       inkscape:connector-curvature="0"
       style="opacity:1;vector-effect:none;fill:#80868b;fill-opacity:1;stroke-width:1;stroke-linecap:butt;stroke-linejoin:miter;stroke-miterlimit:4;stroke-dasharray:none;stroke-dashoffset:0;stroke-opacity:1" />
  </g>
  <rect
     class="cls-4"
     x="95.373505"
     y="39.611015"
     width="8.1176472"
     height="47.35294"
     id="rect6746"
     style="opacity:1;isolation:isolate;vector-effect:none;fill:#80868b;fill-opacity:1;stroke-width:1.35294127;stroke-linecap:butt;stroke-linejoin:miter;stroke-miterlimit:4;stroke-dasharray:none;stroke-dashoffset:0;stroke-opacity:1" />
  <rect
     style="opacity:1;vector-effect:none;fill:#ea4335;fill-opacity:1;stroke:#ffffff;stroke-width:4.70418358;stroke-linecap:butt;stroke-linejoin:miter;stroke-miterlimit:4;stroke-dasharray:none;stroke-dashoffset:0;stroke-opacity:1"
     id="rect20849"
     width="19.851986"
     height="148.73917"
     x="-10.568076"
     y="14.872992"
     transform="matrix(0.71810725,-0.69593245,0.71810725,0.69593245,0,0)" />
</svg>
