<svg width="17" height="11" viewBox="0 0 17 11" fill="none" xmlns="http://www.w3.org/2000/svg">
<path d="M5.20558 2.27483C4.83783 1.90709 4.24184 1.90709 3.8741 2.27483L0.849049 5.29988C0.481306 5.66738 0.481306 6.26361 0.849049 6.63136L3.8741 9.65641C4.24184 10.0242 4.83783 10.0239 5.20558 9.65641C5.57307 9.28867 5.57307 8.69268 5.20558 8.32494L2.84614 5.9655L5.20558 3.60606C5.57307 3.23856 5.57307 2.64233 5.20558 2.27483Z" fill="#919EB7"/>
<path d="M13.2723 2.27483C12.9049 1.90709 12.3086 1.90709 11.9411 2.27483C11.5734 2.64233 11.5734 3.23856 11.9411 3.60606L14.3003 5.9655L11.9411 8.32518C11.5734 8.69268 11.5734 9.28867 11.9411 9.65641C12.3089 10.0242 12.9049 10.0239 13.2723 9.65641L16.2974 6.63136C16.6651 6.26361 16.6651 5.66763 16.2974 5.29988L13.2723 2.27483Z" fill="#919EB7"/>
<path d="M9.80992 1.01862C9.30562 0.892366 8.79446 1.19906 8.6682 1.70361L6.6515 9.77042C6.52548 10.2747 6.83218 10.7861 7.33648 10.9121C7.86848 11.0453 8.35905 10.7035 8.4782 10.2272L10.4949 2.1601C10.6209 1.6558 10.3145 1.14464 9.80992 1.01862Z" fill="#919EB7"/>
</svg>
