<svg width="15" height="10" viewBox="0 0 15 10" fill="none" xmlns="http://www.w3.org/2000/svg">
<path d="M4.06753 5.65145C3.85362 6.21994 3.50621 6.72869 3.05457 7.13485C2.60292 7.541 2.06028 7.83266 1.47235 7.98524C0.16076 8.40532 0.744208 9.85227 1.97645 9.48353C4.777 8.69471 6.448 6.56629 6.448 3.77508C6.448 1.59998 5.20175 0.199707 3.27871 0.199707C1.35566 0.199707 0.14209 1.36194 0.14209 3.16829C0.14209 5.7448 2.5739 6.37492 4.06753 5.65145Z" fill="#919EB7"/>
<path opacity="0.6" d="M10.7533 7.13485C11.205 6.72869 11.5524 6.21994 11.7663 5.65145C10.2867 6.37026 7.84085 5.75413 7.84085 3.16829C7.84085 1.36194 9.04975 0.199707 10.9775 0.199707C12.9052 0.199707 14.1468 1.59998 14.1421 3.77508C14.1421 6.56629 12.4758 8.69471 9.67521 9.48353C8.47098 9.85227 7.83618 8.40999 9.17111 7.98524C9.75904 7.83266 10.3017 7.541 10.7533 7.13485Z" fill="#919EB7"/>
</svg>
