<svg width="20" height="21" viewBox="0 0 20 21" fill="none" xmlns="http://www.w3.org/2000/svg">
<g opacity="0.8">
<path fill-rule="evenodd" clip-rule="evenodd" d="M18 10.4053C18 14.8236 14.4183 18.4053 10 18.4053C5.58172 18.4053 2 14.8236 2 10.4053C2 5.987 5.58172 2.40527 10 2.40527C14.4183 2.40527 18 5.987 18 10.4053ZM10 16.4053C13.3137 16.4053 16 13.719 16 10.4053C16 7.09157 13.3137 4.40527 10 4.40527C6.68629 4.40527 4 7.09157 4 10.4053C4 13.719 6.68629 16.4053 10 16.4053Z" fill="#919EB7"/>
<path fill-rule="evenodd" clip-rule="evenodd" d="M6.31591 10.2335L8.19144 12.109L9.60565 10.6948L7.73012 8.81929L6.31591 10.2335Z" fill="#919EB7"/>
<path fill-rule="evenodd" clip-rule="evenodd" d="M9.58556 13.4988L14.3581 8.72623L12.9439 7.31201L8.17135 12.0845L9.58556 13.4988Z" fill="#919EB7"/>
</g>
</svg>
