<svg width="14" height="15" viewBox="0 0 14 15" fill="none" xmlns="http://www.w3.org/2000/svg">
<g clip-path="url(#clip0)">
<path d="M12.6581 0.539551H1.34185C0.601955 0.539551 0 1.14151 0 1.8814V12.9293C0 13.6692 0.601955 14.2712 1.34185 14.2712H12.6581C13.398 14.2712 14 13.6692 14 12.9293V1.8814C14 1.14151 13.398 0.539551 12.6581 0.539551ZM12.6581 1.8814L12.6586 7.75103L10.3916 5.62204C10.2331 5.47323 10.0301 5.39129 9.81999 5.39129C9.56437 5.39129 9.32516 5.51121 9.16369 5.72022L6.49506 9.17576C6.40856 9.28776 6.26981 9.35463 6.12386 9.35463C6.02443 9.35463 5.93045 9.3244 5.85209 9.26714L4.11783 8.00061C3.94509 7.87443 3.72132 7.80497 3.48783 7.80497C3.22192 7.80497 2.97328 7.89165 2.78783 8.04901L1.34185 9.27546V1.8814H12.6581Z" fill="#919EB7"/>
<path d="M5.14375 5.86203C5.9083 5.86203 6.53033 5.23999 6.53033 4.47545C6.53033 3.71091 5.9083 3.08887 5.14375 3.08887C4.37921 3.08887 3.75717 3.71091 3.75717 4.47545C3.75717 5.23999 4.37921 5.86203 5.14375 5.86203Z" fill="#919EB7"/>
</g>
<defs>
<clipPath id="clip0">
<rect y="0.405273" width="14" height="14" fill="white"/>
</clipPath>
</defs>
</svg>
