<svg width="4" height="14" viewBox="0 0 4 14" fill="none" xmlns="http://www.w3.org/2000/svg">
<path opacity="0.6" fill-rule="evenodd" clip-rule="evenodd" d="M3.0235 1.67371C3.0235 2.50213 2.35193 3.17371 1.5235 3.17371C0.695071 3.17371 0.0234985 2.50213 0.0234985 1.67371C0.0234985 0.845279 0.695071 0.173706 1.5235 0.173706C2.35193 0.173706 3.0235 0.845279 3.0235 1.67371ZM1.5235 8.42371C2.35193 8.42371 3.0235 7.75213 3.0235 6.92371C3.0235 6.09528 2.35193 5.42371 1.5235 5.42371C0.695071 5.42371 0.0234985 6.09528 0.0234985 6.92371C0.0234985 7.75213 0.695071 8.42371 1.5235 8.42371ZM1.5235 13.6737C2.35193 13.6737 3.0235 13.0021 3.0235 12.1737C3.0235 11.3453 2.35193 10.6737 1.5235 10.6737C0.695071 10.6737 0.0234985 11.3453 0.0234985 12.1737C0.0234985 13.0021 0.695071 13.6737 1.5235 13.6737Z" fill="#919EB7"/>
</svg>
