<svg width="19" height="19" viewBox="0 0 19 19" fill="none" xmlns="http://www.w3.org/2000/svg">
<path fill-rule="evenodd" clip-rule="evenodd" d="M14.1857 5.41732C13.4973 4.70016 12.3578 4.67687 11.6407 5.3653L9.04361 7.85833L7.7971 6.5598L10.3942 4.06676C11.8285 2.6899 14.1074 2.73648 15.4843 4.1708C16.8611 5.60512 16.8146 7.88404 15.3802 9.26091L12.7832 11.7539L11.5366 10.4554L14.1337 7.96237C14.8509 7.27394 14.8742 6.13448 14.1857 5.41732Z" fill="#919EB7"/>
<path fill-rule="evenodd" clip-rule="evenodd" d="M5.096 14.1432C5.78443 14.8604 6.92389 14.8837 7.64105 14.1952L10.2381 11.7022L11.4846 13.0007L8.88757 15.4938C7.45324 16.8706 5.17433 16.8241 3.79746 15.3897C2.4206 13.9554 2.46718 11.6765 3.9015 10.2996L6.49857 7.80661L7.74509 9.10514L5.14802 11.5982C4.43086 12.2866 4.40757 13.4261 5.096 14.1432Z" fill="#919EB7"/>
<path fill-rule="evenodd" clip-rule="evenodd" d="M7.06979 11.0006L10.9654 7.26104L12.2119 8.55957L8.31631 12.2991L7.06979 11.0006Z" fill="#919EB7"/>
</svg>
