<svg width="24" height="25" viewBox="0 0 24 25" fill="none" xmlns="http://www.w3.org/2000/svg">
<path fill-rule="evenodd" clip-rule="evenodd" d="M15.6 11.5209H8.4L8.4 18.7209H15.6V11.5209ZM6 9.12094V18.7209C6 20.0464 7.07452 21.1209 8.4 21.1209H15.6C16.9255 21.1209 18 20.0464 18 18.7209V9.12094H6Z" fill="#919EB7"/>
<path fill-rule="evenodd" clip-rule="evenodd" d="M15.6 9.12094H8.4L8.4 6.72094L15.6 6.72094V9.12094ZM6 11.5209V6.72094C6 5.39545 7.07452 4.32094 8.4 4.32094H15.6C16.9255 4.32094 18 5.39545 18 6.72094V11.5209H6Z" fill="#919EB7"/>
<path d="M3.6 9.12094H20.4V11.5209H3.6V9.12094Z" fill="#919EB7"/>
<path d="M13.2 10.321L13.2 19.921L10.8 19.921L10.8 10.321L13.2 10.321Z" fill="#919EB7"/>
</svg>
