<svg width="64" height="64" viewBox="0 0 64 64" fill="none" xmlns="http://www.w3.org/2000/svg">
<path d="M32 6C46.357 6 58 17.642 58 32C58 46.357 46.357 58 32 58C17.643 58 6 46.357 6 32C6 17.642 17.643 6 32 6Z" fill="#FFDC77"/>
<path d="M43 28C45.2091 28 47 26.2091 47 24C47 21.7909 45.2091 20 43 20C40.7909 20 39 21.7909 39 24C39 26.2091 40.7909 28 43 28Z" fill="#6E351D"/>
<path d="M24.8012 26.1119C24.4992 26.2939 24.3222 26.3069 23.8902 26.0089C23.6722 25.8659 23.3842 25.6489 22.9342 25.4379C22.7132 25.3249 22.4432 25.2339 22.1262 25.1489C21.7772 25.0689 21.5392 25.0319 20.9552 25.0139C20.1762 25.0279 19.4912 25.2209 19.0662 25.4369C18.6162 25.6479 18.3282 25.8649 18.1102 26.0079C17.6722 26.3169 17.5112 26.2749 17.1972 26.1139C16.9082 25.9519 16.6232 25.7209 16.9202 25.0389C17.0772 24.7089 17.3962 24.2639 18.0402 23.8209C18.7012 23.3869 19.6452 22.9879 21.0452 22.9849C21.5392 22.9849 22.2752 23.0889 22.7332 23.2389C23.2292 23.3979 23.6352 23.6069 23.9612 23.8209C24.6062 24.2639 24.9242 24.7089 25.0812 25.0389C25.3772 25.7209 25.0942 25.9569 24.8012 26.1119Z" fill="#6E351D"/>
<path d="M39.2212 33.0579C39.5232 33.1399 39.7462 33.5509 39.0732 34.7779C38.7182 35.3689 38.0712 36.1549 36.9072 36.8409C36.3272 37.1789 35.6212 37.4849 34.7962 37.6829C34.3912 37.7939 33.9402 37.8719 33.4472 37.9259C32.9372 38.0039 32.5432 37.9809 32.0452 38.0149C29.8892 37.9959 28.2702 37.5399 27.0952 36.8409C25.9312 36.1539 25.2842 35.3679 24.9292 34.7779C24.2602 33.5659 24.4712 33.1149 24.7822 33.0629C25.1332 32.9619 25.3752 33.0109 26.0752 33.7339C26.4452 34.0739 26.9372 34.5979 27.8512 35.0739C28.2932 35.3289 28.8662 35.5289 29.5442 35.7099C30.2092 35.8849 31.0972 35.9599 31.9572 35.9859C33.0522 35.9549 33.7462 35.8839 34.4582 35.7099C35.1372 35.5289 35.7092 35.3289 36.1512 35.0739C37.0652 34.5979 37.5572 34.0739 37.9272 33.7339C38.6272 33.0089 38.8682 32.9659 39.2212 33.0579Z" fill="#6E351D"/>
<path opacity="0.4" d="M26.4999 53.9872C22.7899 53.9892 19.2109 53.4292 15.8359 52.4052C20.2759 55.8892 25.8909 58.0032 31.9999 58.0002C44.9339 58.3512 55.1749 48.7152 57.5059 36.4702C51.1499 47.1402 39.8429 54.3492 26.4999 53.9872Z" fill="#F7B22B"/>
</svg>
