<svg width="12" height="15" viewBox="0 0 12 15" fill="none" xmlns="http://www.w3.org/2000/svg">
<path opacity="0.15" d="M0.727494 0.333336H10.6561C10.8442 0.333336 11.0245 0.403574 11.1575 0.528598C11.2905 0.653622 11.3652 0.823192 11.3652 1V13.762C11.3653 13.8216 11.3484 13.8801 11.3162 13.9315C11.2841 13.9829 11.2379 14.0252 11.1824 14.0541C11.1269 14.0829 11.0642 14.0973 11.0008 14.0956C10.9375 14.094 10.8757 14.0764 10.822 14.0447L5.69178 11.02L0.561545 14.044C0.507908 14.0757 0.446223 14.0933 0.382903 14.095C0.319583 14.0966 0.256941 14.0823 0.201489 14.0536C0.146037 14.0248 0.0998006 13.9825 0.0675866 13.9313C0.0353727 13.88 0.0183577 13.8216 0.0183105 13.762V1C0.0183105 0.823192 0.093028 0.653622 0.226026 0.528598C0.359024 0.403574 0.539407 0.333336 0.727494 0.333336Z" fill="#373F48"/>
</svg>
