<svg width="36" height="36" viewBox="0 0 36 36" fill="none" xmlns="http://www.w3.org/2000/svg">
<path d="M16.5 27C16.5 27.828 17.172 28.5 18 28.5C18.828 28.5 19.5 27.828 19.5 27V9C19.5 8.172 18.828 7.5 18 7.5C17.172 7.5 16.5 8.172 16.5 9V27Z" fill="#FF687D"/>
<path d="M1.5 9C0.671997 9 0 9.672 0 10.5V25.5C0 26.328 0.671997 27 1.5 27C2.328 27 3 26.328 3 25.5V10.5C3 9.672 2.328 9 1.5 9Z" fill="#FF687D"/>
<path d="M14.25 24V12C14.25 11.172 13.578 10.5 12.75 10.5C11.922 10.5 11.25 11.172 11.25 12V24C11.25 24.828 11.922 25.5 12.75 25.5C13.578 25.5 14.25 24.828 14.25 24Z" fill="#FF687D"/>
<path d="M7.5 22.5C8.328 22.5 9 21.828 9 21V15C9 14.172 8.328 13.5 7.5 13.5C6.672 13.5 6 14.172 6 15V21C6 21.828 6.672 22.5 7.5 22.5Z" fill="#FF687D"/>
<path d="M24.75 24V12C24.75 11.172 24.078 10.5 23.25 10.5C22.422 10.5 21.75 11.172 21.75 12V24C21.75 24.828 22.422 25.5 23.25 25.5C24.078 25.5 24.75 24.828 24.75 24Z" fill="#FF687D"/>
<path d="M34.5 9C33.672 9 33 9.672 33 10.5V25.5C33 26.328 33.672 27 34.5 27C35.328 27 36 26.328 36 25.5V10.5C36 9.672 35.328 9 34.5 9Z" fill="#FF687D"/>
<path d="M28.5 13.5C27.672 13.5 27 14.172 27 15V21C27 21.828 27.672 22.5 28.5 22.5C29.328 22.5 30 21.828 30 21V15C30 14.172 29.328 13.5 28.5 13.5Z" fill="#FF687D"/>
<path d="M16.5 34.5C16.5 35.328 17.172 36 18 36C18.828 36 19.5 35.328 19.5 34.5V33C19.5 32.172 18.828 31.5 18 31.5C17.172 31.5 16.5 32.172 16.5 33V34.5Z" fill="#FF687D"/>
<path d="M18 4.5C18.828 4.5 19.5 3.828 19.5 3V1.5C19.5 0.671997 18.828 0 18 0C17.172 0 16.5 0.671997 16.5 1.5V3C16.5 3.828 17.172 4.5 18 4.5Z" fill="#FF687D"/>
</svg>
