<?xml version="1.0" encoding="UTF-8" standalone="no"?>
<svg
   xmlns:dc="http://purl.org/dc/elements/1.1/"
   xmlns:cc="http://creativecommons.org/ns#"
   xmlns:rdf="http://www.w3.org/1999/02/22-rdf-syntax-ns#"
   xmlns:svg="http://www.w3.org/2000/svg"
   xmlns="http://www.w3.org/2000/svg"
   xmlns:sodipodi="http://sodipodi.sourceforge.net/DTD/sodipodi-0.dtd"
   xmlns:inkscape="http://www.inkscape.org/namespaces/inkscape"
   width="60"
   height="60"
   viewBox="0 0 60 60"
   version="1.1"
   id="svg4"
   sodipodi:docname="photo.svg"
   style="fill:none"
   inkscape:version="0.92.3 (2405546, 2018-03-11)">
  <metadata
     id="metadata10">
    <rdf:RDF>
      <cc:Work
         rdf:about="">
        <dc:format>image/svg+xml</dc:format>
        <dc:type
           rdf:resource="http://purl.org/dc/dcmitype/StillImage" />
        <dc:title></dc:title>
      </cc:Work>
    </rdf:RDF>
  </metadata>
  <defs
     id="defs8">
    <clipPath
       id="clip0">
      <rect
         style="fill:#ffffff"
         x="0.095703103"
         y="0.618164"
         width="20"
         height="20"
         id="rect8" />
    </clipPath>
  </defs>
  <sodipodi:namedview
     pagecolor="#ffffff"
     bordercolor="#666666"
     borderopacity="1"
     objecttolerance="10"
     gridtolerance="10"
     guidetolerance="10"
     inkscape:pageopacity="0"
     inkscape:pageshadow="2"
     inkscape:window-width="640"
     inkscape:window-height="480"
     id="namedview6"
     showgrid="false"
     inkscape:zoom="5.4713836"
     inkscape:cx="21.929356"
     inkscape:cy="32.637822"
     inkscape:window-x="75"
     inkscape:window-y="34"
     inkscape:window-maximized="0"
     inkscape:current-layer="svg4" />
  <circle
     cx="30.085089"
     cy="30.042143"
     r="30"
     id="circle2"
     style="fill:#e8eaf1" />
  <g
     transform="translate(19.628875,18.364791)"
     clip-path="url(#clip0)"
     id="g6"
     style="fill:#808080">
    <path
       style="fill:#808080"
       inkscape:connector-curvature="0"
       d="M 19.3147,5.39947 C 18.7938,4.87867 18.1655,4.6182 17.4294,4.6182 H 15.096 L 14.5649,3.20162 C 14.4328,2.8614 14.1916,2.56795 13.8408,2.3213 13.49,2.07477 13.1307,1.95142 12.7626,1.95142 H 7.42912 C 7.06105,1.95142 6.70163,2.07477 6.3509,2.3213 6.00017,2.56795 5.75893,2.8614 5.62696,3.20162 L 5.09573,4.6182 H 2.76238 C 2.02614,4.6182 1.39779,4.87867 0.876891,5.39947 0.356099,5.92029 0.0957031,6.54872 0.0957031,7.28488 v 9.33342 c 0,0.7362 0.2603959,1.3647 0.7811879,1.8854 0.520899,0.5209 1.149289,0.7814 1.885489,0.7814 H 17.4291 c 0.7362,0 1.3644,-0.2605 1.8854,-0.7814 0.5207,-0.5207 0.7812,-1.1492 0.7812,-1.8854 V 7.28488 c 10e-5,-0.73616 -0.2603,-1.36459 -0.781,-1.88541 z m -5.9221,9.84913 c -0.9131,0.9132 -2.012,1.37 -3.2968,1.37 -1.28487,0 -2.38367,-0.4568 -3.29693,-1.37 -0.91327,-0.9131 -1.36981,-2.0122 -1.36981,-3.2967 0,-1.285 0.45669,-2.38373 1.36981,-3.29699 C 7.71202,7.74164 8.81096,7.2851 10.0958,7.2851 c 1.2848,0 2.3837,0.45665 3.2968,1.36981 0.9133,0.91315 1.3699,2.01199 1.3699,3.29699 0,1.2845 -0.4566,2.3835 -1.3699,3.2967 z"
       id="path2" />
    <path
       style="fill:#808080"
       inkscape:connector-curvature="0"
       d="m 10.0958,8.95166 c -0.8264,0 -1.53302,0.29342 -2.11985,0.88032 C 7.38912,10.4188 7.0957,11.1253 7.0957,11.9519 c 0,0.8263 0.29342,1.5329 0.88025,2.1198 0.58683,0.5867 1.29341,0.8801 2.11985,0.8801 0.8264,0 1.533,-0.2934 2.1199,-0.8801 0.5868,-0.5869 0.8803,-1.2934 0.8803,-2.1198 0,-0.8265 -0.2935,-1.5331 -0.8803,-2.11992 C 11.6289,9.24511 10.9222,8.95166 10.0958,8.95166 Z"
       id="path4" />
  </g>
</svg>
