<?xml version="1.0" encoding="UTF-8"?>
<svg width="48px" height="48px" viewBox="0 0 48 48" version="1.1" xmlns="http://www.w3.org/2000/svg" xmlns:xlink="http://www.w3.org/1999/xlink">
    <!-- Generator: Sketch 53.2 (72643) - https://sketchapp.com -->
    <title>Social/Slack</title>
    <desc>Created with Sketch.</desc>
    <defs>
        <linearGradient x1="50%" y1="100%" x2="50%" y2="3.061617e-15%" id="linearGradient-1">
            <stop stop-color="#4E104E" offset="0%"></stop>
            <stop stop-color="#7D1E7A" offset="100%"></stop>
        </linearGradient>
    </defs>
    <g id="Symbols" stroke="none" stroke-width="1" fill="none" fill-rule="evenodd">
        <g id="Header/Desktop" transform="translate(-636.000000, -316.000000)">
            <g id="Social" transform="translate(636.000000, 316.000000)">
                <g id="Social/Slack">
                    <circle id="Oval" fill="url(#linearGradient-1)" cx="24" cy="24" r="24"></circle>
                    <g id="Slack_Mark" stroke-width="1" transform="translate(12.000000, 12.000000)">
                        <g id="Group" transform="translate(0.000000, 12.077419)" fill="#E01E5A" fill-rule="nonzero">
                            <path d="M4.90529032,2.45264516 C4.90529032,3.77187097 3.8276129,4.84954839 2.5083871,4.84954839 C1.18916129,4.84954839 0.111483871,3.77187097 0.111483871,2.45264516 C0.111483871,1.13341935 1.18916129,0.0557419355 2.5083871,0.0557419355 L4.90529032,0.0557419355 L4.90529032,2.45264516 Z" id="Path"></path>
                            <path d="M6.11303226,2.45264516 C6.11303226,1.13341935 7.19070968,0.0557419355 8.50993548,0.0557419355 C9.82916129,0.0557419355 10.9068387,1.13341935 10.9068387,2.45264516 L10.9068387,8.45419355 C10.9068387,9.77341935 9.82916129,10.8510968 8.50993548,10.8510968 C7.19070968,10.8510968 6.11303226,9.77341935 6.11303226,8.45419355 L6.11303226,2.45264516 Z" id="Path"></path>
                        </g>
                        <g id="Group" fill="#36C5F0" fill-rule="nonzero">
                            <path d="M8.50993548,4.90529032 C7.19070968,4.90529032 6.11303226,3.8276129 6.11303226,2.5083871 C6.11303226,1.18916129 7.19070968,0.111483871 8.50993548,0.111483871 C9.82916129,0.111483871 10.9068387,1.18916129 10.9068387,2.5083871 L10.9068387,4.90529032 L8.50993548,4.90529032 Z" id="Path"></path>
                            <path d="M8.50993548,6.11303226 C9.82916129,6.11303226 10.9068387,7.19070968 10.9068387,8.50993548 C10.9068387,9.82916129 9.82916129,10.9068387 8.50993548,10.9068387 L2.5083871,10.9068387 C1.18916129,10.9068387 0.111483871,9.82916129 0.111483871,8.50993548 C0.111483871,7.19070968 1.18916129,6.11303226 2.5083871,6.11303226 L8.50993548,6.11303226 Z" id="Path"></path>
                        </g>
                        <g id="Group" transform="translate(12.077419, 0.000000)" fill="#2EB67D" fill-rule="nonzero">
                            <path d="M6.05729032,8.50993548 C6.05729032,7.19070968 7.13496774,6.11303226 8.45419355,6.11303226 C9.77341935,6.11303226 10.8510968,7.19070968 10.8510968,8.50993548 C10.8510968,9.82916129 9.77341935,10.9068387 8.45419355,10.9068387 L6.05729032,10.9068387 L6.05729032,8.50993548 Z" id="Path"></path>
                            <path d="M4.84954839,8.50993548 C4.84954839,9.82916129 3.77187097,10.9068387 2.45264516,10.9068387 C1.13341935,10.9068387 0.0557419355,9.82916129 0.0557419355,8.50993548 L0.0557419355,2.5083871 C0.0557419355,1.18916129 1.13341935,0.111483871 2.45264516,0.111483871 C3.77187097,0.111483871 4.84954839,1.18916129 4.84954839,2.5083871 L4.84954839,8.50993548 Z" id="Path"></path>
                        </g>
                        <g id="Group" transform="translate(12.077419, 12.077419)" fill="#ECB22E" fill-rule="nonzero">
                            <path d="M2.45264516,6.05729032 C3.77187097,6.05729032 4.84954839,7.13496774 4.84954839,8.45419355 C4.84954839,9.77341935 3.77187097,10.8510968 2.45264516,10.8510968 C1.13341935,10.8510968 0.0557419355,9.77341935 0.0557419355,8.45419355 L0.0557419355,6.05729032 L2.45264516,6.05729032 Z" id="Path"></path>
                            <path d="M2.45264516,4.84954839 C1.13341935,4.84954839 0.0557419355,3.77187097 0.0557419355,2.45264516 C0.0557419355,1.13341935 1.13341935,0.0557419355 2.45264516,0.0557419355 L8.45419355,0.0557419355 C9.77341935,0.0557419355 10.8510968,1.13341935 10.8510968,2.45264516 C10.8510968,3.77187097 9.77341935,4.84954839 8.45419355,4.84954839 L2.45264516,4.84954839 Z" id="Path"></path>
                        </g>
                    </g>
                </g>
            </g>
        </g>
    </g>
</svg>