<?xml version="1.0" encoding="UTF-8" standalone="no"?>
<svg
   xmlns:dc="http://purl.org/dc/elements/1.1/"
   xmlns:cc="http://creativecommons.org/ns#"
   xmlns:rdf="http://www.w3.org/1999/02/22-rdf-syntax-ns#"
   xmlns:svg="http://www.w3.org/2000/svg"
   xmlns="http://www.w3.org/2000/svg"
   xmlns:sodipodi="http://sodipodi.sourceforge.net/DTD/sodipodi-0.dtd"
   xmlns:inkscape="http://www.inkscape.org/namespaces/inkscape"
   width="13.692616"
   height="13.432664"
   viewBox="0 0 13.692616 13.432664"
   version="1.1"
   id="svg8"
   sodipodi:docname="icon_link.svg"
   style="fill:none"
   inkscape:version="0.92.3 (2405546, 2018-03-11)">
  <metadata
     id="metadata14">
    <rdf:RDF>
      <cc:Work
         rdf:about="">
        <dc:format>image/svg+xml</dc:format>
        <dc:type
           rdf:resource="http://purl.org/dc/dcmitype/StillImage" />
        <dc:title></dc:title>
      </cc:Work>
    </rdf:RDF>
  </metadata>
  <defs
     id="defs12" />
  <sodipodi:namedview
     pagecolor="#ffffff"
     bordercolor="#666666"
     borderopacity="1"
     objecttolerance="10"
     gridtolerance="10"
     guidetolerance="10"
     inkscape:pageopacity="0"
     inkscape:pageshadow="2"
     inkscape:window-width="1301"
     inkscape:window-height="744"
     id="namedview10"
     showgrid="false"
     fit-margin-top="0"
     fit-margin-left="0"
     fit-margin-right="0"
     fit-margin-bottom="0"
     inkscape:zoom="9.44"
     inkscape:cx="6.777459"
     inkscape:cy="6.5747448"
     inkscape:window-x="65"
     inkscape:window-y="24"
     inkscape:window-maximized="1"
     inkscape:current-layer="svg8" />
  <path
     d="m 11.391159,2.353489 c -0.6884,-0.71717 -1.8279,-0.74046 -2.5451,-0.05202 l -2.597,2.49305 -1.2466,-1.29855 2.5971,-2.49304 c 1.4343,-1.37686002 3.7133,-1.33028002 5.0901,0.10404 1.3769,1.43432 1.3303,3.71325 -0.104,5.09015 l -2.5971,2.493 -1.2465,-1.2985 2.5971,-2.4931 c 0.7171,-0.68841 0.7404,-1.82787 0.052,-2.54503 z"
     id="path2"
     inkscape:connector-curvature="0"
     style="clip-rule:evenodd;fill:#919eb7;fill-rule:evenodd" />
  <path
     d="m 2.301469,11.079119 c 0.68843,0.7172 1.82789,0.7405 2.54509,0.0521 l 2.597,-2.4931 1.2465,1.2986 -2.597,2.493 c -1.4343,1.3769 -3.71326,1.3303 -5.09013,-0.1041 -1.37686002,-1.4343 -1.33028002,-3.7132 0.10404,-5.0901 l 2.59707,-2.493 1.24652,1.2985 -2.59707,2.4931 c -0.71717,0.6884 -0.74045,1.8279 -0.05202,2.545 z"
     id="path4"
     inkscape:connector-curvature="0"
     style="clip-rule:evenodd;fill:#919eb7;fill-rule:evenodd" />
  <path
     d="m 4.275229,7.936919 3.89563,-3.7396 1.2465,1.2985 -3.8956,3.7396 z"
     id="path6"
     inkscape:connector-curvature="0"
     style="clip-rule:evenodd;fill:#919eb7;fill-rule:evenodd" />
</svg>
