<svg width="26" height="27" viewBox="0 0 26 27" fill="none" xmlns="http://www.w3.org/2000/svg">
<g clip-path="url(#clip0)">
<path d="M13.0226 9.74524L8.04883 14.7082L9.47297 16.1323L11.469 14.1255L11.9436 12.928V23.6738H14.1014V12.9388L14.5438 14.1148L16.5721 16.1323L17.9855 14.719L13.0226 9.74524Z" fill="white"/>
<path d="M20.0355 8.60156H19.9277C18.7679 5.45074 15.7762 3.34902 12.4188 3.32636C7.96784 3.29632 4.33525 6.8802 4.30526 11.3312C4.30526 11.5038 4.30526 11.6656 4.30526 11.8383C1.90394 11.8621 -0.0233575 13.8281 0.000462581 16.2294C0.0242826 18.6307 1.99027 20.558 4.39159 20.5342H9.7861V18.3764H4.39154C3.18491 18.3764 2.20677 17.3982 2.20677 16.1916C2.20677 14.985 3.18491 14.0068 4.39154 14.0068L6.54935 14.0608C6.54935 14.0608 6.45225 11.8383 6.45225 11.3312C6.42854 8.55109 8.35184 6.13288 11.066 5.53024C14.2421 4.82505 17.3884 6.82811 18.0936 10.0042L18.3309 11.0183L19.3451 10.8349C19.5724 10.7886 19.8036 10.7633 20.0355 10.7594C22.1389 10.7594 23.8441 12.4645 23.8441 14.5679C23.8441 16.6713 22.1389 18.3764 20.0355 18.3764H16.2594V20.5342H20.0355C23.3293 20.5333 25.9993 17.8634 26.0002 14.5696C26.0011 11.2744 23.3306 8.60247 20.0355 8.60156Z" fill="white"/>
</g>
<defs>
<clipPath id="clip0">
<rect y="0.5" width="26" height="26" fill="white"/>
</clipPath>
</defs>
</svg>
