<svg width="20" height="20" viewBox="0 0 20 20" fill="none" xmlns="http://www.w3.org/2000/svg">
<path d="M18.8115 7.76323L10.1825 0.917495C9.8334 0.640458 9.33943 0.640458 8.99038 0.917495L0.361258 7.76001C0.129127 7.94499 -0.00424156 8.22705 0.000102947 8.52386V9.16306C0.000102947 9.69257 0.429347 10.1218 0.95889 10.1218H1.59809V18.7509C1.59809 19.2804 2.02734 19.7097 2.55688 19.7097H4.15487C4.68438 19.7097 5.11366 19.2805 5.11366 18.7509V14.2766C5.11366 14.1001 5.25673 13.957 5.43324 13.957H7.99002C8.16653 13.957 8.3096 14.1001 8.3096 14.2766V18.7509C8.3096 19.2804 8.73884 19.7097 9.26839 19.7097H16.6191C17.1486 19.7097 17.5779 19.2805 17.5779 18.7509V10.1218H18.2171C18.7466 10.1218 19.1759 9.6926 19.1759 9.16306V8.52386C19.1785 8.22764 19.044 7.94686 18.8115 7.76323Z" fill="#757A83"/>
</svg>
