<svg width="17" height="11" viewBox="0 0 17 11" fill="none" xmlns="http://www.w3.org/2000/svg">
<path d="M5.4142 6.30869C5.16973 6.95839 4.77269 7.53982 4.25652 8.004C3.74036 8.46817 3.1202 8.80149 2.44828 8.97588C0.949316 9.45597 1.61611 11.1096 3.02439 10.6882C6.22502 9.7867 8.13473 7.35422 8.13473 4.16426C8.13473 1.67844 6.71045 0.078125 4.51268 0.078125C2.31492 0.078125 0.927979 1.40639 0.927979 3.47079C0.927979 6.41537 3.70719 7.13551 5.4142 6.30869Z" fill="#F46987"/>
<path opacity="0.6" d="M13.0551 8.004C13.5713 7.53982 13.9683 6.95839 14.2128 6.30869C12.5218 7.13018 9.72656 6.42604 9.72656 3.47079C9.72656 1.40639 11.1082 0.078125 13.3113 0.078125C15.5144 0.078125 16.9333 1.67844 16.928 4.16426C16.928 7.35422 15.0236 9.7867 11.823 10.6882C10.4467 11.1096 9.72123 9.46131 11.2469 8.97588C11.9188 8.80149 12.5389 8.46817 13.0551 8.004Z" fill="#F46987"/>
</svg>
