<svg width="37" height="37" viewBox="0 0 37 37" fill="none" xmlns="http://www.w3.org/2000/svg">
<g clip-path="url(#clip0)">
<path d="M18.9592 13.4236L12.0725 20.2953L14.0444 22.2672L16.8081 19.4886L17.4653 17.8304V32.7093H20.4531V17.8454L21.0656 19.4737L23.874 22.2672L25.8309 20.3103L18.9592 13.4236Z" fill="#959CB2"/>
<path d="M28.6694 11.84H28.52C26.9142 7.47736 22.7719 4.56728 18.1231 4.5359C11.9603 4.49431 6.93054 9.4566 6.88902 15.6195C6.88902 15.8585 6.88902 16.0825 6.88902 16.3216C3.56411 16.3546 0.895544 19.0767 0.928525 22.4016C0.961507 25.7265 3.68364 28.3951 7.00855 28.3621H14.4779V25.3744H7.00848C5.33776 25.3744 3.98342 24.02 3.98342 22.3493C3.98342 20.6786 5.33776 19.3243 7.00848 19.3243L9.99622 19.399C9.99622 19.399 9.86178 16.3216 9.86178 15.6195C9.82893 11.7701 12.492 8.42185 16.25 7.58744C20.6477 6.61101 25.0041 9.38448 25.9805 13.7821L26.3092 15.1863L27.7134 14.9323C28.0282 14.8682 28.3482 14.8332 28.6694 14.8278C31.5818 14.8278 33.9427 17.1887 33.9427 20.1011C33.9427 23.0135 31.5818 25.3745 28.6694 25.3745H23.4409V28.3622H28.6694C33.23 28.3609 36.9268 24.6641 36.9281 20.1035C36.9294 15.5409 33.2319 11.8413 28.6694 11.84Z" fill="#959CB2"/>
</g>
<defs>
<clipPath id="clip0">
<rect x="0.927979" y="0.622559" width="36" height="36" fill="white"/>
</clipPath>
</defs>
</svg>
