<svg width="61" height="61" viewBox="0 0 61 61" fill="none" xmlns="http://www.w3.org/2000/svg">
<rect x="0.0490723" y="0.5" width="60" height="60" rx="30" fill="white"/>
<mask id="mask0" mask-type="alpha" maskUnits="userSpaceOnUse" x="19" y="17" width="26" height="26">
<path d="M30.7432 42.7493H22.7746C20.9519 42.7493 19.4744 41.2717 19.4744 39.449V20.8501C19.4744 19.0274 20.9519 17.5498 22.7746 17.5498H30.7432C34.9312 17.5498 38.1847 18.7092 40.5035 21.028C42.846 23.3469 44.0173 26.3874 44.0173 30.1496C44.0173 33.9117 42.846 36.9522 40.5035 39.2711C38.1847 41.5899 34.9312 42.7493 30.7432 42.7493Z" fill="#EA6D8B"/>
</mask>
<g mask="url(#mask0)">
<path d="M30.7432 42.7493H22.7746C20.9519 42.7493 19.4744 41.2717 19.4744 39.449V20.8501C19.4744 19.0274 20.9519 17.5498 22.7746 17.5498H30.7432C34.9312 17.5498 38.1847 18.7092 40.5035 21.028C42.846 23.3469 44.0173 26.3874 44.0173 30.1496C44.0173 33.9117 42.846 36.9522 40.5035 39.2711C38.1847 41.5899 34.9312 42.7493 30.7432 42.7493Z" fill="#F27B81"/>
<rect opacity="0.7" x="19.4746" y="17.1797" width="12.2005" height="13.3096" fill="#8E0044"/>
<rect x="31.6753" y="17.1795" width="12.5702" height="13.3096" fill="#F27B81"/>
<rect x="19.4746" y="30.4888" width="12.2005" height="13.3096" fill="#F27B81"/>
<rect x="31.6753" y="30.4888" width="12.5702" height="13.3096" fill="#FF999E"/>
</g>
</svg>
