<svg width="345" height="492" viewBox="0 0 345 492" fill="none" xmlns="http://www.w3.org/2000/svg">
<g clip-path="url(#clip0)">
<path fill-rule="evenodd" clip-rule="evenodd" d="M69.2123 434.394C55.4987 434.394 44.3815 436.861 44.3815 439.905C44.3815 442.949 55.4987 445.416 69.2123 445.416C82.926 445.416 94.0432 442.949 94.0432 439.905C94.0432 436.861 82.926 434.394 69.2123 434.394Z" fill="#001D68" fill-opacity="0.04"/>
<path fill-rule="evenodd" clip-rule="evenodd" d="M44.2927 402.264C42.4245 405.617 41.3781 409.374 41.3781 413.341C41.3781 427.505 54.7186 438.988 71.1751 438.988C87.6316 438.988 100.972 427.505 100.972 413.341C100.972 409.143 99.8003 405.18 97.7229 401.683C84.5229 403.823 58.2492 403.685 44.2927 402.264Z" fill="#F5C952"/>
<path fill-rule="evenodd" clip-rule="evenodd" d="M70.9684 396.596C55.9976 396.596 43.8614 399.538 43.8614 403.167C43.8614 406.796 55.9976 409.738 70.9684 409.738C85.9392 409.738 98.0754 406.796 98.0754 403.167C98.0754 399.538 85.9392 396.596 70.9684 396.596Z" fill="#E2AA3B"/>
<path fill-rule="evenodd" clip-rule="evenodd" d="M73.2438 398.292C74.7241 387.799 78.7964 372.646 91.0392 356.324C98.251 346.71 98.2746 323.297 99.3161 320.716C93.6571 322.709 83.4913 327.847 73.2438 342.335C62.5015 357.523 69.3162 388.496 73.2438 398.292Z" fill="#58BC89"/>
<mask id="mask0" mask-type="alpha" maskUnits="userSpaceOnUse" x="67" y="320" width="33" height="79">
<path fill-rule="evenodd" clip-rule="evenodd" d="M73.2438 398.292C74.7241 387.799 78.7964 372.646 91.0392 356.324C98.251 346.71 98.2746 323.297 99.3161 320.716C93.6571 322.709 83.4913 327.847 73.2438 342.335C62.5015 357.523 69.3162 388.496 73.2438 398.292Z" fill="white"/>
</mask>
<g mask="url(#mask0)">
<g style="mix-blend-mode:multiply" opacity="0.5">
<mask id="path-7-inside-1" fill="white">
<path fill-rule="evenodd" clip-rule="evenodd" d="M73.6586 398.292C72.5289 372.784 75.6294 356.685 85.3773 341.487L73.6586 398.292Z"/>
</mask>
<path fill-rule="evenodd" clip-rule="evenodd" d="M73.6586 398.292C72.5289 372.784 75.6294 356.685 85.3773 341.487L73.6586 398.292Z" fill="black" fill-opacity="0.01"/>
<path d="M67.0582 398.584C65.8961 372.347 69.0507 354.704 79.816 337.92L90.9386 345.054C82.2081 358.666 79.1616 373.221 80.2591 397.999L67.0582 398.584Z" fill="#469876" mask="url(#path-7-inside-1)"/>
</g>
</g>
<path fill-rule="evenodd" clip-rule="evenodd" d="M73.1981 409.063C77.7715 401.57 85.8519 391.416 100.55 383.182C109.209 378.332 116.91 360.485 118.552 358.875C113.58 358.447 104.136 358.867 91.5621 366.39C78.3808 374.275 73.4162 400.241 73.1981 409.063Z" fill="#58BC89"/>
<mask id="mask1" mask-type="alpha" maskUnits="userSpaceOnUse" x="73" y="358" width="46" height="52">
<path fill-rule="evenodd" clip-rule="evenodd" d="M73.1981 409.063C77.7715 401.57 85.8519 391.416 100.55 383.182C109.209 378.332 116.91 360.485 118.552 358.875C113.58 358.447 104.136 358.867 91.5621 366.39C78.3808 374.275 73.4162 400.241 73.1981 409.063Z" fill="white"/>
</mask>
<g mask="url(#mask1)">
<g style="mix-blend-mode:multiply" opacity="0.5">
<mask id="path-11-inside-2" fill="white">
<path fill-rule="evenodd" clip-rule="evenodd" d="M73.5134 409.205C81.0225 389.364 88.6718 378.153 101.098 369.918L73.5134 409.205Z"/>
</mask>
<path fill-rule="evenodd" clip-rule="evenodd" d="M73.5134 409.205C81.0225 389.364 88.6718 378.153 101.098 369.918L73.5134 409.205Z" fill="black" fill-opacity="0.01"/>
<path d="M67.3342 406.866C75.1014 386.343 83.4203 373.708 97.448 364.411L104.748 375.425C93.9233 382.599 86.9436 392.384 79.6926 411.544L67.3342 406.866Z" fill="#469876" mask="url(#path-11-inside-2)"/>
</g>
</g>
<path fill-rule="evenodd" clip-rule="evenodd" d="M69.913 410.09C66.307 402.025 59.545 390.846 45.9476 380.706C37.9378 374.733 32.5276 355.945 31.096 354.125C36.103 354.356 45.4561 356.022 57.0279 365.173C69.1583 374.766 70.8137 401.277 69.913 410.09Z" fill="#58BC89"/>
<mask id="mask2" mask-type="alpha" maskUnits="userSpaceOnUse" x="31" y="354" width="40" height="57">
<path fill-rule="evenodd" clip-rule="evenodd" d="M69.913 410.09C66.307 402.025 59.545 390.846 45.9476 380.706C37.9378 374.733 32.5276 355.945 31.096 354.125C36.103 354.356 45.4561 356.022 57.0279 365.173C69.1583 374.766 70.8137 401.277 69.913 410.09Z" fill="white"/>
</mask>
<g mask="url(#mask2)">
<g style="mix-blend-mode:multiply" opacity="0.5">
<mask id="path-15-inside-3" fill="white">
<path fill-rule="evenodd" clip-rule="evenodd" d="M70.9618 410.073C65.996 389.324 59.7971 377.151 48.4633 367.31L70.9618 410.073Z"/>
</mask>
<path fill-rule="evenodd" clip-rule="evenodd" d="M70.9618 410.073C65.996 389.324 59.7971 377.151 48.4633 367.31L70.9618 410.073Z" fill="black" fill-opacity="0.01"/>
<path d="M64.5363 411.611C59.74 391.57 54.0227 380.887 44.1314 372.298L52.7952 362.321C65.5716 373.416 72.2519 387.078 77.3872 408.535L64.5363 411.611Z" fill="#469876" mask="url(#path-15-inside-3)"/>
</g>
</g>
<ellipse cx="181.417" cy="438.988" rx="101.944" ry="5.8833" transform="rotate(180 181.417 438.988)" fill="#001D68" fill-opacity="0.04"/>
<path d="M244.063 75.718C244.115 76.1078 244.176 76.489 244.242 76.8789C245.256 82.5883 248.146 87.8213 251.067 92.8809C257.354 103.789 276.043 126.228 289.936 123.473C304.763 120.527 306.89 99.0582 300.591 88.5143C291.704 73.6473 276.294 57.8792 257.947 57.1947C255.318 57.0994 252.66 57.7492 250.456 59.2047C245.241 62.6269 243.244 69.5494 244.063 75.718Z" fill="#A0616B"/>
<path d="M262.727 88.6059C260.863 88.3783 259.279 87.1004 256.107 84.4131C245.774 75.6947 236.468 65.2956 226.773 55.8594C224.828 53.9599 222.741 51.7453 222.796 49.023C222.846 46.5807 224.74 44.4625 226.979 43.4909C229.219 42.5192 231.746 42.4929 234.181 42.6505C248.331 43.5783 259.697 50.3535 271.338 57.6276C272.952 58.6343 292.908 71.0729 290.411 73.4275C287.48 76.1936 278.656 83.5027 262.727 88.6059Z" fill="#58BC89"/>
<path d="M275.215 158.891C263.332 148.38 257.267 128.87 273.304 115.698C276.879 112.766 281.184 110.898 285.188 108.583C292.367 104.434 298.661 98.7564 303.535 92.0391C312.231 107.814 318.703 144.045 306.311 159.288C297.69 169.884 284.628 167.214 275.215 158.891Z" fill="#D79A9A"/>
<path d="M127.382 382.466L160.048 384.039L143.082 425.639L142.918 425.672L144.079 422.705L118.97 422.538C118.74 422.245 118.505 421.952 118.256 421.672L118.171 415.877C118.157 414.557 115.458 420.971 113.945 420.618L127.382 382.466Z" fill="#D79A9A"/>
<path d="M88.4011 435.444C88.4011 435.247 88.4077 435.057 88.4208 434.86L88.4404 434.689C88.4535 434.551 88.4666 434.413 88.4863 434.282C88.4994 434.216 88.5125 434.157 88.519 434.092C88.5452 433.947 88.578 433.809 88.6173 433.671L88.6501 433.527C88.6959 433.35 88.7549 433.172 88.8204 433.002C88.84 432.936 88.8662 432.877 88.8859 432.818C88.9318 432.706 88.9776 432.595 89.03 432.477C89.0693 432.404 89.1021 432.326 89.1414 432.253C89.1873 432.161 89.2331 432.07 89.2855 431.978C89.3314 431.899 89.3707 431.813 89.4231 431.735L89.4362 431.702L142.894 431.945L141.424 438.425L88.4338 438.188L88.4011 435.444Z" fill="#4B77DB"/>
<path d="M120.648 422.57L119.98 422.563L119.973 422.15H108.836L94.7234 427.796C94.4548 427.881 94.1994 427.973 93.9438 428.071C93.8521 428.104 93.767 428.144 93.6818 428.176C93.5114 428.249 93.3476 428.314 93.1904 428.393C93.0987 428.439 93.007 428.485 92.9152 428.531C92.758 428.61 92.6139 428.695 92.4697 428.78C92.3846 428.826 92.2994 428.879 92.2208 428.925C92.0504 429.036 91.8801 429.148 91.7163 429.266L91.5853 429.358C91.3756 429.516 91.179 429.68 90.989 429.85L90.8908 429.936C90.7335 430.087 90.5829 430.231 90.4388 430.389L90.3142 430.527C90.1832 430.671 90.0587 430.822 89.9408 430.973L89.836 431.118C89.7115 431.288 89.5936 431.465 89.4822 431.643L89.4364 431.702L142.894 431.945L144.984 422.727L144.48 422.721L120.648 422.57Z" fill="#243DCD"/>
<path d="M108.568 406.472C108.633 406.531 108.876 406.571 109.256 406.591C110.068 406.63 110.854 406.742 111.621 406.925C113.698 407.418 115.558 408.429 117.052 409.794C119.365 411.915 120.8 414.895 120.8 418.145V422.196H115.519L116.928 426.135H108.548V406.433L108.568 406.472Z" fill="#243DCD"/>
<path d="M247.029 363.697L238.243 428.982L212.174 428.195L213.347 393.263L247.029 363.697Z" fill="#D79A9A"/>
<path d="M212.174 423.023V436.593H249.275V430.829L249.056 430.605L243.358 424.762L243.284 420.758C243.195 416.005 239.02 412.19 233.9 412.19H233.536C228.354 412.19 224.152 416.097 224.152 420.909V423.023H212.174Z" fill="#243DCD"/>
<path d="M212.174 430.605V436.593H249.275V430.829L249.056 430.605H212.174Z" fill="#4B77DB"/>
<path d="M279.939 132.2C279.939 132.2 279.997 132.881 280.092 134.185L284.45 132.815L279.939 132.2Z" fill="#A0D49B"/>
<path d="M117.299 409.087H149.588C169.31 379.965 192.531 306.827 208.518 250.703C214.15 230.921 218.885 213.259 222.251 200.37L219.405 262.647L212.712 409.087C241.122 409.087 250.51 408.545 260.339 380.967C270.192 353.357 273.026 322.633 275.75 293.634C279.045 258.49 280.273 220.776 277.592 184.186C276.42 168.077 274.483 152.197 271.634 136.843C271.231 134.642 270.804 132.44 270.357 130.263L271.227 136.975L261.182 140.129C245.414 138.462 229.517 138.018 213.683 138.799C206.5 139.16 199.542 135.948 192.413 135.504C188.157 135.242 181.722 135.233 176.987 137.139L168.612 134.091L117.299 409.087Z" fill="#2760CA"/>
<path d="M250.847 117.524C249.346 117.819 247.827 118.021 246.377 118.156C237.804 118.992 229.148 119.506 220.632 118.882C218.94 118.764 217.242 118.604 215.562 118.376C211.905 117.895 206.319 117.009 201.185 115.398C202.172 108.523 206.789 102.406 212.789 98.8802C218.979 95.2611 226.466 94.2319 233.579 95.1261C236.847 95.5395 240.184 96.4 242.724 98.4921C246.655 101.732 248.907 111.821 250.847 117.524Z" fill="#073955"/>
<path d="M180.839 80.3521C180.698 80.3948 180.563 80.4545 180.43 80.5057L180.57 80.4716C180.662 80.429 180.753 80.3948 180.839 80.3521Z" fill="#A0616B"/>
<path opacity="0.5" d="M219.409 262.661L234.675 171.976L223.081 182.259L219.409 262.661Z" fill="#072B55"/>
<path d="M169.156 147.488C167.358 145.735 167.057 142.938 166.922 140.396C165.551 114.559 161.299 60.3785 189.35 48.0608C202.125 42.4587 214.919 40.2669 228.518 42.6778C245.808 45.7375 261.657 62.9999 268.612 78.6403C272.645 87.7055 274.719 97.358 276.234 107.124C277.603 115.927 279.444 123.291 278.831 132.417C263.875 143.061 232.523 154.87 169.156 147.488Z" fill="#58BC89"/>
<path d="M254.646 141.87H294.987C297.585 141.87 299.689 139.76 299.689 137.159V72.18C299.689 69.5788 297.585 67.4685 294.987 67.4685H254.646C252.049 67.4685 249.944 69.5788 249.944 72.18V137.159C249.944 139.76 252.049 141.87 254.646 141.87Z" fill="#EBFFD0"/>
<path d="M257.856 138.989H298.196C300.793 138.989 302.898 136.877 302.898 134.275V69.3049C302.898 66.7023 300.793 64.5909 298.196 64.5909H257.856C255.258 64.5909 253.153 66.7023 253.153 69.3049V134.275C253.153 136.877 255.258 138.989 257.856 138.989Z" fill="#F5C952"/>
<path d="M295.23 69.9838C295.23 70.697 295.811 71.2812 296.528 71.2812C297.246 71.2812 297.828 70.697 297.828 69.9838C297.828 69.262 297.246 68.6776 296.528 68.6776C295.811 68.6776 295.23 69.262 295.23 69.9838Z" fill="white"/>
<path d="M308.905 107.949C308.308 104.158 307.429 100.417 306.202 96.7781C305.575 95.4777 304.886 94.2027 304.131 92.97C297.467 94.1859 290.195 96.5079 285.617 97.4536L286.391 99.0664L290.915 99.4463L293.526 104.301C296.422 105.99 301.625 108.886 303.347 109.055C303.347 109.055 299.662 108.794 295.523 108.025L296.361 109.587C298.455 110.271 303.717 112.357 309.148 113.454C309.134 111.622 309.051 109.782 308.905 107.949Z" fill="#D79A9A"/>
<path d="M303.905 100.184L303.929 99.7973L290.926 99.251L290.902 99.6376L303.905 100.184Z" fill="#252E4F"/>
<path d="M292.362 102.143C297.26 104.35 304.263 105.34 304.343 105.349L304.405 104.971C304.325 104.963 296.902 103.914 292.054 101.573L292.362 102.143Z" fill="#252E4F"/>
<path d="M104.419 116.653C104.458 115.183 104.713 113.59 105.237 111.84C108.71 100.254 118.243 94.5665 125.926 86.4286C130.054 82.0446 134.487 77.7569 139.119 73.6792C144.853 68.6214 150.9 63.8962 157.073 59.7309C164.332 54.8394 187.425 42.9738 195.572 48.0404C201.036 51.4443 197.34 62.7674 195.71 67.4926C192.511 76.7419 186.785 84.836 180.373 92.3526C176.082 97.3929 171.477 102.179 167.118 106.887C166.354 107.71 165.582 108.532 164.81 109.355C157.536 117.055 152.578 116.793 159.452 126.059C159.915 126.681 160.373 127.302 160.824 127.915C163.09 131.012 165.21 134.049 167.044 137.234C169.4 141.338 171.273 145.687 172.335 150.683C174.036 158.716 173.253 170.862 169.082 178.046C168.171 179.612 167.056 181.161 165.67 182.167C164.343 183.139 162.524 183.06 161.266 182.001L156.695 178.168C156.74 175.22 159.35 172.804 161.102 176.392C164.504 175.64 163.681 172.139 162.063 169.68C160.864 167.86 159.378 165.9 159.762 163.756C160.632 158.891 164.081 160.729 159.606 157.001C158.316 155.925 155.451 155.47 153.875 154.831C148.192 152.556 142.634 149.957 137.273 146.999C124.488 139.955 112.032 130.688 104.451 117.93C104.419 117.51 104.412 117.09 104.419 116.653Z" fill="#D79A9A"/>
<path opacity="0.6" d="M161.807 112.274C156.345 117.186 153.583 118.152 159.454 126.061C159.917 126.686 160.376 127.31 160.829 127.926C157.87 125.145 154.702 122.598 151.45 120.267C147.492 117.436 143.285 114.889 138.93 112.632C146.545 113.298 154.206 113.249 161.807 112.274Z" fill="#A45D68"/>
<path d="M118.229 92.8752C129.602 93.7411 149.516 92.2493 153.897 86.1277C155.83 83.427 155.885 80.9235 154.07 78.4543C152.056 75.7278 147.98 73.4558 143.524 71.7925C143.305 71.9468 143.085 72.1097 142.865 72.2641C145.052 73.3015 146.906 74.5789 147.964 76.0622C149.356 78.017 149.249 80.1519 147.658 82.2267C144.652 86.1449 134.486 87.4051 126.471 87.4051C125.643 87.4051 124.836 87.3966 124.067 87.3709C122.671 88.6312 121.289 89.9172 119.932 91.2204C119.363 91.752 118.799 92.3093 118.229 92.8752Z" fill="#060446"/>
<path d="M126.173 85.4984C133.666 85.5069 143.171 84.3595 145.562 81.2428C146.707 79.7444 146.793 78.3573 145.828 77.0044C144.899 75.7115 143.108 74.5641 140.98 73.6222C135.865 77.3469 130.924 81.3113 126.173 85.4984Z" fill="#060446"/>
<path d="M112.644 98.9087C123.434 100.774 151.177 100.227 161.159 93.466H161.164C162.147 92.7985 162.958 92.0711 163.562 91.2838C163.836 90.9243 164.087 90.5649 164.302 90.2055H164.307C168.477 83.385 161.747 77.9593 152.945 74.3822C154.25 75.3406 155.359 76.3847 156.186 77.5057C158.444 80.5609 158.393 83.7786 156.033 87.0733C151.737 93.0723 136.636 95.0064 124.875 95.0064C121.757 95.0064 118.881 94.8695 116.496 94.6384C115.173 95.9991 113.876 97.4282 112.644 98.9087Z" fill="#060446"/>
<path d="M138.604 73.0942C144.497 67.8977 150.565 63.184 156.639 59.0847C163.899 54.1954 200.742 38.5005 209.398 43.8814C210.177 44.3729 210.661 45.0927 210.798 45.9705C211.329 49.4027 206.606 54.9416 202.038 60.3049C199.433 63.3596 196.973 66.2475 196.453 67.7485C193.654 75.8505 188.879 83.6015 180.973 92.8709L180.648 93.2484L180.167 93.1167C165.978 89.1666 152.027 82.8553 138.7 74.3495L137.822 73.7877L138.604 73.0942Z" fill="#58BC89"/>
<path d="M194.872 48.868C194.872 53.4258 203.821 57.1158 214.86 57.1158C225.9 57.1158 234.849 53.4258 234.849 48.868C234.849 44.3103 225.9 40.6203 214.86 40.6203C203.821 40.6203 194.872 44.3103 194.872 48.868Z" fill="#D79A9A"/>
<path d="M208.572 50.7972C208.382 50.8061 208.195 50.815 208.01 50.8328C206.93 48.8098 206.328 46.29 206.523 43.7701L208.114 23.0704L218.077 29.8935L222.044 47.7274C217.593 48.9429 213.174 50.3447 208.572 50.7972Z" fill="#D79A9A"/>
<path d="M211.125 17.55L211.603 17.1815C211.154 15.3658 211.003 13.4512 211.799 11.995C212.154 11.3478 212.697 10.7905 213.486 10.3681C218.393 7.75233 224.126 8.15677 228.735 4.69609C229.058 4.4534 229.4 4.19278 229.802 4.16581C230.307 4.12986 230.752 4.48042 231.108 4.83997C234.987 8.76806 234.188 15.7343 229.315 17.1186L228.633 19.6624L228.939 32.2916L229.145 40.768C229.25 45.0287 225.943 48.6062 221.692 48.8129L221.207 48.84C217.1 49.0467 213.532 46.0444 213.024 41.9545L211.825 32.2916L207.623 26.6736C207.623 26.6736 203.419 17.55 211.125 17.55Z" fill="#060446"/>
<path d="M213.924 21.0615V26.3621C213.924 29.635 216.572 32.2852 219.837 32.2852H228.938L228.632 19.6564L213.924 21.0615Z" fill="#D79A9A"/>
<path d="M205.945 28.6671C205.945 30.4653 207.395 31.9181 209.184 31.9181C210.972 31.9181 212.421 30.4653 212.421 28.6671C212.421 26.8778 210.972 25.4251 209.184 25.4251C207.395 25.4251 205.945 26.8778 205.945 28.6671Z" fill="#D79A9A"/>
<path d="M219.68 27.0663C220.089 27.084 220.42 26.7917 220.414 26.4109C220.408 26.03 220.068 25.6935 219.659 25.6758C219.25 25.6492 218.92 25.9415 218.926 26.3312C218.932 26.7121 219.271 27.0397 219.68 27.0663Z" fill="#072B55"/>
<path d="M222.137 31.9252L225.152 31.3225L223.838 24.6754L223.114 24.8172L224.285 30.7376L221.993 31.1984L222.137 31.9252Z" fill="#15203D"/>
<path d="M227.599 26.5429C228.008 26.5606 228.338 26.2682 228.332 25.8872C228.326 25.5062 227.986 25.1696 227.577 25.1519C227.169 25.1253 226.838 25.4177 226.844 25.8075C226.85 26.1885 227.189 26.5163 227.599 26.5429Z" fill="#072B55"/>
<path d="M218.984 34.1676L225.47 34.2733L224.563 35.7612C223.22 37.9711 220.81 37.8479 219.653 35.5147L218.984 34.1676Z" fill="white"/>
<path d="M19.9602 420.653C19.744 419.681 19.5147 418.67 19.2854 417.627C17.1759 418.972 16.1867 420.154 19.9602 420.653Z" fill="#FDD8B6"/>
<path d="M21.1268 87.7905C20.9167 87.585 21.7862 87.6535 21.1268 87.7905V87.7905Z" fill="#A0D49B"/>
</g>
<defs>
<clipPath id="clip0">
<rect width="345" height="492" transform="matrix(-1 0 0 1 345 0)" fill="white"/>
</clipPath>
</defs>
</svg>
