<svg width="21" height="21" viewBox="0 0 21 21" fill="none" xmlns="http://www.w3.org/2000/svg">
<mask id="mask0" mask-type="alpha" maskUnits="userSpaceOnUse" x="0" y="0" width="21" height="21">
<path d="M9.75526 20.9999H4.0405C2.21781 20.9999 0.740234 19.5223 0.740234 17.6997V4.1406C0.740234 2.31791 2.21781 0.840332 4.0405 0.840332H9.75526C13.1057 0.840332 15.7085 1.76786 17.5636 3.62292C19.4375 5.47799 20.3745 7.91039 20.3745 10.9201C20.3745 13.9299 19.4375 16.3623 17.5636 18.2173C15.7085 20.0724 13.1057 20.9999 9.75526 20.9999Z" fill="#EA6D8B"/>
</mask>
<g mask="url(#mask0)">
<path d="M9.75526 20.9999H4.0405C2.21781 20.9999 0.740234 19.5223 0.740234 17.6997V4.1406C0.740234 2.31791 2.21781 0.840332 4.0405 0.840332H9.75526C13.1057 0.840332 15.7085 1.76786 17.5636 3.62292C19.4375 5.47799 20.3745 7.91039 20.3745 10.9201C20.3745 13.9299 19.4375 16.3623 17.5636 18.2173C15.7085 20.0724 13.1057 20.9999 9.75526 20.9999Z" fill="#F27B81"/>
<rect opacity="0.7" x="0.740234" y="0.544434" width="9.76037" height="10.6477" fill="#8E0044" fill-opacity="0.3"/>
<rect x="10.5007" y="0.544434" width="10.0561" height="10.6477" fill="#F27B81" fill-opacity="0.37"/>
<rect x="0.740234" y="11.1924" width="9.76037" height="10.6477" fill="#F27B81" fill-opacity="0.37"/>
<rect x="10.5007" y="11.1924" width="10.0561" height="10.6477" fill="#FF999E"/>
</g>
</svg>
