<svg width="24" height="24" viewBox="0 0 24 24" fill="none" xmlns="http://www.w3.org/2000/svg">
<path d="M12 23.1104C5.86336 23.1104 0.888916 18.136 0.888916 11.9993C0.888916 5.86263 5.86336 0.888184 12 0.888184C18.1367 0.888184 23.1111 5.86263 23.1111 11.9993C23.1111 18.136 18.1367 23.1104 12 23.1104ZM12 20.8882C14.3575 20.8882 16.6184 19.9517 18.2854 18.2847C19.9524 16.6177 20.8889 14.3568 20.8889 11.9993C20.8889 9.64182 19.9524 7.38089 18.2854 5.7139C16.6184 4.04691 14.3575 3.11041 12 3.11041C9.64255 3.11041 7.38162 4.04691 5.71463 5.7139C4.04764 7.38089 3.11114 9.64182 3.11114 11.9993C3.11114 14.3568 4.04764 16.6177 5.71463 18.2847C7.38162 19.9517 9.64255 20.8882 12 20.8882ZM17 6.99929L14.2222 14.2215L7.00003 16.9993L9.7778 9.77707L17 6.99929Z" fill="#AAAABC"/>
</svg>
