<svg width="14" height="18" viewBox="0 0 14 18" fill="none" xmlns="http://www.w3.org/2000/svg">
<path d="M8.99991 11.5908L7.62978 12.9703C7.62978 12.9703 7.10515 12.8604 6.31275 12.9703C5.52036 13.0803 4.76592 13.3787 4.11278 13.8407C3.45964 14.3026 2.92687 14.9145 2.55922 15.625C2.19157 16.3355 1.99977 17.1238 1.99992 17.9238L0.333252 17.923C0.332994 16.9054 0.565686 15.9013 1.0135 14.9875C1.46132 14.0737 2.11237 13.2746 2.91677 12.6514C3.72117 12.0281 4.65757 11.5973 5.65421 11.3919C6.65086 11.1865 7.49991 11.0908 8.99991 11.5908ZM6.99992 10.4238C4.23742 10.4238 1.99992 8.18633 1.99992 5.42383C1.99992 2.66133 4.23742 0.423828 6.99992 0.423828C9.76242 0.423828 11.9999 2.66133 11.9999 5.42383C11.9999 8.18633 9.76242 10.4238 6.99992 10.4238ZM6.99992 8.75716C8.84158 8.75716 10.3333 7.26549 10.3333 5.42383C10.3333 3.58216 8.84158 2.09049 6.99992 2.09049C5.15825 2.09049 3.66659 3.58216 3.66659 5.42383C3.66659 7.26549 5.15825 8.75716 6.99992 8.75716Z" fill="#AAAABC"/>
<path d="M6.31275 12.9703L4.94263 11.5908C6.44263 11.0908 7.29168 11.1864 8.28832 11.3918C9.28497 11.5972 10.2214 12.0281 11.0258 12.6513C11.8302 13.2746 12.4812 14.0737 12.929 14.9875C13.3769 15.9012 13.6095 16.9054 13.6093 17.923L11.9426 17.9238C11.9428 17.1238 11.751 16.3355 11.3833 15.625C11.0157 14.9145 10.4829 14.3026 9.82976 13.8406C9.17662 13.3787 8.42217 13.0802 7.62978 12.9703C6.83739 12.8603 6.31275 12.9703 6.31275 12.9703Z" fill="#AAAABC"/>
</svg>
