<svg width="22" height="22" viewBox="0 0 22 22" fill="none" xmlns="http://www.w3.org/2000/svg">
<path d="M5.49959 13.3558L3.14403 15.7135L6.28626 18.8558L18.8563 6.28466L15.714 3.14355L13.3551 5.4991L14.9274 7.07021L13.3551 8.64355L11.784 7.07132L10.2129 8.64355L11.784 10.2147L10.2129 11.7858L8.64181 10.2147L7.06959 11.7858L8.64181 13.3569L7.06959 14.9291L5.49959 13.3558ZM16.4996 0.785768L21.2129 5.4991C21.4212 5.70747 21.5382 5.99003 21.5382 6.28466C21.5382 6.57928 21.4212 6.86185 21.2129 7.07021L7.0707 21.2124C6.86234 21.4207 6.57977 21.5378 6.28514 21.5378C5.99052 21.5378 5.70795 21.4207 5.49959 21.2124L0.786256 16.4991C0.577955 16.2907 0.460938 16.0082 0.460938 15.7135C0.460937 15.4189 0.577955 15.1364 0.786256 14.928L14.9285 0.785768C15.1368 0.577466 15.4194 0.460449 15.714 0.460449C16.0087 0.460449 16.2912 0.577466 16.4996 0.785768Z" fill="#657AED"/>
<path d="M14.9278 16.4981L13.3556 18.0692L16.2867 20.9992H21V16.2848L18.07 13.3559L16.4989 14.927L18.99 17.4192V18.9903H17.4189L14.9278 16.4981Z" fill="#657AED"/>
<path d="M0.785591 5.49924L3.92892 8.64146L5.50004 7.06924L3.14337 4.71368L4.71448 3.14146L7.07115 5.49924L8.64448 3.92701L5.50004 0.784791C5.29167 0.57649 5.00911 0.459473 4.71448 0.459473C4.41985 0.459473 4.13729 0.57649 3.92892 0.784791L0.785591 3.92701C0.682284 4.03021 0.600329 4.15275 0.544413 4.28763C0.488498 4.42252 0.459717 4.56711 0.459717 4.71312C0.459717 4.85914 0.488498 5.00373 0.544413 5.13861C0.600329 5.2735 0.682284 5.39604 0.785591 5.49924Z" fill="#657AED"/>
</svg>
