<svg width="13" height="16" viewBox="0 0 13 16" fill="none" xmlns="http://www.w3.org/2000/svg">
<path d="M0.999976 1.18438C0.999976 1.11823 1.01477 1.0722 1.0467 1.02365L11.9531 1.02334C11.9852 1.0721 12 1.11826 12 1.18439V1.18452V14.8156C12 14.8822 11.9851 14.9281 11.9534 14.9762L11.9533 14.9764C11.9228 15.0228 11.8896 15.051 11.8342 15.0741L11.824 15.0783L11.8157 15.082C11.811 15.0834 11.7885 15.0893 11.74 15.0893C11.6573 15.0893 11.6036 15.0698 11.5351 15.0037L11.4522 14.9237L11.3518 14.8671L6.94172 12.3829L6.50002 12.1341L6.05831 12.3829L1.64825 14.867L1.5472 14.9239L1.46388 15.0046C1.37909 15.0867 1.32271 15.1 1.25992 15.1C1.23475 15.1 1.21465 15.0957 1.19139 15.0852L1.17865 15.0794L1.16574 15.074C1.1103 15.0509 1.07712 15.0227 1.04666 14.9765L0.294997 15.4714L1.04698 14.9769C1.01474 14.9279 0.999976 14.8818 0.999976 14.8156V1.18438Z" fill="#F27B81" stroke="#F27B81" stroke-width="1.8"/>
</svg>
