<svg width="14" height="16" viewBox="0 0 14 16" fill="none" xmlns="http://www.w3.org/2000/svg">
<path d="M1.75992 0.65C1.75991 0.65 1.75991 0.65 1.75991 0.65C1.6995 0.650001 1.64424 0.66184 1.588 0.687295L1.57895 0.691388L1.56979 0.695203C1.46866 0.7373 1.39606 0.797858 1.33794 0.88611L1.75992 0.65ZM1.75992 0.65L12.24 0.650148C12.3006 0.650148 12.356 0.662036 12.4121 0.687418L12.421 0.691456L12.43 0.695223C12.5316 0.73755 12.6042 0.798181 12.6622 0.886319C12.7213 0.976279 12.75 1.07021 12.75 1.18443V1.18452V14.8156C12.75 14.9303 12.7212 15.0241 12.6622 15.1137L12.6621 15.1139C12.604 15.2022 12.5313 15.2628 12.4303 15.3049L12.4229 15.3079L12.4157 15.3111C12.3878 15.3236 12.3343 15.3393 12.24 15.3393C12.0914 15.3393 11.9758 15.2939 11.8615 15.1836L11.8016 15.1258L11.7291 15.0849L7.31902 12.6008L7.00002 12.4211L6.68101 12.6007L2.27095 15.0848L2.19796 15.1259L2.13779 15.1842C2.00986 15.3081 1.89233 15.35 1.75992 15.35C1.69916 15.35 1.64388 15.3381 1.58822 15.3129L1.57903 15.3087L1.5697 15.3048C1.46856 15.2627 1.39597 15.2022 1.33786 15.114C1.27864 15.0238 1.24998 14.9299 1.24998 14.8156V1.18438C1.24998 1.07 1.27873 0.976085 1.3379 0.886177L1.75992 0.65Z" stroke="#F27B81" stroke-width="1.3"/>
</svg>
