<svg width="28" height="27" viewBox="0 0 28 27" fill="none" xmlns="http://www.w3.org/2000/svg">
<path fill-rule="evenodd" clip-rule="evenodd" d="M11.9999 11H15.9999V15H11.9999V11ZM7.33325 15.6667H11.3333V19.6667H7.33325V15.6667ZM20.6666 15.6667H16.6666V19.6667H20.6666V15.6667Z" fill="#65B1E8"/>
<path d="M15.1111 23.6665V25.8887H12.8889V23.6665H4.00003C3.70534 23.6665 3.42273 23.5494 3.21435 23.3411C3.00598 23.1327 2.88892 22.8501 2.88892 22.5554V6.99984H25.1111V22.5554C25.1111 22.8501 24.9941 23.1327 24.7857 23.3411C24.5773 23.5494 24.2947 23.6665 24 23.6665H15.1111ZM5.11114 21.4443H22.8889V9.22206H5.11114V21.4443ZM2.88892 3.6665H25.1111V5.88873H2.88892V3.6665Z" fill="#65B1E8"/>
</svg>
