<svg width="20" height="25" viewBox="0 0 20 25" fill="none" xmlns="http://www.w3.org/2000/svg">
<path d="M11.6666 15.6667L9.66663 17.6667C9.66663 17.6667 9.14028 17.3594 8.08375 17.506C7.02723 17.6526 6.02131 18.0506 5.15045 18.6665C4.2796 19.2824 3.56924 20.0983 3.07904 21.0456C2.58884 21.9929 2.3331 23.044 2.33331 24.1107L0.111084 24.1096C0.110739 22.7528 0.420996 21.4139 1.01808 20.1956C1.61517 18.9772 2.48324 17.9117 3.55577 17.0807C4.6283 16.2497 5.87683 15.6753 7.2057 15.4014C8.53456 15.1275 9.66663 15 11.6666 15.6667ZM8.99997 14.1107C5.31664 14.1107 2.33331 11.1273 2.33331 7.44401C2.33331 3.76068 5.31664 0.777344 8.99997 0.777344C12.6833 0.777344 15.6666 3.76068 15.6666 7.44401C15.6666 11.1273 12.6833 14.1107 8.99997 14.1107ZM8.99997 11.8885C11.4555 11.8885 13.4444 9.89957 13.4444 7.44401C13.4444 4.98845 11.4555 2.99957 8.99997 2.99957C6.54442 2.99957 4.55553 4.98845 4.55553 7.44401C4.55553 9.89957 6.54442 11.8885 8.99997 11.8885Z" fill="#AAAABC"/>
<path d="M15.8887 24.2888V20.9555H19.7776L14.7776 15.3999L9.77759 20.9555H13.6665V24.2888H15.8887Z" fill="#AAAABC"/>
</svg>
