<svg width="21" height="22" viewBox="0 0 21 22" fill="none" xmlns="http://www.w3.org/2000/svg">
<path d="M4.45324 14.1436C4.45324 15.3561 3.47329 16.3361 2.2608 16.3361C1.04831 16.3361 0.0683594 15.3561 0.0683594 14.1436C0.0683594 12.9311 1.04831 11.9512 2.2608 11.9512H4.45324V14.1436ZM5.54946 14.1436C5.54946 12.9311 6.52942 11.9512 7.7419 11.9512C8.95439 11.9512 9.93434 12.9311 9.93434 14.1436V19.6247C9.93434 20.8372 8.95439 21.8172 7.7419 21.8172C6.52942 21.8172 5.54946 20.8372 5.54946 19.6247V14.1436Z" fill="#AAAABC"/>
<path d="M7.74191 5.34191C6.52942 5.34191 5.54947 4.36196 5.54947 3.14947C5.54947 1.93699 6.52942 0.957031 7.74191 0.957031C8.95439 0.957031 9.93435 1.93699 9.93435 3.14947V5.34191H7.74191ZM7.74191 6.45474C8.95439 6.45474 9.93435 7.4347 9.93435 8.64718C9.93435 9.85967 8.95439 10.8396 7.74191 10.8396H2.2442C1.03171 10.8396 0.0517578 9.85967 0.0517578 8.64718C0.0517578 7.4347 1.03171 6.45474 2.2442 6.45474H7.74191Z" fill="#AAAABC"/>
<path d="M16.5282 8.6462C16.5282 7.43372 17.5082 6.45376 18.7207 6.45376C19.9331 6.45376 20.9131 7.43372 20.9131 8.6462C20.9131 9.85869 19.9331 10.8386 18.7207 10.8386H16.5282V8.6462ZM15.432 8.6462C15.432 9.85869 14.452 10.8386 13.2396 10.8386C12.0271 10.8386 11.0471 9.85869 11.0471 8.6462V3.14849C11.0471 1.93601 12.0271 0.956055 13.2396 0.956055C14.452 0.956055 15.432 1.93601 15.432 3.14849V8.6462Z" fill="#AAAABC"/>
<path d="M13.2396 17.4323C14.452 17.4323 15.432 18.4122 15.432 19.6247C15.432 20.8372 14.452 21.8172 13.2396 21.8172C12.0271 21.8172 11.0471 20.8372 11.0471 19.6247V17.4323H13.2396ZM13.2396 16.3361C12.0271 16.3361 11.0471 15.3561 11.0471 14.1436C11.0471 12.9311 12.0271 11.9512 13.2396 11.9512H18.7373C19.9498 11.9512 20.9297 12.9311 20.9297 14.1436C20.9297 15.3561 19.9498 16.3361 18.7373 16.3361H13.2396Z" fill="#AAAABC"/>
</svg>
