<svg width="24" height="20" viewBox="0 0 24 20" fill="none" xmlns="http://www.w3.org/2000/svg">
<path fill-rule="evenodd" clip-rule="evenodd" d="M2.00003 0.000488281H22C22.2947 0.000488281 22.5773 0.117551 22.7857 0.325925C22.9941 0.534299 23.1111 0.816914 23.1111 1.1116V18.8894C23.1111 19.1841 22.9941 19.4667 22.7857 19.6751C22.5773 19.8834 22.2947 20.0005 22 20.0005H2.00003C1.70534 20.0005 1.42273 19.8834 1.21435 19.6751C1.00598 19.4667 0.888916 19.1841 0.888916 18.8894V1.1116C0.888916 0.816914 1.00598 0.534299 1.21435 0.325925C1.42273 0.117551 1.70534 0.000488281 2.00003 0.000488281ZM3.11133 2.22331V17.7789H20.8891V2.22331H3.11133Z" fill="#AAAABC"/>
<path d="M12 13.3334H18.6667V15.5556H12V13.3334ZM8.29665 10.0001L5.15332 6.85787L6.72554 5.28564L11.4389 10.0001L6.72554 14.7145L5.15332 13.1423L8.29665 10.0001Z" fill="#AAAABC"/>
</svg>
