<svg width="21" height="22" viewBox="0 0 21 22" fill="none" xmlns="http://www.w3.org/2000/svg">
<path d="M4.45324 14.1436C4.45324 15.3561 3.47329 16.3361 2.2608 16.3361C1.04831 16.3361 0.0683594 15.3561 0.0683594 14.1436C0.0683594 12.9311 1.04831 11.9512 2.2608 11.9512H4.45324V14.1436ZM5.54946 14.1436C5.54946 12.9311 6.52942 11.9512 7.7419 11.9512C8.95439 11.9512 9.93434 12.9311 9.93434 14.1436V19.6247C9.93434 20.8372 8.95439 21.8172 7.7419 21.8172C6.52942 21.8172 5.54946 20.8372 5.54946 19.6247V14.1436Z" fill="#E01E5A"/>
<path d="M7.74191 5.34191C6.52942 5.34191 5.54947 4.36196 5.54947 3.14947C5.54947 1.93699 6.52942 0.957031 7.74191 0.957031C8.95439 0.957031 9.93435 1.93699 9.93435 3.14947V5.34191H7.74191ZM7.74191 6.45474C8.95439 6.45474 9.93435 7.4347 9.93435 8.64718C9.93435 9.85967 8.95439 10.8396 7.74191 10.8396H2.2442C1.03171 10.8396 0.0517578 9.85967 0.0517578 8.64718C0.0517578 7.4347 1.03171 6.45474 2.2442 6.45474H7.74191Z" fill="#36C5F0"/>
<path d="M16.5285 8.6462C16.5285 7.43372 17.5084 6.45376 18.7209 6.45376C19.9334 6.45376 20.9133 7.43372 20.9133 8.6462C20.9133 9.85869 19.9334 10.8386 18.7209 10.8386H16.5285V8.6462ZM15.4322 8.6462C15.4322 9.85869 14.4523 10.8386 13.2398 10.8386C12.0273 10.8386 11.0474 9.85869 11.0474 8.6462V3.14849C11.0474 1.93601 12.0273 0.956055 13.2398 0.956055C14.4523 0.956055 15.4322 1.93601 15.4322 3.14849V8.6462V8.6462Z" fill="#2EB67D"/>
<path d="M13.2398 17.4323C14.4523 17.4323 15.4322 18.4122 15.4322 19.6247C15.4322 20.8372 14.4523 21.8172 13.2398 21.8172C12.0273 21.8172 11.0474 20.8372 11.0474 19.6247V17.4323H13.2398ZM13.2398 16.3361C12.0273 16.3361 11.0474 15.3561 11.0474 14.1436C11.0474 12.9311 12.0273 11.9512 13.2398 11.9512H18.7375C19.95 11.9512 20.93 12.9311 20.93 14.1436C20.93 15.3561 19.95 16.3361 18.7375 16.3361H13.2398Z" fill="#ECB22E"/>
</svg>
