<svg width="28" height="28" viewBox="0 0 28 28" fill="none" xmlns="http://www.w3.org/2000/svg">
<path d="M6.31342 6.60384C4.61347 8.36822 3.57275 10.664 3.36618 13.1054C3.1596 15.5467 3.79978 17.9848 5.17909 20.0097C6.55841 22.0347 8.59277 23.523 10.9402 24.2247C13.2877 24.9263 15.8051 24.7984 18.0694 23.8625C18.2227 22.8625 17.8867 21.9025 17.7494 21.5665C17.4427 20.8198 16.4321 19.5438 14.7454 17.7745C14.2947 17.3012 14.3241 16.9372 14.4854 15.8585L14.5027 15.7372C14.6121 14.9985 14.7961 14.5612 17.2827 14.1665C18.5467 13.9665 18.8787 14.4705 19.3387 15.1705L19.4934 15.3998C19.9307 16.0398 20.2547 16.1865 20.7441 16.4078C20.9641 16.5078 21.2374 16.6345 21.6041 16.8412C22.4734 17.3385 22.4734 17.8998 22.4734 19.1292V19.2692C22.4734 19.7905 22.4227 20.2492 22.3427 20.6478C23.3659 19.3637 24.0789 17.8608 24.4262 16.2561C24.7735 14.6514 24.7458 12.9881 24.3452 11.3959C23.9446 9.80363 23.1819 8.32531 22.1165 7.07602C21.0511 5.82673 19.7118 4.84018 18.2027 4.19317C17.4654 4.6905 16.4534 5.39584 16.1001 5.87984C15.9201 6.1265 15.6641 7.38917 14.8334 7.49317C14.6174 7.51984 14.3254 7.50117 14.0161 7.48117C13.1867 7.42784 12.0534 7.3545 11.6907 8.33984C11.4601 8.96384 11.4201 10.6598 12.1654 11.5398C12.2854 11.6798 12.3081 11.9398 12.2267 12.2318C12.1201 12.6145 11.9054 12.8478 11.8374 12.8958C11.7094 12.8212 11.4534 12.5238 11.2787 12.3225C10.8614 11.8358 10.3387 11.2292 9.66408 11.0425C9.41875 10.9745 9.14942 10.9185 8.88675 10.8625C8.15475 10.7092 7.32675 10.5345 7.13341 10.1238C6.99208 9.8225 6.99341 9.40784 6.99341 8.9705C6.99341 8.4145 6.99341 7.7865 6.72141 7.17717C6.62686 6.95971 6.48788 6.76443 6.31342 6.60384ZM14.0001 27.3332C6.63608 27.3332 0.666748 21.3638 0.666748 13.9998C0.666748 6.63584 6.63608 0.666504 14.0001 0.666504C21.3641 0.666504 27.3334 6.63584 27.3334 13.9998C27.3334 21.3638 21.3641 27.3332 14.0001 27.3332Z" fill="#57BC88"/>
</svg>
