<svg width="22" height="23" viewBox="0 0 22 23" fill="none" xmlns="http://www.w3.org/2000/svg">
<path d="M7.68588 3.18201L10.2929 0.575013C10.4804 0.387542 10.7347 0.282227 10.9999 0.282227C11.265 0.282227 11.5194 0.387542 11.7069 0.575013L14.3139 3.18201H17.9999C18.2651 3.18201 18.5195 3.28737 18.707 3.47491C18.8945 3.66244 18.9999 3.9168 18.9999 4.18201V7.86801L21.6069 10.475C21.7944 10.6625 21.8997 10.9168 21.8997 11.182C21.8997 11.4472 21.7944 11.7015 21.6069 11.889L18.9999 14.496V18.182C18.9999 18.4472 18.8945 18.7016 18.707 18.8891C18.5195 19.0767 18.2651 19.182 17.9999 19.182H14.3139L11.7069 21.789C11.5194 21.9765 11.265 22.0818 10.9999 22.0818C10.7347 22.0818 10.4804 21.9765 10.2929 21.789L7.68588 19.182H3.99988C3.73467 19.182 3.48031 19.0767 3.29278 18.8891C3.10524 18.7016 2.99988 18.4472 2.99988 18.182V14.496L0.392884 11.889C0.205413 11.7015 0.100098 11.4472 0.100098 11.182C0.100098 10.9168 0.205413 10.6625 0.392884 10.475L2.99988 7.86801V4.18201C2.99988 3.9168 3.10524 3.66244 3.29278 3.47491C3.48031 3.28737 3.73467 3.18201 3.99988 3.18201H7.68588ZM4.99988 5.18201V8.69701L2.51488 11.182L4.99988 13.667V17.182H8.51488L10.9999 19.667L13.4849 17.182H16.9999V13.667L19.4849 11.182L16.9999 8.69701V5.18201H13.4849L10.9999 2.69701L8.51488 5.18201H4.99988ZM10.9999 15.182C9.93902 15.182 8.9216 14.7606 8.17146 14.0104C7.42131 13.2603 6.99988 12.2429 6.99988 11.182C6.99988 10.1211 7.42131 9.10373 8.17146 8.35359C8.9216 7.60344 9.93902 7.18201 10.9999 7.18201C12.0608 7.18201 13.0782 7.60344 13.8283 8.35359C14.5785 9.10373 14.9999 10.1211 14.9999 11.182C14.9999 12.2429 14.5785 13.2603 13.8283 14.0104C13.0782 14.7606 12.0608 15.182 10.9999 15.182ZM10.9999 13.182C11.5303 13.182 12.039 12.9713 12.4141 12.5962C12.7892 12.2212 12.9999 11.7124 12.9999 11.182C12.9999 10.6516 12.7892 10.1429 12.4141 9.7678C12.039 9.39273 11.5303 9.18201 10.9999 9.18201C10.4695 9.18201 9.96074 9.39273 9.58567 9.7678C9.2106 10.1429 8.99988 10.6516 8.99988 11.182C8.99988 11.7124 9.2106 12.2212 9.58567 12.5962C9.96074 12.9713 10.4695 13.182 10.9999 13.182Z" fill="#AAAABC"/>
</svg>
