<svg width="24" height="24" viewBox="0 0 24 24" fill="none" xmlns="http://www.w3.org/2000/svg">
<path d="M10.8889 0.888184C16.4089 0.888184 20.8889 5.36818 20.8889 10.8882C20.8889 16.4082 16.4089 20.8882 10.8889 20.8882C5.36892 20.8882 0.888916 16.4082 0.888916 10.8882C0.888916 5.36818 5.36892 0.888184 10.8889 0.888184ZM10.8889 18.666C15.1856 18.666 18.6667 15.1849 18.6667 10.8882C18.6667 6.59041 15.1856 3.11041 10.8889 3.11041C6.59114 3.11041 3.11114 6.59041 3.11114 10.8882C3.11114 15.1849 6.59114 18.666 10.8889 18.666ZM20.3167 18.7449L23.46 21.8871L21.8878 23.4593L18.7456 20.316L20.3167 18.7449Z" fill="#AAAABC"/>
<path d="M12.1977 6.63961C11.8701 6.78761 11.5832 7.01289 11.3618 7.29612C11.1404 7.57935 10.991 7.91207 10.9264 8.26573C10.8619 8.6194 10.8841 8.98345 10.9911 9.32665C11.0982 9.66984 11.287 9.98194 11.5412 10.2361C11.7954 10.4904 12.1075 10.6791 12.4507 10.7862C12.7939 10.8932 13.1579 10.9155 13.5116 10.8509C13.8653 10.7863 14.198 10.6369 14.4812 10.4155C14.7644 10.1941 14.9897 9.90725 15.1377 9.57961C15.4297 10.5281 15.3959 11.547 15.0416 12.474C14.6873 13.401 14.0329 14.1828 13.1828 14.6947C12.3326 15.2067 11.3356 15.4194 10.3505 15.2989C9.36545 15.1784 8.44904 14.7317 7.74731 14.03C7.04558 13.3283 6.59889 12.4119 6.47843 11.4268C6.35796 10.4417 6.57065 9.4447 7.08261 8.59455C7.59456 7.74439 8.37632 7.09004 9.30332 6.73575C10.2303 6.38146 11.2492 6.34761 12.1977 6.63961Z" fill="#AAAABC"/>
</svg>
