<svg width="24" height="24" viewBox="0 0 24 24" fill="none" xmlns="http://www.w3.org/2000/svg">
<path d="M12 23.1109C5.86336 23.1109 0.888916 18.1365 0.888916 11.9998C0.888916 5.86312 5.86336 0.888672 12 0.888672C18.1367 0.888672 23.1111 5.86312 23.1111 11.9998C23.1111 18.1365 18.1367 23.1109 12 23.1109ZM12 20.8887C14.3575 20.8887 16.6184 19.9522 18.2854 18.2852C19.9524 16.6182 20.8889 14.3573 20.8889 11.9998C20.8889 9.6423 19.9524 7.38138 18.2854 5.71439C16.6184 4.0474 14.3575 3.11089 12 3.11089C9.64255 3.11089 7.38162 4.0474 5.71463 5.71439C4.04764 7.38138 3.11114 9.6423 3.11114 11.9998C3.11114 14.3573 4.04764 16.6182 5.71463 18.2852C7.38162 19.9522 9.64255 20.8887 12 20.8887ZM17 6.99978L14.2222 14.222L7.00003 16.9998L9.77781 9.77756L17 6.99978Z" fill="#80BC6B"/>
</svg>
