<svg width="59" height="41" viewBox="0 0 59 41" fill="none" xmlns="http://www.w3.org/2000/svg">
<rect x="20.0652" y="0.779022" width="18" height="24.9245" rx="0.881306" fill="#96C884"/>
<rect x="0.0651855" y="14.779" width="18" height="12" rx="0.881306" fill="#D8DDE9"/>
<path fill-rule="evenodd" clip-rule="evenodd" d="M0.946491 0.779022C0.45976 0.779022 0.0651855 1.1736 0.0651855 1.66033V29.6603V32.8977V39.8977C0.0651855 40.3844 0.459759 40.779 0.946491 40.779H17.1839C17.6706 40.779 18.0652 40.3844 18.0652 39.8977V32.8977V29.6603V1.66033C18.0652 1.1736 17.6706 0.779022 17.1839 0.779022H0.946491Z" fill="#80BC6B"/>
<path fill-rule="evenodd" clip-rule="evenodd" d="M40.0652 1.66033C40.0652 1.1736 40.4598 0.779022 40.9465 0.779022H57.1839C57.6706 0.779022 58.0652 1.1736 58.0652 1.66033V11.4103V11.8977V19.6603V25.8977V33.8977C58.0652 34.3844 57.6706 34.779 57.1839 34.779H40.9465C40.4598 34.779 40.0652 34.3844 40.0652 33.8977V25.8977V19.6603V11.8977V11.4103V1.66033Z" fill="#79B464"/>
<rect x="24.0652" y="18.779" width="9" height="1" rx="0.5" fill="white"/>
<rect x="24.0652" y="20.779" width="5" height="1" rx="0.5" fill="white"/>
<rect x="24.0652" y="4.77902" width="9" height="1" rx="0.5" fill="white"/>
<rect x="24.0652" y="6.77902" width="5" height="1" rx="0.5" fill="white"/>
<rect x="4.06519" y="18.779" width="9" height="1" rx="0.5" fill="white"/>
<rect x="4.06519" y="20.779" width="5" height="1" rx="0.5" fill="white"/>
<rect x="4.06519" y="4.77902" width="9" height="1" rx="0.5" fill="white"/>
<rect x="4.06519" y="6.77902" width="5" height="1" rx="0.5" fill="white"/>
<rect x="4.06519" y="32.779" width="9" height="1" rx="0.5" fill="white"/>
<rect x="4.06519" y="34.779" width="5" height="1" rx="0.5" fill="white"/>
<rect x="44.0652" y="18.779" width="9" height="1" rx="0.5" fill="white"/>
<rect x="44.0652" y="20.779" width="5" height="1" rx="0.5" fill="white"/>
<rect x="44.0652" y="4.77902" width="9" height="1" rx="0.5" fill="white"/>
<rect x="44.0652" y="6.77902" width="5" height="1" rx="0.5" fill="white"/>
</svg>
