<svg width="59" height="41" viewBox="0 0 59 41" fill="none" xmlns="http://www.w3.org/2000/svg">
<rect x="20.0653" y="0.779022" width="18" height="24.9245" rx="0.881306" fill="#E98A7B"/>
<rect x="0.0653076" y="14.779" width="18" height="12" rx="0.881306" fill="#D8DDE9"/>
<rect x="0.0653076" y="0.779022" width="18" height="33" rx="0.881306" fill="#7F74EF"/>
<rect x="0.0653076" y="28.779" width="18" height="12" rx="0.881306" fill="#7F74EF"/>
<rect x="40.0653" y="10.529" width="18" height="16.25" rx="0.881306" fill="#D2748C"/>
<rect x="40.0653" y="0.779022" width="18" height="12" rx="0.881306" fill="#D2748C"/>
<rect x="40.0653" y="18.779" width="18" height="16" rx="0.881306" fill="#D2748C"/>
<rect x="24.0653" y="18.779" width="9" height="1" rx="0.5" fill="white"/>
<rect x="24.0653" y="20.779" width="5" height="1" rx="0.5" fill="white"/>
<rect x="24.0653" y="4.77902" width="9" height="1" rx="0.5" fill="white"/>
<rect x="24.0653" y="6.77902" width="5" height="1" rx="0.5" fill="white"/>
<rect x="4.06531" y="18.779" width="9" height="1" rx="0.5" fill="white"/>
<rect x="4.06531" y="20.779" width="5" height="1" rx="0.5" fill="white"/>
<rect x="4.06531" y="4.77902" width="9" height="1" rx="0.5" fill="white"/>
<rect x="4.06531" y="6.77902" width="5" height="1" rx="0.5" fill="white"/>
<rect x="4.06531" y="32.779" width="9" height="1" rx="0.5" fill="white"/>
<rect x="4.06531" y="34.779" width="5" height="1" rx="0.5" fill="white"/>
<rect x="44.0653" y="18.779" width="9" height="1" rx="0.5" fill="white"/>
<rect x="44.0653" y="20.779" width="5" height="1" rx="0.5" fill="white"/>
<rect x="44.0653" y="4.77902" width="9" height="1" rx="0.5" fill="white"/>
<rect x="44.0653" y="6.77902" width="5" height="1" rx="0.5" fill="white"/>
</svg>
