<svg width="14" height="16" viewBox="0 0 14 16" fill="none" xmlns="http://www.w3.org/2000/svg">
<path d="M1.49998 1.18438C1.49998 1.11823 1.51477 1.0722 1.5467 1.02365L12.4531 1.02334C12.4852 1.0721 12.5 1.11826 12.5 1.18439V1.18452V14.8156C12.5 14.8822 12.4851 14.9281 12.4534 14.9762L12.4533 14.9764C12.4228 15.0228 12.3896 15.051 12.3342 15.0741L12.324 15.0783L12.3157 15.082C12.311 15.0834 12.2885 15.0893 12.24 15.0893C12.1573 15.0893 12.1036 15.0698 12.0351 15.0037L11.9522 14.9237L11.8518 14.8671L7.44172 12.3829L7.00002 12.1341L6.55831 12.3829L2.14825 14.867L2.0472 14.9239L1.96388 15.0046C1.87909 15.0867 1.82271 15.1 1.75992 15.1C1.73475 15.1 1.71465 15.0957 1.69139 15.0852L1.67865 15.0794L1.66574 15.074C1.6103 15.0509 1.57712 15.0227 1.54666 14.9765L0.794997 15.4714L1.54698 14.9769C1.51474 14.9279 1.49998 14.8818 1.49998 14.8156V1.18438Z" stroke="#AAAABC" stroke-width="1.8"/>
</svg>
