<svg width="22" height="23" viewBox="0 0 22 23" fill="none" xmlns="http://www.w3.org/2000/svg">
<path d="M7.68588 3.18152L10.2929 0.574525C10.4804 0.387054 10.7347 0.281738 10.9999 0.281738C11.265 0.281738 11.5194 0.387054 11.7069 0.574525L14.3139 3.18152H17.9999C18.2651 3.18152 18.5195 3.28688 18.707 3.47442C18.8945 3.66195 18.9999 3.91631 18.9999 4.18152V7.86752L21.6069 10.4745C21.7944 10.6621 21.8997 10.9164 21.8997 11.1815C21.8997 11.4467 21.7944 11.701 21.6069 11.8885L18.9999 14.4955V18.1815C18.9999 18.4467 18.8945 18.7011 18.707 18.8886C18.5195 19.0762 18.2651 19.1815 17.9999 19.1815H14.3139L11.7069 21.7885C11.5194 21.976 11.265 22.0813 10.9999 22.0813C10.7347 22.0813 10.4804 21.976 10.2929 21.7885L7.68588 19.1815H3.99988C3.73467 19.1815 3.48031 19.0762 3.29278 18.8886C3.10524 18.7011 2.99988 18.4467 2.99988 18.1815V14.4955L0.392884 11.8885C0.205413 11.701 0.100098 11.4467 0.100098 11.1815C0.100098 10.9164 0.205413 10.6621 0.392884 10.4745L2.99988 7.86752V4.18152C2.99988 3.91631 3.10524 3.66195 3.29278 3.47442C3.48031 3.28688 3.73467 3.18152 3.99988 3.18152H7.68588ZM4.99988 5.18152V8.69653L2.51488 11.1815L4.99988 13.6665V17.1815H8.51488L10.9999 19.6665L13.4849 17.1815H16.9999V13.6665L19.4849 11.1815L16.9999 8.69653V5.18152H13.4849L10.9999 2.69652L8.51488 5.18152H4.99988ZM10.9999 15.1815C9.93902 15.1815 8.9216 14.7601 8.17146 14.01C7.42131 13.2598 6.99988 12.2424 6.99988 11.1815C6.99988 10.1207 7.42131 9.10324 8.17146 8.3531C8.9216 7.60295 9.93902 7.18152 10.9999 7.18152C12.0608 7.18152 13.0782 7.60295 13.8283 8.3531C14.5785 9.10324 14.9999 10.1207 14.9999 11.1815C14.9999 12.2424 14.5785 13.2598 13.8283 14.01C13.0782 14.7601 12.0608 15.1815 10.9999 15.1815ZM10.9999 13.1815C11.5303 13.1815 12.039 12.9708 12.4141 12.5957C12.7892 12.2207 12.9999 11.712 12.9999 11.1815C12.9999 10.6511 12.7892 10.1424 12.4141 9.76731C12.039 9.39224 11.5303 9.18152 10.9999 9.18152C10.4695 9.18152 9.96074 9.39224 9.58567 9.76731C9.2106 10.1424 8.99988 10.6511 8.99988 11.1815C8.99988 11.712 9.2106 12.2207 9.58567 12.5957C9.96074 12.9708 10.4695 13.1815 10.9999 13.1815Z" fill="#919EB7"/>
</svg>
