<svg width="24" height="24" viewBox="0 0 24 24" fill="none" xmlns="http://www.w3.org/2000/svg">
<path d="M10.8889 0.555176C16.4089 0.555176 20.8889 5.03518 20.8889 10.5552C20.8889 16.0752 16.4089 20.5552 10.8889 20.5552C5.36892 20.5552 0.888916 16.0752 0.888916 10.5552C0.888916 5.03518 5.36892 0.555176 10.8889 0.555176ZM10.8889 18.333C15.1856 18.333 18.6667 14.8518 18.6667 10.5552C18.6667 6.2574 15.1856 2.7774 10.8889 2.7774C6.59114 2.7774 3.11114 6.2574 3.11114 10.5552C3.11114 14.8518 6.59114 18.333 10.8889 18.333ZM20.3167 18.4118L23.46 21.5541L21.8878 23.1263L18.7456 19.983L20.3167 18.4118Z" fill="#57B1BD"/>
<path d="M12.1977 6.30563C11.8701 6.45362 11.5832 6.6789 11.3618 6.96213C11.1404 7.24536 10.991 7.57808 10.9264 7.93175C10.8619 8.28542 10.8841 8.64947 10.9911 8.99266C11.0982 9.33586 11.287 9.64795 11.5412 9.90217C11.7954 10.1564 12.1075 10.3451 12.4507 10.4522C12.7939 10.5593 13.1579 10.5815 13.5116 10.5169C13.8653 10.4524 14.198 10.303 14.4812 10.0815C14.7644 9.8601 14.9897 9.57326 15.1377 9.24563C15.4297 10.1941 15.3959 11.213 15.0416 12.14C14.6873 13.067 14.0329 13.8488 13.1828 14.3607C12.3326 14.8727 11.3356 15.0854 10.3505 14.9649C9.36545 14.8444 8.44904 14.3978 7.74731 13.696C7.04558 12.9943 6.59889 12.0779 6.47843 11.0928C6.35796 10.1078 6.57065 9.11072 7.08261 8.26056C7.59456 7.41041 8.37632 6.75605 9.30332 6.40176C10.2303 6.04747 11.2492 6.01363 12.1977 6.30563Z" fill="#57B1BD"/>
</svg>
