<svg width="28" height="27" viewBox="0 0 28 27" fill="none" xmlns="http://www.w3.org/2000/svg">
<path fill-rule="evenodd" clip-rule="evenodd" d="M12.0002 10.6685H16.0002V14.6685H12.0002V10.6685ZM7.3335 15.3351H11.3335V19.3351H7.3335V15.3351ZM20.6668 15.3351H16.6668V19.3351H20.6668V15.3351Z" fill="#AAAABC"/>
<path d="M15.1111 23.3345V25.5567H12.8889V23.3345H4.00003C3.70534 23.3345 3.42273 23.2174 3.21435 23.009C3.00598 22.8007 2.88892 22.518 2.88892 22.2234V6.66781H25.1111V22.2234C25.1111 22.518 24.9941 22.8007 24.7857 23.009C24.5773 23.2174 24.2947 23.3345 24 23.3345H15.1111ZM5.11114 21.1123H22.8889V8.89003H5.11114V21.1123ZM2.88892 3.33447H25.1111V5.55669H2.88892V3.33447Z" fill="#AAAABC"/>
</svg>
