<svg width="22" height="22" viewBox="0 0 22 22" fill="none" xmlns="http://www.w3.org/2000/svg">
<path d="M5.49959 13.3563L3.14403 15.714L6.28626 18.8563L18.8563 6.28514L15.714 3.14403L13.3551 5.49959L14.9274 7.0707L13.3551 8.64403L11.784 7.07181L10.2129 8.64403L11.784 10.2151L10.2129 11.7863L8.64181 10.2151L7.06959 11.7863L8.64181 13.3574L7.06959 14.9296L5.49959 13.3563ZM16.4996 0.786256L21.2129 5.49959C21.4212 5.70795 21.5382 5.99052 21.5382 6.28514C21.5382 6.57977 21.4212 6.86234 21.2129 7.0707L7.0707 21.2129C6.86234 21.4212 6.57977 21.5382 6.28514 21.5382C5.99052 21.5382 5.70795 21.4212 5.49959 21.2129L0.786256 16.4996C0.577955 16.2912 0.460938 16.0087 0.460938 15.714C0.460937 15.4194 0.577955 15.1368 0.786256 14.9285L14.9285 0.786256C15.1368 0.577955 15.4194 0.460937 15.714 0.460938C16.0087 0.460937 16.2912 0.577955 16.4996 0.786256Z" fill="#AAAABC"/>
<path d="M14.9278 16.4971L13.3556 18.0683L16.2867 20.9983H21V16.2838L18.07 13.3549L16.4989 14.926L18.99 17.4183V18.9894H17.4189L14.9278 16.4971Z" fill="#AAAABC"/>
<path d="M0.785591 5.49826L3.92892 8.64048L5.50004 7.06826L3.14337 4.7127L4.71448 3.14048L7.07115 5.49826L8.64448 3.92604L5.50004 0.783814C5.29167 0.575513 5.00911 0.458496 4.71448 0.458496C4.41985 0.458496 4.13729 0.575513 3.92892 0.783814L0.785591 3.92604C0.682284 4.02923 0.600329 4.15177 0.544413 4.28666C0.488498 4.42154 0.459717 4.56613 0.459717 4.71215C0.459717 4.85816 0.488498 5.00275 0.544413 5.13764C0.600329 5.27252 0.682284 5.39507 0.785591 5.49826Z" fill="#AAAABC"/>
</svg>
