<svg width="263" height="196" viewBox="0 0 263 196" fill="none" xmlns="http://www.w3.org/2000/svg">
<path d="M202.085 173.268H195.537V81.348C195.537 75.0403 190.384 69.8883 184.125 69.8883H35.7253C29.4657 69.8883 24.2651 75.0403 24.2651 81.348V173.268H17.7168V78.2182C17.7168 76.2922 18.1502 74.4626 18.9206 72.7773C21.2799 67.6252 26.9137 63.9658 33.5585 63.9658H41.0698H186.244C195.055 63.9658 202.085 70.3697 202.085 78.2182V173.268Z" fill="#D8E5EE"/>
<path d="M195.541 174.502H24.3027V81.3527C24.3027 75.0497 29.451 69.9016 35.7059 69.9016H184.09C190.393 69.9016 195.541 75.0497 195.541 81.3527V174.502Z" fill="white"/>
<path d="M216.447 179.621H6.15765C3.02397 179.621 0.507812 177.813 0.507812 175.638C0.507812 173.429 3.02397 171.621 6.15765 171.621H216.447C219.533 171.621 222.097 173.429 222.097 175.638C222.097 177.813 219.533 179.621 216.447 179.621Z" fill="#B3CBDD"/>
<circle cx="200" cy="62" r="24" fill="white"/>
<circle cx="200" cy="62" r="16" fill="#F27B81"/>
<mask id="mask0" mask-type="alpha" maskUnits="userSpaceOnUse" x="191" y="56" width="20" height="12">
<rect x="191.696" y="56.7207" width="18.504" height="10.28" rx="5.14" fill="white"/>
</mask>
<g mask="url(#mask0)">
<rect x="191.696" y="56.7207" width="18.504" height="10.28" fill="white"/>
</g>
<mask id="mask1" mask-type="alpha" maskUnits="userSpaceOnUse" x="201" y="58" width="8" height="7">
<path fill-rule="evenodd" clip-rule="evenodd" d="M205.06 58.7769C203.357 58.7769 201.976 60.1577 201.976 61.8609C201.976 63.564 203.357 64.9449 205.06 64.9449C206.763 64.9449 208.144 63.564 208.144 61.8609C208.144 60.1577 206.763 58.7769 205.06 58.7769Z" fill="white"/>
</mask>
<g mask="url(#mask1)">
<rect x="191.182" y="56.2061" width="19.532" height="11.308" fill="white"/>
<path fill-rule="evenodd" clip-rule="evenodd" d="M205.06 57.7485C202.788 57.7485 200.948 59.5897 200.948 61.8605C200.948 64.1314 202.788 65.9725 205.06 65.9725C207.331 65.9725 209.172 64.1314 209.172 61.8605C209.172 59.5897 207.331 57.7485 205.06 57.7485Z" fill="#F27B81"/>
</g>
<rect x="41.54" y="86" width="30.8" height="32.34" rx="1.54" fill="#437EF1"/>
<rect x="76.96" y="86" width="30.8" height="32.34" rx="1.54" fill="#3532D3"/>
<rect x="41.54" y="122.96" width="30.8" height="32.34" rx="1.54" fill="#D2748C"/>
<rect x="76.96" y="122.96" width="30.8" height="32.34" rx="1.54" fill="#E98A7B"/>
<rect x="147.96" y="86" width="30.8" height="32.34" rx="1.54" fill="#D2748C"/>
<rect x="147.96" y="122.961" width="30.8" height="32.34" rx="1.54" fill="#3532D3"/>
<rect x="112.38" y="86" width="30.8" height="32.34" rx="1.54" fill="#7F74EF"/>
<rect x="112.38" y="122.96" width="30.8" height="32.34" rx="1.54" fill="#EFB46D"/>
<path d="M232.81 101L233.391 102.081C234.117 103.412 235.21 104.507 236.54 105.235L237.621 105.816L236.54 106.397C235.211 107.127 234.118 108.221 233.391 109.552L232.81 110.632L232.229 109.552C231.502 108.221 230.41 107.127 229.081 106.397L228 105.816L229.081 105.235C230.411 104.507 231.504 103.412 232.229 102.081L232.81 101Z" fill="#D9E5EF"/>
<path d="M98.8103 40L99.3912 41.0806C100.117 42.4121 101.21 43.5071 102.54 44.2351L103.621 44.8161L102.54 45.397C101.211 46.1267 100.118 47.2213 99.3912 48.5516L98.8103 49.6322L98.2293 48.5516C97.5021 47.2213 96.4096 46.1267 95.0806 45.397L94 44.8161L95.0806 44.2351C96.4107 43.5071 97.5037 42.4121 98.2293 41.0806L98.8103 40Z" fill="#D9E5EF"/>
<path d="M244.122 157.591C244.122 157.591 236.578 154.106 231.613 151.146C226.505 148.186 222.924 140.834 221.062 135.916C220.824 135.296 221.301 134.675 221.97 134.675C222.017 134.675 222.113 134.675 222.208 134.723C226.219 135.725 237.199 139.115 244.122 157.591ZM240.875 154.584C239.729 152.865 238.536 151.242 237.295 149.666C236.006 148.091 234.621 146.611 233.237 145.131C231.804 143.699 230.324 142.314 228.797 141.025C227.269 139.688 225.645 138.447 223.974 137.301C225.55 138.638 227.078 139.927 228.51 141.312C230.038 142.696 231.47 144.033 232.855 145.513C234.287 146.945 235.623 148.425 236.96 149.953C238.297 151.433 239.586 153.008 240.875 154.584Z" fill="#A8DEA4"/>
<path d="M245.167 155.561C245.119 149.201 237.135 139.686 235.892 134.284C234.457 128.211 236.322 125.295 236.8 123.526C236.895 123.191 237.182 123 237.469 123C237.565 123 237.708 123.048 237.804 123.096C251.909 131.224 245.167 155.561 245.167 155.561ZM238.426 126.729C239.477 128.594 240.434 130.459 241.247 132.419C242.06 134.379 242.776 136.387 243.35 138.443C243.924 140.499 244.354 142.603 244.641 144.707C244.976 146.811 245.119 148.915 245.167 151.066C245.31 148.915 245.263 146.763 245.024 144.659C244.832 142.508 244.402 140.404 243.828 138.3C243.255 136.244 242.538 134.236 241.629 132.276C240.721 130.315 239.621 128.45 238.426 126.729Z" fill="#A8DEA4"/>
<path d="M247.634 157.923C247.634 157.923 246.25 140.401 261.002 134.529C261.145 134.481 261.241 134.481 261.384 134.481C261.862 134.481 262.291 134.863 262.291 135.389C262.387 137.823 262.196 143.17 259.857 145.987C256.706 149.807 251.167 152.385 247.634 157.923ZM260 137.728C258.568 138.778 257.231 139.924 256.037 141.213C254.796 142.454 253.745 143.839 252.743 145.319C251.788 146.799 250.881 148.327 250.164 149.95C249.496 151.526 248.875 153.196 248.493 154.915C249.114 153.244 249.783 151.669 250.547 150.093C251.311 148.566 252.17 147.038 253.173 145.605C254.08 144.125 255.178 142.788 256.324 141.452C257.469 140.162 258.711 138.921 260 137.728Z" fill="#A8DEA4"/>
<path d="M261.189 161.78L256.525 175.25L256.144 176.439L255.954 177.011C255.668 177.867 255.145 178.534 254.526 179.057C253.717 179.771 252.67 180.152 251.527 180.152H240.39C238.343 180.152 236.535 178.819 235.916 176.868L231.299 161.732C231.109 161.018 231.204 160.352 231.537 159.781C231.918 159.019 232.727 158.496 233.679 158.496H258.809C260.523 158.496 261.713 160.162 261.189 161.78Z" fill="#D8E5EE"/>
<path d="M240.848 154.551C239.559 153.024 238.319 151.449 236.982 149.922C235.646 148.442 234.31 146.915 232.878 145.531C231.494 144.051 230.014 142.667 228.535 141.331C227.055 139.947 225.528 138.611 224.001 137.322C225.671 138.467 227.246 139.708 228.774 140.997C230.348 142.333 231.828 143.717 233.212 145.149C234.644 146.629 235.98 148.108 237.269 149.683C238.557 151.258 239.75 152.88 240.848 154.551Z" fill="url(#paint0_linear)"/>
<path d="M245.214 151.043C245.118 148.892 244.975 146.789 244.64 144.686C244.353 142.584 243.923 140.481 243.35 138.426C242.824 136.419 242.107 134.412 241.247 132.452C240.435 130.493 239.479 128.581 238.427 126.717C239.67 128.438 240.721 130.349 241.629 132.261C242.537 134.22 243.254 136.228 243.827 138.33C244.401 140.385 244.831 142.488 245.07 144.639C245.261 146.742 245.357 148.892 245.214 151.043Z" fill="url(#paint1_linear)"/>
<path d="M248.497 154.922C248.879 153.204 249.452 151.534 250.167 149.911C250.883 148.337 251.79 146.81 252.745 145.33C253.747 143.851 254.797 142.467 256.038 141.178C257.231 139.937 258.567 138.744 259.999 137.742C258.71 138.935 257.469 140.176 256.324 141.464C255.178 142.753 254.081 144.137 253.174 145.616C252.172 147.048 251.313 148.528 250.55 150.103C249.786 151.63 249.117 153.252 248.497 154.922Z" fill="url(#paint2_linear)"/>
<path d="M256.525 175.25L256.144 176.439L255.954 177.011C255.668 177.867 255.145 178.534 254.526 179.057C253.717 179.771 252.67 180.152 251.527 180.152H240.39C238.343 180.152 236.535 178.819 235.916 176.868L231.299 161.732C231.109 161.018 231.204 160.352 231.537 159.781C231.918 159.019 232.727 158.496 233.679 158.496C234.51 158.496 235.254 159.007 235.532 159.79C236.928 163.712 238.808 169.403 244.007 172.727C248.386 175.535 253.05 175.297 256.525 175.25Z" fill="#B3CBDD"/>
<defs>
<linearGradient id="paint0_linear" x1="40004.5" y1="-45375.2" x2="40004.5" y2="-45071.8" gradientUnits="userSpaceOnUse">
<stop stop-color="#61C89D"/>
<stop offset="1" stop-color="#3C916F"/>
</linearGradient>
<linearGradient id="paint1_linear" x1="40127.2" y1="-45448.7" x2="40127.2" y2="-45144.9" gradientUnits="userSpaceOnUse">
<stop stop-color="#61C89D"/>
<stop offset="1" stop-color="#3C916F"/>
</linearGradient>
<linearGradient id="paint2_linear" x1="40156.5" y1="-45372.8" x2="40156.5" y2="-45069.5" gradientUnits="userSpaceOnUse">
<stop stop-color="#61C89D"/>
<stop offset="1" stop-color="#3C916F"/>
</linearGradient>
</defs>
</svg>
