<svg width="260" height="163" viewBox="0 0 260 163" fill="none" xmlns="http://www.w3.org/2000/svg">
<g clip-path="url(#clip0)">
<path d="M89.7489 6.46533C89.5233 7.03722 89.2817 7.61711 89.04 8.22122C89.2329 7.61932 89.4699 7.03247 89.7489 6.46533Z" fill="url(#paint0_linear)"/>
<path d="M94.8716 129.583L93.1398 132.249C92.9339 132.45 92.716 132.638 92.4874 132.813C91.3328 133.673 89.9077 134.089 88.4719 133.985C87.0362 133.882 85.6855 133.265 84.6662 132.249L59.6963 107.279C61.3717 105.62 63.176 103.936 65.085 102.261C68.2697 99.475 71.6098 96.8719 75.089 94.4639L79.0197 99.7479L95.3629 121.649C96.263 122.804 96.7099 124.248 96.6194 125.709C96.5289 127.17 95.9073 128.548 94.8716 129.583Z" fill="#93B5CE"/>
<path d="M138.214 99.7633C137.831 99.9359 137.432 100.071 137.022 100.166C136.333 100.34 135.622 100.408 134.912 100.367C133.039 100.222 131.22 99.6722 129.58 98.7565C129.129 98.531 128.661 98.2651 128.194 97.951C124.455 95.5331 121.085 92.5866 118.19 89.2034C114.779 85.3249 111.669 81.1916 108.887 76.8394C105.194 71.0857 101.913 65.0779 99.0682 58.861C96.7679 53.891 94.743 48.798 93.0029 43.6053C88.0411 28.6958 86.5591 15.6228 88.9755 8.26071C88.9755 8.26071 88.9755 8.21232 88.9755 8.19621C89.2171 7.5921 89.4588 7.01221 89.6843 6.44032C90.4307 4.75694 91.7411 3.3867 93.3895 2.56591C97.5861 0.624707 103.482 3.33128 109.837 9.37238C115.87 15.1155 122.322 23.871 128.09 34.5275C129.628 37.3628 131.118 40.335 132.528 43.3878C144.956 70.2908 147.478 95.4943 138.214 99.7633Z" fill="#93B5CE"/>
<path d="M129.58 98.7802C112.815 96.1101 95.6782 96.9328 79.2456 101.197C74.8048 102.343 70.4322 103.739 66.1485 105.377C63.571 106.36 61.0981 107.399 58.7783 108.462C57.7473 108.921 56.7405 109.396 55.7658 109.864C54.11 110.686 52.2626 111.045 50.4193 110.903C48.5759 110.761 46.8053 110.124 45.2946 109.058C44.6021 108.567 43.9719 107.994 43.4178 107.35C42.7734 106.601 42.1452 105.82 41.5088 105.007L41.4363 104.902C40.3248 103.444 39.2374 101.873 38.2144 100.198C36.4961 97.4472 34.9545 94.5899 33.599 91.6435C32.1564 88.5374 30.9318 85.3346 29.9341 82.0584L29.6925 81.2529C29.05 79.0315 29.1778 76.6581 30.0553 74.5186C30.9327 72.3791 32.5082 70.5993 34.5253 69.4686C39.0915 66.921 43.4977 64.0965 47.7191 61.0111C63.6503 49.3247 76.5581 34.0004 85.3672 16.315C86.7768 13.4958 87.977 10.8136 89.008 8.32471C86.9459 14.5752 87.687 24.9256 90.9814 37.0158L91.1264 37.5314C91.9319 40.4231 92.8743 43.4113 93.9617 46.4641C94.4342 47.7904 94.9363 49.1329 95.4679 50.4915C96.5473 53.2704 97.7555 56.0815 99.0604 58.9248C108.227 78.796 120.22 93.9876 129.58 98.7802Z" fill="#D8E5EE"/>
<path d="M45.3265 109.074L44.9802 109.284C42.5284 110.647 39.6368 110.983 36.9378 110.219C34.2388 109.455 31.9522 107.654 30.5782 105.208L25.7453 96.5252C24.3873 94.0738 24.0536 91.1848 24.8171 88.4883C25.5807 85.7919 27.3794 83.5067 29.821 82.1312L29.9499 82.0669C30.9477 85.3431 32.1723 88.5459 33.6148 91.652C36.1687 97.3139 39.4829 102.601 43.4659 107.367C44.0149 108.009 44.6397 108.582 45.3265 109.074Z" fill="#F27B81"/>
<path d="M106.696 63.1866C112.335 79.0948 122.194 91.0159 128.195 98.0075C122.234 94.415 115.363 86.916 108.863 76.8959C105.17 71.1422 101.889 65.1346 99.0442 58.9177C96.7439 53.9476 94.7191 48.8545 92.979 43.6618C88.0172 28.7523 86.5351 15.6795 88.9516 8.31738C88.9516 8.31738 88.9516 8.26899 88.9516 8.25288C89.1932 7.64877 89.4348 7.06888 89.6603 6.49698C90.4068 4.81361 91.7172 3.44336 93.3656 2.62258C97.5621 0.681371 103.458 3.38774 109.813 9.42885C108.389 10.164 107.083 11.1089 105.939 12.2319C95.0087 23.0817 101.155 47.6086 106.696 63.1866Z" fill="#93B5CE"/>
<path d="M116.684 53.0448C118.633 57.2707 118.912 62.0769 117.466 66.5001C116.02 70.9232 112.956 74.6362 108.887 76.895C102.263 66.5042 96.9313 55.3436 93.0112 43.6609C97.4067 41.8803 102.319 41.862 106.728 43.6096C111.137 45.3571 114.703 48.7363 116.684 53.0448Z" fill="white"/>
<path opacity="0.56" d="M138.215 99.7637C137.831 99.9362 137.432 100.071 137.023 100.166C136.333 100.34 135.622 100.408 134.912 100.368C133.039 100.222 131.22 99.6725 129.58 98.7568C129.129 98.5313 128.662 98.2655 128.194 97.9513C124.455 95.5334 121.086 92.587 118.19 89.2037C119.254 83.9359 123.732 80.8106 126.777 68.0357C128.114 62.3973 131.336 48.8976 128.154 34.5278C129.693 37.3631 131.183 40.3353 132.592 43.3881C144.957 70.2911 147.478 95.4946 138.215 99.7637Z" fill="#74A2C4"/>
<path d="M91.1344 37.5163C91.0458 37.2908 90.9653 37.1296 90.917 37.0088H90.9895L91.1344 37.5163Z" fill="url(#paint1_linear)"/>
<path opacity="0.56" d="M130 99.5131C117.661 97.6976 105.1 97.6157 92.7344 99.2701C88.4226 99.8508 84.1468 100.644 79.9248 101.647L79.1765 101.821C77.5906 102.201 76.0372 102.581 74.5245 103.036C71.5234 103.879 68.6687 104.798 65.9522 105.762C63.2358 106.727 60.8528 107.668 58.5105 108.67C57.4694 109.103 56.4528 109.551 55.4687 109.991C53.7968 110.767 51.9314 111.105 50.0702 110.972C48.209 110.838 46.4211 110.237 44.8958 109.232C44.1965 108.769 43.5602 108.229 43.0007 107.622C42.3501 106.916 41.7157 106.18 41.0732 105.413L41 105.314C43.84 103.238 46.9005 101.439 50.1334 99.9458C77.8753 86.3921 102.998 98.7918 107.317 90.0218C109.415 85.7544 102.006 79.6951 97.2807 62.4892C96.5277 59.6924 95.944 56.8581 95.5321 54C96.622 56.6196 97.8419 59.2696 99.1594 61.9499C108.439 80.6745 120.549 94.9952 130 99.5131Z" fill="#B3CBDD"/>
<path d="M213.428 38.89C213.428 51.3004 202.562 61.3729 189.159 61.3729C188.614 61.3751 188.069 61.36 187.526 61.3278C183.139 61.0679 178.615 60.9994 174.58 62.74L169.121 65.1046C168.817 65.2365 168.483 65.2826 168.154 65.2378C167.826 65.1931 167.516 65.0593 167.259 64.8509C167.001 64.6425 166.806 64.3675 166.694 64.0558C166.581 63.7441 166.557 63.4076 166.623 63.0829L169.348 52.0167C169.351 52.0053 169.352 51.9936 169.352 51.9819C169.352 51.95 169.342 51.919 169.322 51.8936C167.927 50.0632 166.826 48.0255 166.061 45.8544C164.485 41.3773 164.476 36.4978 166.035 32.0146C169.152 22.9662 178.334 16.4293 189.146 16.4293C202.562 16.3937 213.428 26.4573 213.428 38.89Z" fill="#F27B81"/>
<path d="M182.266 41.559C182.266 42.8927 181.188 43.9706 179.854 43.9706C178.521 43.9706 177.443 42.8927 177.443 41.559C177.443 40.2254 178.521 39.1475 179.854 39.1475H182.266V41.559ZM183.472 41.559C183.472 40.2254 184.55 39.1475 185.883 39.1475C187.217 39.1475 188.295 40.2254 188.295 41.559V47.588C188.295 48.9217 187.217 49.9996 185.883 49.9996C184.55 49.9996 183.472 48.9217 183.472 47.588V41.559Z" fill="white"/>
<path d="M185.884 31.8754C184.55 31.8754 183.472 30.7975 183.472 29.4638C183.472 28.1301 184.55 27.0522 185.884 27.0522C187.217 27.0522 188.295 28.1301 188.295 29.4638V31.8754H185.884ZM185.884 33.0995C187.217 33.0995 188.295 34.1774 188.295 35.511C188.295 36.8447 187.217 37.9226 185.884 37.9226H179.836C178.503 37.9226 177.425 36.8447 177.425 35.511C177.425 34.1774 178.503 33.0995 179.836 33.0995H185.884Z" fill="white"/>
<path d="M195.548 35.511C195.548 34.1774 196.626 33.0995 197.96 33.0995C199.293 33.0995 200.371 34.1774 200.371 35.511C200.371 36.8447 199.293 37.9226 197.96 37.9226H195.548V35.511ZM194.342 35.511C194.342 36.8447 193.264 37.9226 191.931 37.9226C190.597 37.9226 189.519 36.8447 189.519 35.511V29.4638C189.519 28.1301 190.597 27.0522 191.931 27.0522C193.264 27.0522 194.342 28.1301 194.342 29.4638V35.511Z" fill="white"/>
<path d="M191.931 45.1764C193.264 45.1764 194.342 46.2543 194.342 47.588C194.342 48.9217 193.264 49.9996 191.931 49.9996C190.597 49.9996 189.519 48.9217 189.519 47.588V45.1764H191.931ZM191.931 43.9706C190.597 43.9706 189.519 42.8927 189.519 41.559C189.519 40.2254 190.597 39.1475 191.931 39.1475H197.978C199.312 39.1475 200.389 40.2254 200.389 41.559C200.389 42.8927 199.312 43.9706 197.978 43.9706H191.931Z" fill="white"/>
<ellipse opacity="0.2" cx="130" cy="160" rx="81" ry="4" fill="#D9E5EF"/>
<path d="M159.81 117L160.391 118.081C161.117 119.412 162.21 120.507 163.54 121.235L164.621 121.816L163.54 122.397C162.211 123.127 161.118 124.221 160.391 125.552L159.81 126.632L159.229 125.552C158.502 124.221 157.41 123.127 156.081 122.397L155 121.816L156.081 121.235C157.411 120.507 158.504 119.412 159.229 118.081L159.81 117Z" fill="#D9E5EF"/>
<path d="M215.81 81L216.391 82.0806C217.117 83.4121 218.21 84.5071 219.54 85.2351L220.621 85.8161L219.54 86.397C218.211 87.1267 217.118 88.2213 216.391 89.5516L215.81 90.6322L215.229 89.5516C214.502 88.2213 213.41 87.1267 212.081 86.397L211 85.8161L212.081 85.2351C213.411 84.5071 214.504 83.4121 215.229 82.0806L215.81 81Z" fill="#D9E5EF"/>
<path d="M215.81 124L216.391 125.081C217.117 126.412 218.21 127.507 219.54 128.235L220.621 128.816L219.54 129.397C218.211 130.127 217.118 131.221 216.391 132.552L215.81 133.632L215.229 132.552C214.502 131.221 213.41 130.127 212.081 129.397L211 128.816L212.081 128.235C213.411 127.507 214.504 126.412 215.229 125.081L215.81 124Z" fill="#D9E5EF"/>
</g>
<defs>
<linearGradient id="paint0_linear" x1="4177.57" y1="7880.51" x2="4178.68" y2="7880" gradientUnits="userSpaceOnUse">
<stop stop-color="#61D2A7"/>
<stop offset="0.48" stop-color="#4EB98E"/>
<stop offset="1" stop-color="#36996E"/>
</linearGradient>
<linearGradient id="paint1_linear" x1="199.266" y1="1807.02" x2="199.272" y2="1807.43" gradientUnits="userSpaceOnUse">
<stop stop-color="#1B91FB"/>
<stop offset="1" stop-color="#2A4C95"/>
</linearGradient>
<clipPath id="clip0">
<rect width="260" height="162.5" fill="white"/>
</clipPath>
</defs>
</svg>
