<svg width="214" height="177" viewBox="0 0 214 177" fill="none" xmlns="http://www.w3.org/2000/svg">
<path d="M36.3825 23.6596L38.1679 25.3958L29.9673 31.5524C29.7573 31.7122 29.5065 31.8095 29.2436 31.8332C28.9808 31.857 28.7167 31.8062 28.4814 31.6867C28.2462 31.5671 28.0494 31.3836 27.9136 31.1573C27.7779 30.931 27.7087 30.6711 27.7139 30.4072L27.8863 19.2022L17.6602 13.0456C17.4294 12.9094 17.2446 12.7073 17.1297 12.4652C17.0148 12.2231 16.9749 11.9521 17.0153 11.6872C17.0557 11.4223 17.1745 11.1756 17.3564 10.9788C17.5382 10.782 17.7748 10.6441 18.0357 10.5829L62.0864 0.00585938L36.3825 23.6596Z" fill="url(#paint0_linear)"/>
<path d="M27.8865 19.184L62.0866 0L38.1681 25.3776L29.8813 31.6204C29.6804 31.7715 29.4411 31.8632 29.1907 31.8849C28.9402 31.9067 28.6887 31.8575 28.4648 31.7433C28.2408 31.6291 28.0535 31.4544 27.924 31.2389C27.7946 31.0234 27.7283 30.7758 27.7326 30.5245L27.8865 19.184Z" fill="#B3CBDD"/>
<path d="M62.0868 0L50.2968 31.959C50.224 32.1515 50.108 32.3247 49.9576 32.4651C49.8072 32.6056 49.6266 32.7095 49.4296 32.769C49.2326 32.8285 49.0246 32.842 48.8217 32.8083C48.6187 32.7746 48.4261 32.6946 48.259 32.5747L38.1683 25.3653L37.3987 24.6204C37.2659 24.4949 37.16 24.3435 37.0877 24.1758C37.0153 24.008 36.978 23.8273 36.978 23.6446C36.978 23.4618 37.0153 23.281 37.0877 23.1132C37.16 22.9454 37.2659 22.7941 37.3987 22.6686L62.0868 0Z" fill="url(#paint1_linear)"/>
<path d="M172.393 77.976V106.635H48.4844V77.699C48.4844 67.085 57.4115 58.1947 69.0229 56.5386H147.908C157.075 56.5386 165.097 61.0082 169.29 67.5774C171.302 70.6731 172.38 74.2836 172.393 77.976Z" fill="#D8E5EE"/>
<path d="M94.3944 77.6925V106.629H48.4844V77.6925C48.4844 68.5314 55.1335 60.657 64.4177 57.6095C65.9183 57.1161 67.4593 56.7556 69.0229 56.532C70.618 56.212 72.2608 56.212 73.8559 56.532C76.294 56.8779 78.6725 57.5595 80.9237 58.5576C88.9027 62.0792 94.3944 69.3687 94.3944 77.6925Z" fill="#93B5CE"/>
<ellipse opacity="0.2" cx="121" cy="173" rx="93" ry="4" fill="#D9E5EF"/>
<path opacity="0.71" d="M95.9709 77.3542V106.635H94.401V77.699C94.401 67.085 85.4739 58.1947 73.8624 56.5386C72.2674 56.2185 70.6246 56.2185 69.0295 56.5386C67.4658 56.7622 65.9249 57.1227 64.4243 57.616C66.4023 56.8165 68.4694 56.2584 70.5809 55.9537C72.1752 55.6254 73.8196 55.6254 75.4139 55.9537C87.0376 57.6222 95.9709 66.617 95.9709 77.3542Z" fill="url(#paint2_linear)"/>
<path d="M94.394 77.6925V106.629H88.5206V77.6925C88.5206 67.2262 79.8582 58.4592 68.5054 56.6122L69.0225 56.532C70.6176 56.212 72.2604 56.212 73.8555 56.532C85.4669 58.1882 94.394 67.0784 94.394 77.6925Z" fill="url(#paint3_linear)"/>
<path d="M94.399 106.635L81.741 124.631C81.5009 124.969 81.2546 125.296 81.0022 125.622C79.0996 128.005 76.685 129.929 73.9374 131.252C71.1898 132.574 68.1797 133.262 65.1304 133.262H29.7544L47.19 108.47L48.4829 106.623L94.399 106.635Z" fill="#C3D7E5"/>
<path d="M139.122 106.636H126.156V171.982H139.122V106.636Z" fill="#93B5CE"/>
<path opacity="0.56" d="M143.166 76.8487C147.92 76.8487 151.773 72.9952 151.773 68.2417C151.773 63.4882 147.92 59.6348 143.166 59.6348C138.413 59.6348 134.559 63.4882 134.559 68.2417C134.559 72.9952 138.413 76.8487 143.166 76.8487Z" fill="#B3CBDD"/>
<path opacity="0.56" d="M172.387 89.6616H94.3945V106.629H172.387V89.6616Z" fill="#B3CBDD"/>
<path d="M86.1568 61.6849C82.731 59.2907 78.7847 57.7459 74.6439 57.1782C73.823 57.0633 73.0165 56.9832 72.2243 56.938C71.4055 56.9811 70.599 57.0612 69.811 57.1782C68.2474 57.3963 66.7063 57.7527 65.2058 58.2433C55.9154 61.2539 49.2663 69.0235 49.2663 78.0676V106.634H48.4844V77.6983C48.4844 68.5373 55.1335 60.6629 64.4177 57.6153C65.9183 57.122 67.4593 56.7615 69.0229 56.5379C70.618 56.2178 72.2608 56.2178 73.8559 56.5379C78.3347 57.152 82.5752 58.9264 86.1568 61.6849Z" fill="#93B5CE"/>
<path d="M143.167 32.7983V66.8014" stroke="#93B5CE" stroke-width="4.74676" stroke-miterlimit="10" stroke-linecap="round"/>
<path d="M115.572 38.401C115.572 38.7354 115.739 39.0476 116.018 39.2331L122.868 43.8001C123.773 44.4055 124.848 44.7084 125.936 44.6652C127.024 44.6221 128.071 44.235 128.926 43.5599L130.718 42.1378C131.902 41.2024 133.348 40.658 134.856 40.5797C136.364 40.5014 137.858 40.893 139.134 41.7005L144.218 44.912C144.884 45.3326 145.752 44.8541 145.752 44.0665V28.1623C145.752 27.741 145.488 27.3649 145.092 27.2218L138.697 24.9114C137.556 24.4989 136.33 24.3776 135.13 24.5582C133.93 24.7388 132.795 25.2157 131.826 25.9458L129.24 27.8974C128.391 28.5367 127.365 28.8981 126.303 28.9323C125.24 28.9665 124.193 28.6717 123.305 28.0883L117.122 24.0219C116.457 23.5846 115.572 24.0616 115.572 24.8574V38.401Z" fill="#F27B81"/>
<path d="M50.3304 109.886C50.328 109.919 50.328 109.952 50.3304 109.984V109.941V109.886Z" fill="#98CFF4"/>
<path d="M104.995 142.633L105.438 143.452C105.99 144.466 106.824 145.298 107.839 145.847L108.658 146.296L107.839 146.745C106.827 147.298 105.993 148.129 105.438 149.14L104.995 149.965L104.546 149.14C103.991 148.129 103.157 147.298 102.145 146.745L101.326 146.296L102.145 145.847C103.16 145.298 103.994 144.466 104.546 143.452L104.995 142.633Z" fill="#D9E5EF"/>
<path d="M177.009 35.5444L177.625 36.6896C178.398 38.098 179.558 39.2558 180.968 40.0265L182.113 40.6421L180.968 41.2578C179.558 42.0285 178.398 43.1864 177.625 44.5948L177.009 45.7399L176.393 44.5948C175.622 43.1851 174.461 42.0268 173.05 41.2578L171.905 40.6421L173.05 40.0265C174.461 39.2575 175.622 38.0993 176.393 36.6896L177.009 35.5444Z" fill="#D9E5EF"/>
<path d="M5.10383 55L5.7195 56.1452C6.49237 57.5555 7.6523 58.7153 9.06256 59.4882L10.2077 60.1039L9.06256 60.7195C7.65375 61.4943 6.49429 62.6537 5.7195 64.0625L5.10383 65.2077L4.48817 64.0625C3.7153 62.6523 2.55538 61.4924 1.14512 60.7195L0 60.1039L1.14512 59.4882C2.55664 58.717 3.71697 57.5567 4.48817 56.1452L5.10383 55Z" fill="#D9E5EF"/>
<defs>
<linearGradient id="paint0_linear" x1="18646" y1="8342.49" x2="18646" y2="13642.7" gradientUnits="userSpaceOnUse">
<stop stop-color="#D8E5EE"/>
<stop offset="1" stop-color="#D2E3FD"/>
</linearGradient>
<linearGradient id="paint1_linear" x1="10411.5" y1="8602.81" x2="10411.5" y2="14068.4" gradientUnits="userSpaceOnUse">
<stop stop-color="#D8E5EE"/>
<stop offset="1" stop-color="#D2E3FD"/>
</linearGradient>
<linearGradient id="paint2_linear" x1="16575" y1="188963" x2="16575" y2="184197" gradientUnits="userSpaceOnUse">
<stop stop-color="#FD9271"/>
<stop offset="1" stop-color="#EB8B75" stop-opacity="0"/>
</linearGradient>
<linearGradient id="paint3_linear" x1="13670.9" y1="184999" x2="13670.9" y2="190302" gradientUnits="userSpaceOnUse">
<stop stop-color="#050057" stop-opacity="0.01"/>
<stop offset="1" stop-color="#2E419B"/>
</linearGradient>
</defs>
</svg>
