<svg width="268" height="180" viewBox="0 0 268 180" fill="none" xmlns="http://www.w3.org/2000/svg">
<path d="M179.456 92.463V151.369C179.456 156.195 175.488 160.164 170.648 160.164H71.5377C71.2149 160.167 70.8923 160.149 70.5719 160.11C69.374 159.972 68.2167 159.592 67.1704 158.993C66.1241 158.393 65.2107 157.587 64.4857 156.624C64.236 156.286 64.0077 155.932 63.8022 155.565C63.1048 154.276 62.7363 152.835 62.7295 151.369V76.7508C62.7403 74.468 63.652 72.2818 65.2662 70.6675C66.8804 69.0533 69.0666 68.1417 71.3495 68.1309H96.4318C98.3578 68.1334 100.228 68.7801 101.743 69.9682C103.259 71.1562 104.334 72.8172 104.797 74.6868L105.789 78.6815C106.137 80.1042 106.953 81.369 108.105 82.2732C109.257 83.1774 110.679 83.6688 112.144 83.6685H170.661C175.488 83.6685 179.456 87.624 179.456 92.463Z" fill="#B3CBDD"/>
<path d="M179.45 94.4072V99.1448H98.9287C97.9131 99.1452 96.9205 99.4474 96.0769 100.013C95.2334 100.579 94.577 101.382 94.1911 102.322L76.2823 146.138L70.5725 160.103C69.1635 159.943 67.8138 159.446 66.6371 158.654C65.4604 157.863 64.4911 156.8 63.811 155.556L69.5957 141.399L87.5045 97.5832C87.8905 96.6438 88.5469 95.8402 89.3904 95.2746C90.2339 94.7089 91.2265 94.4067 92.2421 94.4062L179.45 94.4072Z" fill="#93B5CE"/>
<path d="M203.286 106.321L201.228 110.981L185.751 146.146L180.925 157.111C180.524 158.019 179.869 158.792 179.038 159.334C178.207 159.877 177.236 160.167 176.243 160.168H69.5562L69.5799 160.12L75.2842 146.146L89.6542 110.979L93.193 102.325C93.4768 101.631 93.9106 101.007 94.4635 100.5C95.0163 99.9921 95.6745 99.6131 96.391 99.3896C96.8849 99.2304 97.4007 99.149 97.9196 99.1484H198.604C202.289 99.1475 204.766 102.939 203.286 106.321Z" fill="url(#paint0_linear)"/>
<path d="M24 110C37.2548 110 48 99.2548 48 86C48 72.7452 37.2548 62 24 62C10.7452 62 0 72.7452 0 86C0 99.2548 10.7452 110 24 110Z" fill="#F27B81"/>
<path d="M32.8504 85.4796C33.0131 85.5694 33.1487 85.7013 33.2431 85.8613C33.3375 86.0214 33.3873 86.2038 33.3873 86.3896C33.3873 86.5754 33.3375 86.7579 33.2431 86.9179C33.1487 87.078 33.0131 87.2098 32.8504 87.2997L26.3357 90.886L19.7158 94.5299C19.5573 94.617 19.3788 94.6612 19.198 94.6583C19.0171 94.6553 18.8402 94.6052 18.6847 94.5129C18.5291 94.4207 18.4003 94.2894 18.311 94.1322C18.2216 93.9749 18.1749 93.797 18.1753 93.6162L18.1853 86.3677L18.1954 79.1192C18.1965 78.9387 18.2446 78.7617 18.3349 78.6055C18.4252 78.4492 18.5546 78.3192 18.7104 78.2281C18.8662 78.137 19.043 78.088 19.2234 78.086C19.4039 78.084 19.5818 78.1289 19.7396 78.2165L26.3494 81.8795L32.8504 85.4796Z" fill="white"/>
<path d="M244 118C257.255 118 268 107.255 268 94C268 80.7452 257.255 70 244 70C230.745 70 220 80.7452 220 94C220 107.255 230.745 118 244 118Z" fill="#A8DEA4"/>
<rect x="234" y="85" width="20" height="3" rx="1.5" fill="white"/>
<rect x="234" y="99" width="20" height="3" rx="1.5" fill="white"/>
<rect x="234" y="92" width="16" height="3" rx="1.5" fill="white"/>
<path d="M140 48C153.255 48 164 37.2548 164 24C164 10.7452 153.255 0 140 0C126.745 0 116 10.7452 116 24C116 37.2548 126.745 48 140 48Z" fill="#62BAFF"/>
<path d="M145.982 15.0629L145.577 20.5452C145.566 20.6931 145.592 20.8414 145.651 20.9774C145.71 21.1133 145.801 21.2328 145.917 21.3255L150.205 24.7675C150.338 24.8742 150.439 25.016 150.496 25.177C150.552 25.338 150.563 25.5116 150.526 25.6782C150.489 25.8448 150.406 25.9978 150.287 26.1198C150.168 26.2417 150.016 26.3278 149.851 26.3683L144.51 27.6786C144.366 27.7135 144.232 27.783 144.12 27.8813C144.009 27.9795 143.923 28.1034 143.87 28.2423L141.922 33.3838C141.862 33.5434 141.758 33.6829 141.623 33.7865C141.487 33.8901 141.325 33.9537 141.155 33.9701C140.985 33.9864 140.814 33.9549 140.662 33.8791C140.509 33.8032 140.38 33.6861 140.29 33.541L137.395 28.8673C137.317 28.7417 137.21 28.6368 137.083 28.5617C136.955 28.4865 136.812 28.4434 136.664 28.436L131.172 28.172C131.001 28.164 130.836 28.1085 130.695 28.0116C130.555 27.9147 130.444 27.7803 130.376 27.6237C130.308 27.4671 130.285 27.2946 130.31 27.1257C130.335 26.9567 130.407 26.7982 130.517 26.668L134.068 22.4649C134.164 22.3517 134.23 22.2169 134.262 22.0722C134.294 21.9275 134.29 21.7772 134.251 21.6344L132.804 16.3293C132.759 16.1647 132.761 15.9906 132.81 15.8269C132.858 15.6632 132.952 15.5164 133.08 15.4032C133.208 15.29 133.365 15.2149 133.533 15.1864C133.701 15.1579 133.874 15.1772 134.032 15.242L139.123 17.3216C139.26 17.3778 139.409 17.3998 139.556 17.3856C139.704 17.3714 139.846 17.3216 139.97 17.2403L144.568 14.2251C144.712 14.1307 144.878 14.0786 145.05 14.0745C145.221 14.0704 145.39 14.1146 145.537 14.2019C145.685 14.2893 145.805 14.4164 145.883 14.5686C145.962 14.7209 145.996 14.8922 145.982 15.0629Z" fill="white"/>
<g opacity="0.13">
<path opacity="0.13" d="M35.0293 75.5371C34.8209 67.0651 34.7122 58.5932 34.6382 50.1212V49.7238C34.6382 49.5922 34.6382 49.4597 34.6382 49.3208L34.6446 48.9097L34.6711 48.4994L34.6848 48.2938L34.7085 48.0891C34.725 47.953 34.7396 47.815 34.7588 47.6807C34.8063 47.4066 34.8447 47.138 34.9096 46.8712C34.9744 46.6044 35.0402 46.3376 35.1142 46.0726C35.1517 45.9401 35.1992 45.8112 35.2412 45.6806L35.3061 45.4851L35.3801 45.2923C35.5741 44.7773 35.8053 44.2771 36.0718 43.7956C37.1442 41.8538 38.7438 40.2548 40.6861 39.1832C41.1713 38.9194 41.6738 38.6887 42.19 38.4924C42.3189 38.4422 42.4504 38.401 42.5811 38.3563L42.7775 38.2896L42.9767 38.232C43.1092 38.1945 43.2417 38.1543 43.3751 38.1196L43.779 38.0282C44.3186 37.9095 44.8661 37.8301 45.4173 37.7907C45.6914 37.7633 45.9655 37.7651 46.2442 37.755H47.04L53.394 37.7432L66.1019 37.7697L72.4559 37.8053L75.6328 37.8245L78.8098 37.8537C87.2818 37.9277 95.7537 38.0365 104.226 38.2457C95.7537 38.4549 87.2818 38.5646 78.8098 38.6377L75.6328 38.6669L72.4559 38.6861L66.1019 38.7218L53.394 38.7482L47.04 38.7364H46.2469C45.9938 38.7446 45.7398 38.7409 45.4876 38.7665C44.9821 38.8006 44.4798 38.8714 43.9846 38.9785L43.6145 39.0635C43.4921 39.0955 43.3705 39.132 43.249 39.1649L43.0663 39.217L42.8835 39.2773C42.7638 39.3184 42.6423 39.355 42.5244 39.4006C42.05 39.5788 41.587 39.7863 41.1383 40.022C39.3373 40.9897 37.8464 42.4467 36.8375 44.2251C36.586 44.6675 36.367 45.1277 36.1824 45.602L36.112 45.7793L36.0499 45.962C36.0097 46.0826 35.964 46.2023 35.9274 46.3275C35.8571 46.5724 35.7812 46.8154 35.7264 47.0649C35.6716 47.3143 35.6213 47.5638 35.572 47.8141C35.5519 47.9402 35.5364 48.0663 35.519 48.1933L35.4925 48.3834L35.4761 48.5743L35.4441 48.9563L35.4304 49.3391C35.4249 49.4652 35.424 49.5977 35.4231 49.7302V50.1276C35.3463 58.5932 35.2376 67.0651 35.0293 75.5371Z" fill="#735CD2"/>
</g>
<path d="M69.8103 24L70.3912 25.0806C71.1169 26.4121 72.2098 27.5071 73.54 28.2351L74.6206 28.8161L73.54 29.397C72.211 30.1267 71.1184 31.2213 70.3912 32.5516L69.8103 33.6322L69.2293 32.5516C68.5021 31.2213 67.4096 30.1267 66.0806 29.397L65 28.8161L66.0806 28.2351C67.4107 27.5071 68.5037 26.4121 69.2293 25.0806L69.8103 24Z" fill="#D9E5EF"/>
<path d="M24.8103 142L25.3912 143.081C26.1169 144.412 27.2098 145.507 28.54 146.235L29.6206 146.816L28.54 147.397C27.211 148.127 26.1184 149.221 25.3912 150.552L24.8103 151.632L24.2293 150.552C23.5021 149.221 22.4096 148.127 21.0806 147.397L20 146.816L21.0806 146.235C22.4107 145.507 23.5037 144.412 24.2293 143.081L24.8103 142Z" fill="#D9E5EF"/>
<path d="M212.81 52L213.391 53.0806C214.117 54.4121 215.21 55.5071 216.54 56.2351L217.621 56.8161L216.54 57.397C215.211 58.1267 214.118 59.2213 213.391 60.5516L212.81 61.6322L212.229 60.5516C211.502 59.2213 210.41 58.1267 209.081 57.397L208 56.8161L209.081 56.2351C210.411 55.5071 211.504 54.4121 212.229 53.0806L212.81 52Z" fill="#D9E5EF"/>
<ellipse opacity="0.2" cx="121" cy="176" rx="81" ry="4" fill="#D9E5EF"/>
<defs>
<linearGradient id="paint0_linear" x1="53855.8" y1="16090.5" x2="53855.8" y2="26250.3" gradientUnits="userSpaceOnUse">
<stop stop-color="#D8E5EE"/>
<stop offset="1" stop-color="#D2E3FD"/>
</linearGradient>
</defs>
</svg>
