<svg width="416" height="361" viewBox="0 0 416 361" fill="none" xmlns="http://www.w3.org/2000/svg">
<ellipse cx="131.143" cy="355.906" rx="65.8863" ry="4.75985" fill="#001D68" fill-opacity="0.04"/>
<ellipse cx="309.435" cy="355.174" rx="65.8863" ry="4.75985" fill="#001D68" fill-opacity="0.04"/>
<path d="M166.289 341.198C166.238 340.932 165.861 339.439 163.88 338.988C161.7 338.486 159.86 336.742 158.936 334.709C155.027 326.1 147.534 310.552 143.684 297.731C141.053 288.981 137.979 280.18 135.23 271.334C134.853 270.137 134.491 268.94 134.129 267.735L134.121 267.713C132.762 263.154 131.505 258.572 130.478 253.99C128.66 245.876 129.052 232.471 140.011 231.791C143.159 231.592 146.218 233.062 148.628 235.08C150.645 236.765 152.249 238.753 153.534 240.947C157.392 247.517 158.426 255.956 159.151 263.76C159.21 264.41 159.269 265.046 159.328 265.688L159.343 265.873C161.663 290.976 163.976 316.087 166.289 341.198Z" fill="#FDC5B6"/>
<path opacity="0.5" d="M158.981 264.417C157.99 264.883 156.993 265.326 155.98 265.74C149.352 268.511 142.368 270.388 135.23 271.334C134.853 270.137 134.491 268.94 134.129 267.735L134.121 267.713C132.762 263.154 131.505 258.572 130.478 253.99C128.66 245.876 129.052 232.471 140.011 231.791C143.159 231.592 146.218 233.062 148.628 235.08C150.645 236.765 152.249 238.753 153.534 240.947L158.981 264.417Z" fill="#D79A9A"/>
<path d="M174.965 353.295L174.987 353.303L174.935 353.325C174.669 353.591 174.314 353.805 173.937 353.931C172.977 354.271 171.913 354.189 170.959 353.812C167.87 353.827 164.678 353.339 163.023 351.056C162.032 349.689 161.862 347.982 161.626 346.363C161.53 345.772 161.434 345.174 161.308 344.575C160.939 342.824 160.362 341.124 159.32 339.617C158.7 338.73 157.909 337.91 157.569 336.912C157.34 336.225 157.318 335.508 157.414 334.798C157.465 334.281 157.584 333.764 157.717 333.261C157.828 332.818 157.953 332.367 158.116 331.924C158.493 330.83 159.039 329.796 159.911 329.101C160.207 328.864 160.547 328.665 160.924 328.517C162.128 328.066 163.577 328.369 164.589 329.145C164.685 329.367 164.781 329.596 164.87 329.825C165.203 330.608 165.528 331.392 165.831 332.175L165.883 332.308C167.471 336.35 168.816 340.474 169.903 344.649C170.169 345.632 170.405 346.615 170.634 347.598C170.686 347.819 170.738 348.048 170.804 348.277C170.841 348.403 170.871 348.529 170.915 348.662C171.55 349.179 172.253 349.637 173.006 350.014C174.078 350.554 175.445 351.196 175.415 352.32C175.408 352.689 175.231 353.022 174.965 353.295Z" fill="#FDC5B6"/>
<path d="M168.882 355.054L163.126 354.596L163.066 354.44L160.362 347.169L160.872 354.418L158.137 354.204L153.77 338.744L158.078 331.318L158.234 331.606L164.367 343.304C165.453 345.395 167.175 347.087 169.281 348.144L173.9 350.479L178.208 352.652L177.107 354.44L176.73 355.054H168.882Z" fill="#060446"/>
<path d="M11.8853 286.24C40.0996 281.695 68.314 277.143 96.5283 272.598C107.916 270.765 120.501 268.223 127.277 258.89C129.317 256.082 130.706 252.616 130.255 249.165C128.681 237.171 113.924 237.74 105.137 240.349C89.205 245.078 73.5977 252.276 58.0274 258.129C44.2232 263.324 27.6921 272.724 18.5213 277.66C16.3487 278.828 14.5677 280.986 14.1835 283.417C13.7992 285.848 11.8853 286.24 11.8853 286.24Z" fill="#FDC5B6"/>
<path d="M9.41707 301.522V301.544L9.38012 301.514C9.02541 301.433 8.67809 301.248 8.38249 301.012C7.62873 300.406 7.16319 299.504 6.99322 298.544C5.44136 296.053 4.23684 293.23 5.24925 290.74C5.86261 289.262 7.15583 288.272 8.35298 287.267C8.78159 286.897 9.21757 286.513 9.6314 286.121C10.8655 284.939 11.9592 283.624 12.6539 282.028C13.0603 281.082 13.3263 280.04 13.9692 279.256C14.4052 278.732 14.9743 278.355 15.595 278.074C16.0384 277.86 16.5187 277.697 16.9916 277.549C17.4055 277.416 17.8341 277.291 18.2775 277.202C19.349 276.965 20.4575 276.892 21.4551 277.246C21.7951 277.365 22.1202 277.542 22.4306 277.771C23.406 278.525 23.879 279.848 23.7608 281.052C23.6277 281.237 23.4947 281.429 23.3469 281.621C22.8813 282.279 22.4084 282.936 21.9281 283.572L21.8468 283.683C19.3712 286.986 16.7109 290.134 13.8732 293.105C13.2155 293.807 12.5356 294.494 11.8557 295.174C11.7005 295.329 11.5454 295.477 11.3902 295.647C11.3089 295.743 11.2202 295.832 11.139 295.928C11.0355 296.704 11.0207 297.502 11.0872 298.3C11.1907 299.438 11.3458 300.864 10.4295 301.404C10.1265 301.581 9.76439 301.603 9.41707 301.522Z" fill="#FDC5B6"/>
<path d="M10.8357 294.295C10.6435 292.063 11.1534 289.831 12.2915 287.903L18.8463 276.825L10.6879 277.054L0.364258 288.316L1.56142 290.637L7.17033 286.595L2.54426 292.543L8.31575 303.783L11.656 303.776L10.8357 294.295Z" fill="#060446"/>
<path d="M142.818 177.927L140.801 159.644L115.579 159.571L110.436 163.339C110.436 163.339 86.6112 178.407 86.6112 196.616C86.6112 196.616 84.9337 205.469 82.569 216.184C82.2069 217.817 81.83 219.502 81.4457 221.202C80.2486 226.426 78.9332 231.836 77.6178 236.691C77.3074 237.799 77.0118 238.878 76.7089 239.92C74.455 247.694 72.238 253.407 70.5679 253.473C70.5679 253.473 71.7207 253.665 73.6346 254.072H73.6421C74.5067 254.264 75.5339 254.486 76.6719 254.759C82.4508 256.141 91.2668 258.661 98.3611 262.504C100.061 263.427 102.359 264.137 105.041 264.669C111.374 265.932 119.843 266.235 127.684 266.154C138.31 266.051 148.789 263.9 158.507 259.851C159.519 259.429 160.517 258.986 161.5 258.528L142.818 177.927Z" fill="#002265"/>
<path opacity="0.5" d="M141.311 162.032C140.941 163.783 139.567 165.608 137.845 167.101C137.719 167.219 137.586 167.33 137.453 167.441C136.53 168.195 135.628 168.816 134.948 169.185C132.591 170.471 129.96 171.269 127.255 171.816C126.125 172.045 124.987 172.23 123.849 172.385C120.072 172.91 105.788 174.41 99.9204 172.134C100.489 171.232 101.103 170.353 101.753 169.488C106.409 163.281 113.252 158.181 120.804 156.526C122.925 156.238 125.083 156.068 127.233 155.994C128.497 155.95 129.761 155.935 131.009 155.95C133.189 155.972 135.414 156.075 137.431 156.807C140.808 158.026 141.747 159.985 141.311 162.032Z" fill="#072B55"/>
<path d="M183.315 55.5367L183.234 55.4555L183.204 55.4037L183.315 55.5367Z" fill="#FDD8B6"/>
<path d="M183.325 55.5439L183.314 55.5339H183.325V55.5439Z" fill="#FDD8B6"/>
<path d="M161.767 83.7585C165.38 88.1333 172.371 82.6722 172.659 78.6373C173.006 73.7896 170.479 67.4418 175.371 63.976C177.832 62.2394 180.3 60.4953 182.761 58.7587C183.212 58.441 183.692 58.0641 183.862 57.5763C183.714 57.4655 183.825 57.5468 183.677 57.4433L179.177 60.0889L179.007 60.1037L178.896 60.0224C178.837 59.9337 178.859 59.8155 178.955 59.7563L183.604 57.0295C183.766 56.9335 183.84 56.7487 183.781 56.5787C183.714 56.394 183.507 56.3201 183.337 56.4014L178.571 58.8696L178.416 58.8844L178.298 58.7957C178.246 58.6996 178.275 58.5814 178.372 58.537L183.012 56.128C183.271 55.9949 183.36 55.6994 183.234 55.4555C183.101 55.3521 182.924 55.3224 182.769 55.3963L177.684 57.8719L177.536 57.8867L177.411 57.7907C177.367 57.6946 177.396 57.5838 177.499 57.532L182.458 55.1155C182.569 55.0638 182.547 54.9086 182.421 54.8791C182.14 54.8052 181.837 54.8274 181.557 54.9456C179.295 55.9284 177.012 56.867 174.743 57.8203C173.62 58.2858 172.437 58.9582 171.248 59.276C171.026 59.3351 170.878 59.3573 170.79 59.3425C170.871 59.0026 170.937 58.6627 170.967 58.3301C171.122 57.7981 171.322 57.266 171.477 56.793C171.654 56.2462 172.341 55.1155 171.95 54.5465C171.817 54.3544 171.632 54.2731 171.388 54.3027C170.79 54.3692 170.627 55.1599 170.331 55.5737C169.703 56.4383 169.009 57.4064 168.491 58.3449C167.398 60.3623 167.545 62.5054 167.25 64.6854C166.939 66.9836 166.252 68.3581 165.04 70.4346C163.688 72.755 159.823 80.6622 161.471 83.3447C161.56 83.4999 161.663 83.6329 161.767 83.7585Z" fill="#FDC5B6"/>
<path d="M172.503 62.8084L172.222 62.6976C172.488 62.0768 172.547 61.0348 172.163 60.2737C171.927 59.7934 171.557 59.4757 171.055 59.3205L171.143 59.0471C171.72 59.217 172.163 59.6013 172.437 60.1481C172.873 61.0275 172.776 62.1433 172.503 62.8084Z" fill="#171F3D"/>
<path d="M165.897 112.83C161.352 119.134 153.585 122.695 147.526 127.573C146.883 128.09 146.24 128.607 145.604 129.125C144.821 129.76 144.038 130.388 143.262 131.016C142.198 131.874 141.133 132.731 140.069 133.588C138.414 134.926 136.751 136.263 135.096 137.601C130.869 141.007 124.839 141.015 120.605 137.616C117.7 135.273 116.289 131.94 116.289 128.622C116.289 127.684 116.407 126.745 116.629 125.829C116.74 125.371 116.88 124.92 117.043 124.484C117.19 124.107 117.353 123.737 117.53 123.383C118.173 122.097 119.067 120.929 120.198 119.939C120.834 119.377 121.55 118.882 122.334 118.454L123.065 118.062L125.703 116.628L145.272 106.024L150.681 103.09L161.869 77.4994L163.436 73.9301L163.451 73.9005L163.473 73.8488L172.54 74.8095H172.599L172.703 74.6913C173.028 86.7958 173.22 102.691 165.897 112.83Z" fill="#F5C952"/>
<path d="M114.84 124.439C121.077 122.104 126.612 117.5 127.928 111.389C128.785 107.406 122.784 101.235 119.466 99.4395C115.254 97.1561 111.19 100.977 106.926 99.846C104.066 99.0848 98.2502 94.7471 98.2797 91.6286C98.2945 89.8402 99.6321 88.3918 100.644 86.9212C105.581 79.7088 103.194 65.6976 91.8284 68.6536C94.4592 67.9663 95.3164 75.2379 94.9543 76.5164C92.7521 84.2387 84.3499 86.1009 82.5763 94.2593C82.1847 96.055 82.1108 98.1094 83.2784 99.5357C84.4903 101.014 86.5817 101.294 88.37 101.982C93.9567 104.14 89.9145 111.042 90.3948 115.298C91.0304 120.929 96.7057 124.757 102.278 125.843C106.054 126.575 110.606 126.028 114.84 124.439Z" fill="#060446"/>
<path d="M42.48 105.788L42.5691 105.698L42.5988 105.646L42.48 105.788Z" fill="#FDD8B6"/>
<path d="M64.7436 134.948C61.0118 139.47 53.7919 133.817 53.4889 129.649C53.1342 124.646 55.7428 118.084 50.6882 114.508C48.1461 112.704 45.5966 110.909 43.0545 109.113C42.5889 108.788 42.0939 108.396 41.9165 107.894C42.0717 107.783 41.9534 107.864 42.1086 107.753L46.7568 110.487L46.9342 110.51L47.045 110.421C47.1115 110.325 47.082 110.207 46.9859 110.148L42.1825 107.332C42.0125 107.229 41.9386 107.036 42.0051 106.859C42.0716 106.674 42.286 106.593 42.4559 106.682L47.3775 109.231L47.5401 109.246L47.6658 109.15C47.7249 109.054 47.6879 108.936 47.5844 108.884L42.7885 106.401C42.5225 106.26 42.4338 105.95 42.5668 105.699C42.6998 105.588 42.8846 105.558 43.0471 105.64L48.2939 108.197L48.4565 108.211L48.5747 108.115C48.6264 108.019 48.5895 107.901 48.486 107.849L43.3722 105.351C43.254 105.292 43.2762 105.13 43.4018 105.1C43.6974 105.034 44.0078 105.049 44.296 105.174C46.6385 106.187 48.9886 107.162 51.3385 108.137C52.4987 108.625 53.718 109.327 54.9448 109.652C55.1738 109.712 55.329 109.726 55.4251 109.719C55.3364 109.364 55.2699 109.017 55.2329 108.67C55.0777 108.123 54.8708 107.576 54.7083 107.081C54.5235 106.519 53.8215 105.352 54.2206 104.768C54.361 104.561 54.5531 104.48 54.8043 104.509C55.4251 104.583 55.5876 105.396 55.898 105.817C56.5483 106.719 57.2578 107.724 57.7898 108.692C58.9279 110.768 58.7726 112.985 59.0756 115.239C59.4008 117.619 60.1102 119.037 61.3591 121.181C62.7632 123.575 66.7537 131.741 65.0467 134.519C64.958 134.674 64.8545 134.815 64.7436 134.948Z" fill="#FDC5B6"/>
<path d="M53.6529 113.296L53.9411 113.185C53.6677 112.542 53.6086 111.47 54.0003 110.672C54.2441 110.185 54.6358 109.852 55.1531 109.697L55.057 109.409C54.4658 109.593 54.0002 109.985 53.7194 110.547C53.2686 111.456 53.3647 112.608 53.6529 113.296Z" fill="#171F3D"/>
<path d="M108.551 124.883C107.413 124.816 106.283 125.075 105.256 125.54C93.8604 130.684 84.3497 139.182 72.829 144L72.8142 144.008C72.2452 144.244 71.5801 143.985 71.3362 143.431L62.9784 124.705C62.5793 124.838 62.1802 124.957 61.7738 125.06C60.3993 126.154 57.4138 126.139 55.7954 126.228C54.9973 126.272 54.1105 126.242 53.5489 125.696L53.4455 125.57C53.2755 131.822 53.3937 141.355 55.0638 149.498C55.6328 151.36 56.3866 153.149 57.4286 154.826C65.7865 168.261 82.1328 157.265 93.0845 152.971C93.5205 152.801 93.9565 152.624 94.3925 152.439C99.9349 150.104 105.248 146.956 108.766 142.227C111.123 139.056 116.377 125.348 108.551 124.883Z" fill="#F5C952"/>
<path opacity="0.21" d="M138.858 136.625C138.821 136.714 138.776 136.795 138.74 136.877C140.365 135.953 142.028 135.088 143.75 134.334C143.536 133.366 143.284 132.435 142.989 131.563C143.765 130.935 144.548 130.3 145.331 129.671C145.198 129.346 145.05 129.014 144.91 128.674C143.794 126.065 139.442 121.883 138.969 119.4C139.316 121.779 139.789 123.922 140.092 125.991C140.491 128.711 140.617 131.305 139.796 134.135C139.567 134.94 139.257 135.768 138.858 136.625Z" fill="#CB6114"/>
<path d="M138.813 163.244C132.723 169.939 120.419 169.547 112.401 169.643C111.012 169.658 109.571 169.658 108.278 169.133C103.704 167.286 104.59 165.15 104.228 161.263C103.837 157.147 102.432 153.526 101.088 149.92C99.277 145.057 97.5921 140.232 98.7006 134.268C99.6613 129.169 104.361 126.25 109.83 124.373C111.818 123.693 113.909 123.146 115.956 122.681C116.141 122.637 116.325 122.592 116.51 122.555C118.919 122.023 121.247 121.595 123.264 121.188C124.099 121.018 124.875 120.848 125.585 120.678C129.435 119.755 133.677 118.868 137.209 120.663C138.554 121.351 139.67 122.371 140.601 123.56C141.318 124.469 141.924 125.474 142.441 126.509C142.87 127.359 143.254 128.29 143.586 129.287L143.594 129.31C144.495 131.999 145.042 135.162 145.242 138.488C145.781 147.555 143.697 157.864 138.813 163.244Z" fill="#F5C952"/>
<path d="M116.504 127.366L116.585 127.506C120.147 127.041 122.586 126.597 123.65 124.136L122.859 116.436L118.824 116.17L118.484 116.148H118.477L116.179 116L115.624 115.963L115.632 116.133L115.728 119.422V119.54L116.504 127.366Z" fill="#FDC5B6"/>
<path opacity="0.3" d="M116.304 116.421C117.981 118.572 120.428 120.353 123.391 121.631L122.874 116.554L119.142 116.481L118.78 116.473H118.772L116.304 116.421Z" fill="#BF7883"/>
<path d="M123.929 108.049C123.589 107.664 123.198 107.317 122.784 107.014L122.584 106.881C121.468 106.142 120.227 105.617 118.971 105.381C118.608 105.699 118.128 105.928 117.522 106.009C113.591 106.541 114.455 110.31 115.15 113.746C115.047 113.85 114.958 113.997 114.965 114.005C115.342 114.33 115.52 115.564 115.8 116.355C115.948 116.495 116.089 116.643 116.222 116.791C116.34 116.916 116.451 117.049 116.569 117.175C117.914 117.855 119.37 118.276 120.803 118.224C122.747 118.143 125.245 116.953 125.762 114.884C126.36 112.519 125.577 109.867 123.929 108.049Z" fill="#FDC5B6"/>
<path d="M122.48 112.261L122.273 111.921L122.776 111.611L121.889 109.35L122.266 109.209L123.271 111.773L122.48 112.261Z" fill="#15203D"/>
<path d="M124.388 110.044C124.573 109.97 124.661 109.763 124.587 109.586C124.521 109.409 124.314 109.32 124.137 109.387C123.952 109.46 123.863 109.66 123.937 109.845C124.004 110.022 124.211 110.111 124.388 110.044Z" fill="#171F3D"/>
<path d="M119.045 111.352C119.222 111.278 119.311 111.079 119.244 110.894C119.17 110.717 118.963 110.628 118.786 110.694C118.601 110.768 118.513 110.975 118.587 111.153C118.653 111.33 118.86 111.426 119.045 111.352Z" fill="#171F3D"/>
<path d="M124.772 106.416C124.373 106.593 123.929 106.682 123.501 106.682C122.488 106.674 121.535 106.275 120.626 105.891C120.604 107.088 119.658 108.241 118.417 108.588C118.151 108.669 117.877 108.706 117.641 108.839C116.88 109.275 117.227 109.941 117.123 110.583C116.961 111.529 116.614 112.446 116.266 113.34C115.897 114.293 115.468 115.261 114.707 115.941C113.953 116.621 112.778 116.946 111.891 116.451C111.285 116.118 110.909 115.475 110.702 114.825C109.312 110.546 113.259 105.337 117.471 104.716C119.85 104.369 122.4 105.026 124.535 106.275C124.617 106.327 124.691 106.371 124.772 106.416Z" fill="#060446"/>
<path d="M113.162 113.65C113.605 114.788 114.891 115.35 116.029 114.907C117.167 114.456 117.729 113.177 117.278 112.039C116.835 110.901 115.549 110.34 114.411 110.783C113.273 111.227 112.711 112.512 113.162 113.65Z" fill="#FDC5B6"/>
<path d="M123.657 113.628C123.863 113.591 124.056 113.761 124.033 113.968C123.937 114.714 123.376 115.343 122.607 115.483C121.831 115.631 121.077 115.239 120.73 114.574C120.634 114.389 120.752 114.16 120.959 114.123L123.657 113.628Z" fill="white"/>
<path d="M379.908 226.727L375.33 211.253L403.277 209.42L400.748 225.56L379.908 226.727Z" fill="#FDC5B6"/>
<path d="M410.147 240.431C410.306 240.409 410.464 240.38 410.623 240.35L412.744 239.862L410.623 240.35C410.464 240.387 410.306 240.409 410.147 240.431Z" fill="#F8BD6C"/>
<path d="M413.314 241.932L413.181 241.947C413.08 241.962 412.972 241.976 412.871 241.984L412.729 241.991C412.62 241.999 412.503 241.999 412.395 241.999H412.294C412.152 241.999 412.01 241.991 411.868 241.976L411.734 241.954C411.634 241.947 411.55 241.932 411.45 241.918L411.266 241.88C411.191 241.866 411.115 241.851 411.04 241.828C410.982 241.814 410.915 241.799 410.848 241.777L410.814 241.77L410.764 241.755C410.614 241.71 410.472 241.658 410.321 241.6L410.204 241.556C410.07 241.496 409.936 241.437 409.811 241.377L409.685 241.311C409.552 241.245 409.418 241.163 409.284 241.082L409.201 241.038C409.05 240.934 408.9 240.823 408.749 240.713L408.657 240.632C408.548 240.543 408.44 240.454 408.331 240.351L408.18 240.21C408.097 240.122 408.013 240.04 407.93 239.952L407.788 239.781C407.704 239.685 407.62 239.589 407.545 239.486L407.428 239.331C407.319 239.168 407.211 239.013 407.102 238.843L400.864 230.382L392.453 232.31L392.469 232.289C392.495 232.237 392.469 232.067 392.428 231.808C392.327 231.254 392.26 230.7 392.244 230.16C392.219 229.399 392.277 228.667 392.411 227.966C392.545 227.3 392.737 226.672 392.996 226.095C393.816 224.256 395.254 222.903 397.051 222.489L399.167 222.002H399.184L396.174 208.449L403.005 206.889L406.299 206.136L414.443 241.673L413.749 241.843C413.599 241.88 413.456 241.91 413.314 241.932Z" fill="#0C3076"/>
<path d="M415.635 241.539L413.024 242.137L404.856 206.459L407.459 205.868L415.635 241.539Z" fill="#52A7F2"/>
<path d="M261.83 285.979L274.147 275.544L287.087 300.388L271.297 304.579L261.83 285.979Z" fill="#FDC5B6"/>
<path d="M261.469 319.176C261.558 319.316 261.647 319.449 261.744 319.575L263.044 321.326L261.744 319.582C261.647 319.449 261.558 319.316 261.469 319.176Z" fill="#F8BD6C"/>
<path d="M261.378 322.68L261.302 322.569C261.256 322.48 261.203 322.392 261.15 322.295L261.081 322.17C261.028 322.074 260.99 321.97 260.944 321.875L260.899 321.771C260.845 321.646 260.792 321.513 260.762 321.38L260.716 321.246C260.686 321.157 260.663 321.069 260.64 320.973L260.594 320.795C260.579 320.714 260.564 320.64 260.549 320.566C260.541 320.5 260.526 320.426 260.518 320.36L260.511 320.337V320.278C260.495 320.123 260.48 319.968 260.473 319.813V319.68C260.465 319.54 260.473 319.399 260.473 319.251L260.48 319.118C260.495 318.963 260.511 318.808 260.526 318.653L260.541 318.564C260.572 318.379 260.61 318.194 260.655 318.017L260.686 317.899C260.731 317.766 260.762 317.625 260.815 317.485L260.883 317.293C260.929 317.182 260.975 317.071 261.02 316.96C261.051 316.893 261.081 316.827 261.112 316.76C261.172 316.642 261.233 316.531 261.286 316.421L261.385 316.251C261.484 316.081 261.591 315.918 261.705 315.756L266.93 306.637L261.781 299.712L261.804 299.72C261.857 299.72 262.009 299.639 262.23 299.491C262.694 299.166 263.173 298.892 263.66 298.656C264.352 298.33 265.044 298.087 265.736 297.931C266.398 297.784 267.044 297.71 267.683 297.71C269.699 297.717 271.509 298.486 272.619 299.971L273.92 301.707V301.715L285.116 293.505L289.299 299.129L291.315 301.841L262.062 323.611L261.629 323.042C261.545 322.924 261.461 322.806 261.378 322.68Z" fill="#0C3076"/>
<path d="M262.673 324.644L261.067 322.501L290.428 300.643L292.026 302.793L262.673 324.644Z" fill="#52A7F2"/>
<path d="M317.388 147.8C317.287 149.664 317.171 151.559 316.961 153.423C316.938 153.586 316.93 153.757 316.907 153.92C316.48 157.33 315.719 160.654 314.057 163.636C311.68 167.908 307.719 170.983 303.681 173.795C303.207 174.113 302.733 174.439 302.267 174.758C302.127 174.851 302.003 174.944 301.855 175.029C297.429 178.043 293.841 179.93 290.493 182.501C290.167 182.749 289.849 182.998 289.53 183.262L289.367 183.402C287.558 184.908 285.795 186.679 283.977 189.024C282.812 190.523 281.64 192.015 280.475 193.506C279.395 194.88 278.308 196.257 277.228 197.631C275.745 199.508 274.261 201.378 272.778 203.262L266.93 210.696L265.765 212.182L263.264 215.359L256.865 223.503L254.69 226.267L282.036 291.008C269.283 297.822 266.883 300.416 258.154 288.104C249.106 275.335 240.113 261.87 232.385 248.266C226.211 237.373 219.073 222.852 221.931 209.95C224.285 199.331 233.146 188.341 238.528 178.858C243.98 169.228 249.502 159.629 255.086 150.06C259.404 142.69 260.127 135.786 263.264 128.074L265.548 128.392L274.914 129.736C281.717 131.732 288.521 133.712 295.332 135.685C298.058 136.469 301.972 136.935 305.746 137.774C310.663 138.853 315.354 140.554 316.883 144.383C317.28 145.369 317.466 146.503 317.388 147.8Z" fill="#2760CA"/>
<path d="M303.686 173.787C303.209 174.11 302.741 174.433 302.272 174.755C302.134 174.84 302.011 174.932 301.865 175.024C297.433 178.035 293.853 179.917 290.504 182.499C290.173 182.744 289.858 182.998 289.543 183.259L289.382 183.39C287.569 184.903 285.802 186.67 283.982 189.013C280.279 193.791 276.523 198.515 272.789 203.255L266.943 210.69L275.801 151.556L278.051 160.797L303.686 173.787Z" fill="#0C3076"/>
<path d="M380.266 231.405C365.193 235.655 349.495 239.615 334.085 242.327C326.997 243.577 320.108 244.352 313.26 244.02C302.44 243.51 292.922 236.601 289.016 226.498C286.338 219.582 284.121 211.342 282.316 202.659C281.681 199.643 281.063 196.592 280.478 193.503C277.924 180.068 275.929 166.094 275.929 152.652C283.75 150.989 287.285 153.147 292.098 150.132C292.337 149.977 292.592 149.814 292.84 149.629L292.914 149.57C294.339 148.533 295.889 147.034 297.702 144.866C299.762 142.378 302.176 139.806 304.929 138.208C305.201 138.051 305.481 137.903 305.753 137.771C306.832 137.235 307.953 136.856 309.123 136.7C309.799 136.601 310.508 136.576 311.216 136.642C311.34 136.658 311.464 136.675 311.587 136.691C312.906 136.865 314.125 137.351 315.238 138.043L315.32 138.208C315.79 139.131 316.227 140.054 316.639 140.993C317.438 143.342 318.345 145.657 319.317 147.957C319.35 148.031 319.383 148.113 319.408 148.187C319.869 149.541 320.289 150.908 320.685 152.282C320.866 152.911 321.039 153.546 321.221 154.182C321.649 155.726 322.036 157.285 322.416 158.837C323.421 176.898 319.968 195.867 320.734 213.773L320.842 213.943L391.003 209.894C393.146 224.185 394.786 227.319 380.266 231.405Z" fill="#2760CA"/>
<path d="M298.253 144.633L298.161 144.479C298.161 144.388 298.191 144.449 298.253 144.633Z" fill="#80C6EE"/>
<path d="M204.834 12.8777C205.89 15.9535 208.115 18.8697 210.423 22.1049C210.423 22.1049 209.208 37.4229 216.491 56.3559C219.491 63.5402 223.395 70.3676 227.982 76.6634C228.445 77.2937 228.916 77.9241 229.387 78.5469C230.792 80.3847 232.257 82.177 233.769 83.9237C236.548 87.1134 239.48 90.2727 242.571 93.2801C251.099 101.566 264.8 111.742 277.353 108.074C283.573 106.259 288.866 100.677 289.178 94.2066C289.436 88.8753 286.436 83.8098 282.442 80.2784C278.447 76.747 273.518 74.4762 268.703 72.2055C261.899 68.9931 255.109 65.6439 248.722 61.6948C244.857 59.3101 241.143 56.69 237.665 53.7661C225.574 43.5668 213.34 25.1048 217.539 8.51089C217.593 8.28307 217.661 8.05518 217.646 7.81976L217.919 7.12113L218.269 6.24013L217.167 5.53386C217.167 5.53386 216.021 6.71862 214.881 11.0702L214.866 11.131L214.775 10.9943L210.841 4.54659C210.454 4.1061 209.026 0.886093 208.646 0.665855L207.439 1.02273C208.388 3.5289 210.659 8.32105 209.915 7.88058L206.679 2.13913C203.93 6.25532 203.733 9.65006 204.834 12.8777Z" fill="#FDC5B6"/>
<path d="M213.576 16.7623C212.217 14.9075 212.667 12.4466 214.648 10.8948L214.921 11.0869C213.052 12.5501 212.63 14.8779 213.909 16.6293L213.576 16.7623Z" fill="#171F3D"/>
<path d="M205.239 4.37693C206.119 5.9584 206.991 7.53249 207.863 9.10657L205.239 4.37693Z" fill="white"/>
<path d="M208.446 9.86007L205.372 4.31037L205.113 4.4508L208.202 10.0226C208.283 9.96347 208.365 9.9118 208.446 9.86007Z" fill="white"/>
<path d="M289.178 94.2064C288.859 100.677 283.573 106.266 277.353 108.074C272.667 109.441 267.822 108.879 263.144 107.208C260.903 106.411 258.709 105.355 256.59 104.14C251.259 101.087 246.398 96.986 242.57 93.2799C239.48 90.2725 236.548 87.1132 233.768 83.9235C232.257 82.1768 230.791 80.3845 229.386 78.5467C235.439 74.7343 240.467 69.4713 245.601 64.3374C246.907 63.0312 247.894 62.1882 248.722 61.6946C255.109 65.6513 261.898 68.9928 268.703 72.1977C273.518 74.476 278.447 76.7468 282.441 80.2782C286.436 83.8096 289.436 88.8751 289.178 94.2064Z" fill="#B9DDFC"/>
<path d="M272.066 154.995L271.968 155.205C271.931 155.055 271.908 154.972 271.908 154.972C271.908 154.972 271.968 154.98 272.066 154.995Z" fill="#80C6EE"/>
<path d="M269.8 82.8038C267.789 91.0177 265.749 99.127 263.843 107.296C261.668 106.519 259.546 105.502 257.49 104.321C260.457 94.4632 264.822 83.5587 269.8 82.8038Z" fill="#52A7F2"/>
<path d="M320.682 152.284C319.787 152.525 318.767 152.696 317.661 152.813C317.443 152.837 317.233 152.852 317.023 152.876C308.808 153.639 300.734 152.066 292.909 149.574C287.692 147.916 282.577 145.852 277.625 143.812C275.18 142.808 272.696 141.78 270.757 140.2C263.392 134.189 269.589 130.553 276.395 130.163C277.586 130.093 278.8 130.124 279.968 130.265C286.773 131.939 293.579 133.589 300.391 135.24C302.712 135.801 305.896 136.166 309.12 136.704C309.68 136.789 310.241 136.883 310.801 136.992C311.058 136.883 311.315 136.781 311.58 136.696C312.904 136.867 314.118 137.35 315.232 138.043L315.317 138.206C315.785 139.133 316.221 140.059 316.633 140.994C317.428 143.345 318.338 145.666 319.304 147.962C319.343 148.04 319.374 148.118 319.405 148.196C319.865 149.543 320.285 150.913 320.682 152.284Z" fill="#2760CA"/>
<path d="M335.469 89.3642C334.792 85.8421 332.814 82.5169 329.599 81.0512C327.653 80.153 325.454 79.9954 323.319 79.9481C316.495 79.7747 310.294 81.4373 303.573 81.8786C295.417 82.4065 288.05 78.6874 280.351 78.6165C279.863 78.6086 279.39 78.6007 278.941 78.5849C260.983 78.1358 259.888 108.338 259.179 121.048V121.064C258.871 126.556 259.084 133.041 263.859 136.626C266.625 138.699 270.029 139.66 273.378 140.487C285.867 143.576 309.041 151.33 318.568 140.479C327.211 130.614 329.095 115.659 333.224 103.65C334.587 99.6787 335.919 95.5734 335.714 91.3735C335.674 90.6959 335.595 90.0261 335.469 89.3642Z" fill="#B9DDFC"/>
<path d="M302.596 74.0606C303.841 71.9008 304.372 69.5796 301.612 67.4736C300.106 66.3284 297.931 65.9748 297.047 64.2839C296.755 63.7151 296.647 63.0618 296.393 62.4777C295.556 60.61 293.135 59.8259 291.321 60.5254C289.514 61.2248 288.346 63.0695 287.931 65.0217C286.893 69.9024 290.006 75.1827 293.972 78.1495C298.154 81.2624 297.446 81.7621 300.406 77.3272C301.067 76.3203 301.935 75.2135 302.596 74.0606Z" fill="#0C3076"/>
<path d="M298.29 82.7452C298.152 82.8446 298.022 82.9134 297.907 82.9593C295.146 84.4814 291.827 86.7531 288.53 85.7588C286.633 85.1775 287.52 82.4927 287.643 81.0012L288.125 74.8745L288.27 72.9853L297.288 73.6966L298.29 82.7452Z" fill="#FDC5B6"/>
<path opacity="0.3" d="M294.723 75.3905L294.655 76.2219C294.609 76.7711 294.433 77.305 294.174 77.7855C293.144 79.6541 290.605 80.9507 287.646 81.0041L288.126 74.8719L294.723 75.3905Z" fill="#BF7883"/>
<path d="M288.702 66.956C288.786 66.9177 288.87 66.8871 288.962 66.8565C292.115 65.9456 296.21 68.5786 299.157 69.4435C299.119 69.6349 299.073 69.8262 299.019 70.0252L297.091 76.2174C296.976 76.5618 296.93 76.8451 296.922 77.0747C296.807 77.1359 296.7 77.2047 296.601 77.2813C296.463 77.22 296.302 77.1665 296.118 77.1129C294.756 78.2534 290.523 79.7459 287.829 78.5519C287.546 78.4218 287.224 78.1079 286.888 77.664C285.518 75.8423 285.127 73.4466 285.793 71.2728C286.229 69.8339 287.255 67.5836 288.702 66.956Z" fill="#FDC5B6"/>
<path d="M295.411 67.036L295.403 71.145C295.395 72.4329 296.399 73.4678 297.634 73.4678L299.88 73.4525L301.083 67.7643L297.45 67.0207L295.411 67.036Z" fill="#0C3076"/>
<path d="M295.184 73.9129L295.352 77.1341C295.398 78.213 296.637 79.1541 298.259 79.4678L298.711 73.7522L295.184 73.9129Z" fill="#0C3076"/>
<path opacity="0.5" d="M295.355 76.7925C296.197 77.6576 297.606 77.7035 298.486 76.8996C299.382 76.0958 299.42 74.7484 298.586 73.8909C297.744 73.0258 296.335 72.9799 295.455 73.7761C294.559 74.5876 294.513 75.935 295.355 76.7925Z" fill="#073955"/>
<path d="M294.911 76.4774C295.745 77.3422 297.146 77.3881 298.041 76.5845C298.929 75.7809 298.975 74.4341 298.133 73.5693C297.291 72.7045 295.883 72.6585 295.003 73.4697C294.107 74.2656 294.069 75.6203 294.911 76.4774Z" fill="#FDC5B6"/>
<path d="M289.945 72.9841L288.501 72.3988L290.021 69.29L290.508 69.4877L289.208 72.1556L290.158 72.5356L289.945 72.9841Z" fill="#073955"/>
<path d="M288.143 69.7063C287.915 69.6152 287.817 69.3722 287.908 69.1672C288.014 68.9622 288.28 68.8711 288.5 68.9622C288.728 69.0533 288.834 69.2963 288.728 69.4937C288.636 69.7063 288.371 69.7898 288.143 69.7063Z" fill="#073955"/>
<path d="M292.039 71.5952C291.811 71.5039 291.704 71.2678 291.811 71.0622C291.902 70.849 292.169 70.7652 292.397 70.849C292.618 70.9404 292.725 71.184 292.626 71.3896C292.527 71.5876 292.26 71.6866 292.039 71.5952Z" fill="#073955"/>
<path d="M287.206 73.3582L290.809 74.7115L290.003 75.3654C288.817 76.331 287.495 75.776 287.304 74.2478L287.206 73.3582Z" fill="white"/>
<path d="M302.638 80.6083L295.753 92.037L289.59 87.1554L282.014 88.9285L284.54 79.4032L284.877 79.503L282.498 88.4756L289.674 86.7794L289.736 86.8254L295.661 91.5304L302.247 80.5699L302.638 80.6083Z" fill="#52A7F2"/>
<path d="M271.908 154.972C271.908 154.972 271.931 155.055 271.968 155.205L272.066 154.995C271.968 154.98 271.908 154.972 271.908 154.972Z" fill="#80C6EE"/>
<path d="M402.533 23.1197C402.442 23.0783 402.392 23.0534 402.392 23.0534L395.067 31.266C395.067 31.266 394.611 46.6209 385.295 64.6388C381.537 71.4577 376.908 77.8204 371.665 83.5775C371.126 84.1582 370.604 84.7306 370.056 85.2947C368.463 86.9704 366.813 88.5963 365.112 90.1642C362.009 93.0344 358.749 95.8549 355.348 98.5012C345.966 105.81 331.241 114.429 319.155 109.418C313.174 106.929 308.52 100.807 308.918 94.3368C309.25 89.0194 312.776 84.3076 317.139 81.2382C321.494 78.1606 326.637 76.4433 331.673 74.7013C338.782 72.2624 345.899 69.6659 352.677 66.439C356.775 64.4812 360.765 62.2995 364.54 59.7611C377.671 50.9429 391.832 33.9205 389.476 16.9644C389.443 16.7405 389.401 16.4999 389.451 16.2677L389.252 15.5459L388.995 14.6417L390.173 14.0445C390.173 14.0445 391.176 15.3468 391.832 19.8015L391.848 19.8679L391.948 19.7434L396.569 13.7707C397 13.3725 398.767 10.328 399.173 10.1372L400.335 10.635C399.124 13.0158 397.199 17.0142 397.116 17.1718L400.973 11.8212L402.243 14.2684L402.259 14.3182L402.508 14.7911C402.79 15.3386 403.006 15.8943 403.18 16.4584L399.754 21.6846L403.479 17.8355C403.711 19.6273 403.396 21.4357 402.533 23.1197Z" fill="#FDC5B6"/>
<path d="M392.517 25.6044C394.074 23.9159 393.893 21.4202 392.097 19.6658L391.801 19.8223C393.497 21.4778 393.67 23.8417 392.204 25.4396L392.517 25.6044Z" fill="#171F3D"/>
<path d="M398.064 20.249L397.823 20.0749L402.025 14.125L402.265 14.299L398.064 20.249Z" fill="#073955"/>
<path d="M370.055 85.2917C368.461 86.9742 366.811 88.6001 365.113 90.1613C362.006 93.0329 358.746 95.856 355.349 98.5011C345.966 105.814 331.236 114.437 319.151 109.413C313.165 106.93 308.522 100.806 308.918 94.3433C309.241 89.0207 312.776 84.3128 317.136 81.239C321.488 78.1652 326.633 76.4422 331.672 74.7031C338.783 72.2602 345.901 69.6636 352.672 66.4442C353.44 67.0185 354.338 67.973 355.487 69.4047C360.033 75.0671 364.457 80.8508 370.055 85.2917Z" fill="#B9DDFC"/>
<path d="M325.538 99.8866C325.259 99.9504 324.988 100.006 324.717 100.07C321.698 100.779 318.734 101.703 315.658 102.062C309.412 102.803 302.918 101.01 297.827 97.3211C295.923 95.9268 293.708 94.2457 292.234 92.445C291.931 92.0705 290.09 88.3019 289.915 88.3178C289.118 88.3975 289.039 89.5448 289.246 90.3176C292.536 102.835 305.707 115.862 319.06 115.296C325.052 115.049 330.836 112.938 336.199 110.268C340.629 108.045 345.688 105.368 350.253 107.289C347.991 103.098 343.529 100.389 338.876 99.4086C334.486 98.4844 329.92 98.9305 325.538 99.8866Z" fill="#52A7F2"/>
</svg>
