<svg width="99" height="141" viewBox="0 0 99 141" fill="none" xmlns="http://www.w3.org/2000/svg">
<path fill-rule="evenodd" clip-rule="evenodd" d="M43.2368 127.72C27.9332 127.72 15.5271 130.474 15.5271 133.87C15.5271 137.266 27.9332 140.019 43.2368 140.019C58.5405 140.019 70.9466 137.266 70.9466 133.87C70.9466 130.474 58.5405 127.72 43.2368 127.72Z" fill="#001D68" fill-opacity="0.04"/>
<path fill-rule="evenodd" clip-rule="evenodd" d="M15.428 91.868C13.3431 95.6095 12.1754 99.8014 12.1754 104.228C12.1754 120.033 27.0627 132.846 45.4271 132.846C63.7916 132.846 78.6789 120.033 78.6789 104.228C78.6789 99.5437 77.3713 95.1222 75.0529 91.2192C60.3225 93.6078 31.0026 93.4539 15.428 91.868Z" fill="#F5C952"/>
<path fill-rule="evenodd" clip-rule="evenodd" d="M45.1964 85.5434C28.4898 85.5434 14.9466 88.826 14.9466 92.8753C14.9466 96.9246 28.4898 100.207 45.1964 100.207C61.9029 100.207 75.4463 96.9246 75.4463 92.8753C75.4463 88.826 61.9029 85.5434 45.1964 85.5434Z" fill="#E2AA3B"/>
<path fill-rule="evenodd" clip-rule="evenodd" d="M47.7357 87.4357C49.3876 75.7265 53.9321 58.8179 67.5943 40.606C75.6423 29.8779 75.6686 3.75271 76.8309 0.871618C70.5157 3.09592 59.1713 8.82952 47.7357 24.9961C35.7479 41.943 43.3528 76.5046 47.7357 87.4357Z" fill="#58BC89"/>
<mask id="mask0" mask-type="alpha" maskUnits="userSpaceOnUse" x="41" y="0" width="36" height="88">
<path fill-rule="evenodd" clip-rule="evenodd" d="M47.7357 87.4357C49.3876 75.7265 53.9321 58.8179 67.5943 40.606C75.6423 29.8779 75.6686 3.75271 76.8309 0.871618C70.5157 3.09592 59.1713 8.82952 47.7357 24.9961C35.7479 41.943 43.3528 76.5046 47.7357 87.4357Z" fill="white"/>
</mask>
<g mask="url(#mask0)">
<g style="mix-blend-mode:multiply" opacity="0.5">
<mask id="path-6-inside-1" fill="white">
<path fill-rule="evenodd" clip-rule="evenodd" d="M48.1987 87.4354C46.938 58.9722 50.398 41.0082 61.2762 24.0496L48.1987 87.4354Z"/>
</mask>
<path fill-rule="evenodd" clip-rule="evenodd" d="M48.1987 87.4354C46.938 58.9722 50.398 41.0082 61.2762 24.0496L48.1987 87.4354Z" fill="black" fill-opacity="0.01"/>
<path d="M41.5983 87.7277C40.3052 58.5349 43.8193 39.0273 55.715 20.4824L66.8373 27.6168C56.9767 42.9891 53.5707 59.4095 54.7992 87.143L41.5983 87.7277Z" fill="#469876" mask="url(#path-6-inside-1)"/>
</g>
</g>
<path fill-rule="evenodd" clip-rule="evenodd" d="M47.6847 99.4545C52.7883 91.0934 61.8056 79.7625 78.2081 70.5751C87.8703 65.1631 96.4648 45.2488 98.2973 43.4517C92.7484 42.9748 82.21 43.4436 68.1778 51.8373C53.4682 60.6362 47.928 89.6101 47.6847 99.4545Z" fill="#58BC89"/>
<mask id="mask1" mask-type="alpha" maskUnits="userSpaceOnUse" x="47" y="43" width="52" height="57">
<path fill-rule="evenodd" clip-rule="evenodd" d="M47.6847 99.4545C52.7883 91.0934 61.8056 79.7625 78.2081 70.5751C87.8703 65.1631 96.4648 45.2488 98.2973 43.4517C92.7484 42.9748 82.21 43.4436 68.1778 51.8373C53.4682 60.6362 47.928 89.6101 47.6847 99.4545Z" fill="white"/>
</mask>
<g mask="url(#mask1)">
<g style="mix-blend-mode:multiply" opacity="0.5">
<mask id="path-10-inside-2" fill="white">
<path fill-rule="evenodd" clip-rule="evenodd" d="M48.0364 99.613C56.4162 77.4728 64.9523 64.9639 78.8192 55.7743L48.0364 99.613Z"/>
</mask>
<path fill-rule="evenodd" clip-rule="evenodd" d="M48.0364 99.613C56.4162 77.4728 64.9523 64.9639 78.8192 55.7743L48.0364 99.613Z" fill="black" fill-opacity="0.01"/>
<path d="M41.8573 97.2742C50.4952 74.4521 59.7011 60.5179 75.1694 50.267L82.4689 61.2817C70.2036 69.4099 62.3372 80.4936 54.2156 101.952L41.8573 97.2742Z" fill="#469876" mask="url(#path-10-inside-2)"/>
</g>
</g>
<path fill-rule="evenodd" clip-rule="evenodd" d="M44.0188 100.6C39.9947 91.6009 32.4486 79.1273 17.2747 67.8125C8.33619 61.1474 2.29876 40.1829 0.701168 38.1514C6.2887 38.4095 16.7262 40.2683 29.6397 50.4797C43.1766 61.184 45.0239 90.7659 44.0188 100.6Z" fill="#58BC89"/>
<mask id="mask2" mask-type="alpha" maskUnits="userSpaceOnUse" x="0" y="38" width="45" height="63">
<path fill-rule="evenodd" clip-rule="evenodd" d="M44.0188 100.6C39.9947 91.6009 32.4486 79.1273 17.2747 67.8125C8.33619 61.1474 2.29876 40.1829 0.701168 38.1514C6.2887 38.4095 16.7262 40.2683 29.6397 50.4797C43.1766 61.184 45.0239 90.7659 44.0188 100.6Z" fill="white"/>
</mask>
<g mask="url(#mask2)">
<g style="mix-blend-mode:multiply" opacity="0.5">
<mask id="path-14-inside-3" fill="white">
<path fill-rule="evenodd" clip-rule="evenodd" d="M45.189 100.581C39.6474 77.4288 32.7299 63.8459 20.082 52.8639L45.189 100.581Z"/>
</mask>
<path fill-rule="evenodd" clip-rule="evenodd" d="M45.189 100.581C39.6474 77.4288 32.7299 63.8459 20.082 52.8639L45.189 100.581Z" fill="black" fill-opacity="0.01"/>
<path d="M38.7636 102.119C33.3916 79.6751 26.9556 67.5821 15.7503 57.8527L24.4136 47.8751C38.5042 60.1097 45.9033 75.1825 51.6144 99.0433L38.7636 102.119Z" fill="#469876" mask="url(#path-14-inside-3)"/>
</g>
</g>
</svg>
