<svg width="59" height="41" viewBox="0 0 59 41" fill="none" xmlns="http://www.w3.org/2000/svg">
<rect x="0.0585632" y="0.853233" width="17.6261" height="18.5074" rx="0.881306" fill="#ED797F" fill-opacity="0.15"/>
<rect x="4.11203" y="12.5002" width="9" height="1" rx="0.5" fill="#ED797F"/>
<rect x="4.11203" y="4.50021" width="10" height="6" rx="1" fill="#ED797F" fill-opacity="0.2"/>
<rect x="4.11203" y="14.5002" width="5" height="1" rx="0.5" fill="#ED797F"/>
<rect x="20.3286" y="0.853233" width="17.6261" height="18.5074" rx="0.881306" fill="#ED797F" fill-opacity="0.15"/>
<rect x="24.112" y="12.5002" width="9" height="1" rx="0.5" fill="#ED797F"/>
<rect x="24.112" y="4.50021" width="10" height="6" rx="1" fill="#ED797F" fill-opacity="0.2"/>
<rect x="24.112" y="14.5002" width="5" height="1" rx="0.5" fill="#ED797F"/>
<rect x="0.0585632" y="22.0046" width="17.6261" height="18.5074" rx="0.881306" fill="#ED797F" fill-opacity="0.15"/>
<rect x="4.11203" y="33.5002" width="9" height="1" rx="0.5" fill="#ED797F"/>
<rect x="4.11203" y="25.5002" width="10" height="6" rx="1" fill="#ED797F" fill-opacity="0.2"/>
<rect x="4.11203" y="35.5002" width="5" height="1" rx="0.5" fill="#ED797F"/>
<rect x="20.3286" y="22.0046" width="17.6261" height="18.5074" rx="0.881306" fill="#ED797F" fill-opacity="0.15"/>
<rect x="24.112" y="33.5002" width="9" height="1" rx="0.5" fill="#ED797F"/>
<rect x="24.112" y="25.5002" width="10" height="6" rx="1" fill="#ED797F" fill-opacity="0.2"/>
<rect x="24.112" y="35.5002" width="5" height="1" rx="0.5" fill="#ED797F"/>
<rect x="40.5986" y="0.853233" width="17.6261" height="18.5074" rx="0.881306" fill="#ED797F" fill-opacity="0.15"/>
<rect x="44.112" y="12.5002" width="9" height="1" rx="0.5" fill="#ED797F"/>
<rect x="44.112" y="4.50021" width="10" height="6" rx="1" fill="#ED797F" fill-opacity="0.2"/>
<rect x="44.112" y="14.5002" width="5" height="1" rx="0.5" fill="#ED797F"/>
<rect x="40.5986" y="22.0046" width="17.6261" height="18.5074" rx="0.881306" fill="#ED797F" fill-opacity="0.15"/>
<rect x="44.112" y="33.5002" width="9" height="1" rx="0.5" fill="#ED797F"/>
<rect x="44.112" y="25.5002" width="10" height="6" rx="1" fill="#ED797F" fill-opacity="0.2"/>
<rect x="44.112" y="35.5002" width="5" height="1" rx="0.5" fill="#ED797F"/>
</svg>
