<svg width="59" height="41" viewBox="0 0 59 41" fill="none" xmlns="http://www.w3.org/2000/svg">
<rect x="20.1121" y="0.5" width="18" height="24.9245" rx="0.881306" fill="#ED797F" fill-opacity="0.15"/>
<path fill-rule="evenodd" clip-rule="evenodd" d="M0.993366 0.5C0.506635 0.5 0.112061 0.894574 0.112061 1.38131V29.3813V32.6187V39.6187C0.112061 40.1054 0.506634 40.5 0.993366 40.5H17.2308C17.7175 40.5 18.1121 40.1054 18.1121 39.6187V32.6187V29.3813V1.38131C18.1121 0.894574 17.7175 0.5 17.2308 0.5H0.993366Z" fill="#ED797F" fill-opacity="0.15"/>
<path fill-rule="evenodd" clip-rule="evenodd" d="M40.1121 1.38131C40.1121 0.894574 40.5066 0.5 40.9934 0.5H57.2308C57.7175 0.5 58.1121 0.894574 58.1121 1.38131V11.1313V11.6187V19.3813V25.6187V33.6187C58.1121 34.1054 57.7175 34.5 57.2308 34.5H40.9934C40.5066 34.5 40.1121 34.1054 40.1121 33.6187V25.6187V19.3813V11.6187V11.1313V1.38131Z" fill="#ED797F" fill-opacity="0.15"/>
<rect x="24.1121" y="18.5" width="9" height="1" rx="0.5" fill="#ED797F"/>
<rect x="24.1121" y="20.5" width="5" height="1" rx="0.5" fill="#ED797F"/>
<rect x="24.1121" y="4.5" width="9" height="1" rx="0.5" fill="#ED797F"/>
<rect x="24.1121" y="6.5" width="5" height="1" rx="0.5" fill="#ED797F"/>
<rect x="4.11206" y="18.5" width="9" height="1" rx="0.5" fill="#ED797F"/>
<rect x="4.11206" y="20.5" width="5" height="1" rx="0.5" fill="#ED797F"/>
<rect x="4.11206" y="4.5" width="9" height="1" rx="0.5" fill="#ED797F"/>
<rect x="4.11206" y="6.5" width="5" height="1" rx="0.5" fill="#ED797F"/>
<rect x="4.11206" y="32.5" width="9" height="1" rx="0.5" fill="#ED797F"/>
<rect x="4.11206" y="34.5" width="5" height="1" rx="0.5" fill="#ED797F"/>
<rect x="44.1121" y="18.5" width="9" height="1" rx="0.5" fill="#ED797F"/>
<rect x="44.1121" y="20.5" width="5" height="1" rx="0.5" fill="#ED797F"/>
<rect x="44.1121" y="4.5" width="9" height="1" rx="0.5" fill="#ED797F"/>
<rect x="44.1121" y="6.5" width="5" height="1" rx="0.5" fill="#ED797F"/>
</svg>
