<svg width="60" height="41" viewBox="0 0 60 41" fill="none" xmlns="http://www.w3.org/2000/svg">
<rect x="0.94635" y="0.352539" width="17.6261" height="18.5074" rx="0.881306" fill="#437EF1"/>
<rect x="4.99982" y="12" width="9" height="1" rx="0.5" fill="white" fill-opacity="0.49"/>
<rect x="4.99982" y="4" width="10" height="6" rx="1" fill="white" fill-opacity="0.49"/>
<rect x="4.99982" y="14" width="5" height="1" rx="0.5" fill="white" fill-opacity="0.49"/>
<rect x="21.2164" y="0.352539" width="17.6261" height="18.5074" rx="0.881306" fill="#3532D3"/>
<rect x="24.9998" y="12" width="9" height="1" rx="0.5" fill="white" fill-opacity="0.49"/>
<rect x="24.9998" y="4" width="10" height="6" rx="1" fill="white" fill-opacity="0.49"/>
<rect x="24.9998" y="14" width="5" height="1" rx="0.5" fill="white" fill-opacity="0.49"/>
<rect x="0.94635" y="21.5039" width="17.6261" height="18.5074" rx="0.881306" fill="#D2748C"/>
<rect x="4.99982" y="33" width="9" height="1" rx="0.5" fill="white" fill-opacity="0.49"/>
<rect x="4.99982" y="25" width="10" height="6" rx="1" fill="white" fill-opacity="0.49"/>
<rect x="4.99982" y="35" width="5" height="1" rx="0.5" fill="white" fill-opacity="0.49"/>
<rect x="21.2164" y="21.5039" width="17.6261" height="18.5074" rx="0.881306" fill="#E98A7B"/>
<rect x="24.9998" y="33" width="9" height="1" rx="0.5" fill="white" fill-opacity="0.49"/>
<rect x="24.9998" y="25" width="10" height="6" rx="1" fill="white" fill-opacity="0.49"/>
<rect x="24.9998" y="35" width="5" height="1" rx="0.5" fill="white" fill-opacity="0.49"/>
<rect x="41.4864" y="0.352539" width="17.6261" height="18.5074" rx="0.881306" fill="#7F74EF"/>
<rect x="44.9998" y="12" width="9" height="1" rx="0.5" fill="white" fill-opacity="0.49"/>
<rect x="44.9998" y="4" width="10" height="6" rx="1" fill="white" fill-opacity="0.49"/>
<rect x="44.9998" y="14" width="5" height="1" rx="0.5" fill="white" fill-opacity="0.49"/>
<rect x="41.4864" y="21.5039" width="17.6261" height="18.5074" rx="0.881306" fill="#EFB46D"/>
<rect x="44.9998" y="33" width="9" height="1" rx="0.5" fill="white" fill-opacity="0.49"/>
<rect x="44.9998" y="25" width="10" height="6" rx="1" fill="white" fill-opacity="0.49"/>
<rect x="44.9998" y="35" width="5" height="1" rx="0.5" fill="white" fill-opacity="0.49"/>
</svg>
