<svg width="59" height="41" viewBox="0 0 59 41" fill="none" xmlns="http://www.w3.org/2000/svg">
<rect x="0.812805" y="0.931641" width="17.6261" height="18.5074" rx="0.881306" fill="white"/>
<circle cx="6.99982" cy="7" r="2" fill="#D8DDE9"/>
<rect x="4.99982" y="11" width="9" height="1" rx="0.5" fill="#D8DDE9"/>
<rect x="4.99982" y="13" width="5" height="1" rx="0.5" fill="#D8DDE9"/>
<rect x="21.0828" y="0.931641" width="17.6261" height="18.5074" rx="0.881306" fill="white"/>
<circle cx="26.9998" cy="8" r="2" fill="#D8DDE9"/>
<rect x="24.9998" y="12" width="9" height="1" rx="0.5" fill="#D8DDE9"/>
<rect x="24.9998" y="14" width="5" height="1" rx="0.5" fill="#D8DDE9"/>
<rect x="0.812805" y="22.083" width="17.6261" height="18.5074" rx="0.881306" fill="white"/>
<circle cx="6.99982" cy="29" r="2" fill="#D8DDE9"/>
<rect x="4.99982" y="33" width="9" height="1" rx="0.5" fill="#D8DDE9"/>
<rect x="4.99982" y="35" width="5" height="1" rx="0.5" fill="#D8DDE9"/>
<rect x="21.0828" y="22.083" width="17.6261" height="18.5074" rx="0.881306" fill="white"/>
<circle cx="26.9998" cy="29" r="2" fill="#D8DDE9"/>
<rect x="24.9998" y="33" width="9" height="1" rx="0.5" fill="#D8DDE9"/>
<rect x="24.9998" y="35" width="5" height="1" rx="0.5" fill="#D8DDE9"/>
<rect x="41.3528" y="0.931641" width="17.6261" height="18.5074" rx="0.881306" fill="white"/>
<circle cx="47.9998" cy="8" r="2" fill="#D8DDE9"/>
<rect x="45.9998" y="12" width="9" height="1" rx="0.5" fill="#D8DDE9"/>
<rect x="45.9998" y="14" width="5" height="1" rx="0.5" fill="#D8DDE9"/>
<rect x="41.3528" y="22.083" width="17.6261" height="18.5074" rx="0.881306" fill="white"/>
<circle cx="47.9998" cy="29" r="2" fill="#D8DDE9"/>
<rect x="45.9998" y="33" width="9" height="1" rx="0.5" fill="#D8DDE9"/>
<rect x="45.9998" y="35" width="5" height="1" rx="0.5" fill="#D8DDE9"/>
</svg>
