<svg width="59" height="41" viewBox="0 0 59 41" fill="none" xmlns="http://www.w3.org/2000/svg">
<rect x="0.195618" y="0.47168" width="17.6261" height="18.5074" rx="0.881306" fill="white"/>
<rect x="3.99982" y="11" width="9" height="1" rx="0.5" fill="#D8DDE9"/>
<rect x="3.99982" y="3" width="10" height="6" rx="1" fill="#D8DDE9"/>
<rect x="3.99982" y="13" width="5" height="1" rx="0.5" fill="#D8DDE9"/>
<rect x="20.4656" y="0.47168" width="17.6261" height="18.5074" rx="0.881306" fill="white"/>
<rect x="23.9998" y="12" width="9" height="1" rx="0.5" fill="#D8DDE9"/>
<rect x="23.9998" y="4" width="10" height="6" rx="1" fill="#D8DDE9"/>
<rect x="23.9998" y="14" width="5" height="1" rx="0.5" fill="#D8DDE9"/>
<rect x="0.195618" y="21.623" width="17.6261" height="18.5074" rx="0.881306" fill="white"/>
<rect x="3.99982" y="33" width="9" height="1" rx="0.5" fill="#D8DDE9"/>
<rect x="3.99982" y="25" width="10" height="6" rx="1" fill="#D8DDE9"/>
<rect x="3.99982" y="35" width="5" height="1" rx="0.5" fill="#D8DDE9"/>
<rect x="20.4656" y="21.623" width="17.6261" height="18.5074" rx="0.881306" fill="white"/>
<rect x="23.9998" y="33" width="9" height="1" rx="0.5" fill="#D8DDE9"/>
<rect x="23.9998" y="25" width="10" height="6" rx="1" fill="#D8DDE9"/>
<rect x="23.9998" y="35" width="5" height="1" rx="0.5" fill="#D8DDE9"/>
<rect x="40.7357" y="0.47168" width="17.6261" height="18.5074" rx="0.881306" fill="white"/>
<rect x="44.9998" y="12" width="9" height="1" rx="0.5" fill="#D8DDE9"/>
<rect x="44.9998" y="4" width="10" height="6" rx="1" fill="#D8DDE9"/>
<rect x="44.9998" y="14" width="5" height="1" rx="0.5" fill="#D8DDE9"/>
<rect x="40.7357" y="21.623" width="17.6261" height="18.5074" rx="0.881306" fill="white"/>
<rect x="44.9998" y="33" width="9" height="1" rx="0.5" fill="#D8DDE9"/>
<rect x="44.9998" y="25" width="10" height="6" rx="1" fill="#D8DDE9"/>
<rect x="44.9998" y="35" width="5" height="1" rx="0.5" fill="#D8DDE9"/>
</svg>
