<svg width="100%" height="100%" viewBox="0 0 24 24" xmlns="http://www.w3.org/2000/svg"><path d="M12 2c5.523 0 10 4.477 10 10s-4.477 10-10 10S2 17.523 2 12 6.477 2 12 2zm0 2a8 8 0 1 0 0 16 8 8 0 0 0 0-16zm0 13s-4-3.597-4-5.875S9.79 7 12 7s4 1.847 4 4.125S12 17 12 17zm.472-3.374c.452-.535.828-1.045 1.101-1.503.292-.489.427-.858.427-.998C14 9.938 13.09 9 12 9c-1.09 0-2 .938-2 2.125 0 .14.135.51.427.998.273.458.649.968 1.1 1.503.154.181.312.361.473.538.161-.177.319-.357.472-.538z" fill="#B0BAC8" fill-rule="nonzero"/></svg>
